<svg width="1440" height="1024" viewBox="0 0 1440 1024" fill="none" xmlns="http://www.w3.org/2000/svg">
<g clip-path="url(#clip0_41_180)">
<rect width="1440" height="1024" fill="#23CCDF"/>
<path d="M1557.73 1029.02C1509.1 999.652 1298.79 949.929 1206.33 964.28C1113.88 978.63 1024.04 1032.77 931.583 1047.12C839.128 1061.48 744.134 1037.16 647.987 995.29C551.767 952.298 456.728 927.296 363.165 924.781C269.677 923.39 167.736 964.646 73.6568 954.261C-20.3486 945 -105.088 905.484 -153.198 883.988L-201.308 862.492" stroke="white" stroke-width="2"/>
<path d="M1534.99 1071.01C1489.79 1036.88 1285.93 966.124 1192.39 971.015C1098.86 975.906 1003.63 1020.62 910.093 1025.51C816.56 1030.4 724.683 996.597 633.556 945.225C542.478 892.727 450.63 858.234 357.819 846.247C264.96 835.384 159.081 866.061 66.607 846.196C-25.915 827.457 -105.947 779.58 -151.486 753.331L-197.025 727.083" stroke="white" stroke-width="5"/>
<path d="M1530.29 1059.21C1481.67 1030.16 1271.37 981.782 1178.91 996.727C1086.45 1011.67 996.592 1066.39 904.132 1081.34C811.671 1096.28 716.685 1072.57 620.552 1031.32C524.346 988.948 429.315 964.556 335.753 962.642C242.264 961.852 140.308 1003.76 46.2321 993.981C-47.7708 985.324 -132.497 946.352 -180.6 925.165L-228.703 903.978" stroke="white" stroke-width="5"/>
<g filter="url(#filter0_d_41_180)">
<path d="M509.779 567.624C378.51 603.842 342.716 571.397 299.556 550.244C229.403 515.864 139.401 532.055 80.1159 583.306C20.8311 634.558 -6.0906 721.18 13.5129 797.557C33.1175 873.934 98.2986 936.294 174.715 951.814C266.982 970.549 362.16 985.96 454.785 969.04C547.399 952.121 636.935 899.061 675.337 809.663C733.615 673.983 647.042 529.753 509.779 567.624Z" fill="#ECF7FD"/>
<path d="M262.811 765.873C270.673 763.685 276.15 756.201 275.195 749.871C274.666 746.344 272.669 743.707 269.846 742.16C266.152 740.172 263.458 740.87 258.378 741.595C255.464 742.181 252.434 743.248 250.112 745.087C246.369 748.11 244.77 752.08 245.277 756.825C245.759 760.061 247.841 763.292 250.894 764.952C253.746 766.65 257.971 766.862 261.47 766.152L262.811 765.873ZM259.757 737.523C256.066 738.272 251.734 738.682 248.982 734.992C247.492 733.015 246.425 729.895 245.915 726.508C245.49 723.706 245.457 720.838 245.884 718.326C246.49 713.048 248.871 710.294 252.567 706.968C256.244 703.492 261.015 699.351 263.978 693.744C266.633 688.809 267.547 682.859 266.79 677.86L266.287 675.843C264.889 670.515 260.978 667.055 256.054 666.232C254.417 665.954 252.625 666.007 250.88 666.363C247.391 667.063 244.072 668.953 241.69 671.708C238.808 675.172 237.58 680.272 238.147 684.102L238.584 685.687C239.544 689.44 242.789 691.062 245.449 692.799C247.046 694.143 248.625 695.346 248.889 697.11C249.022 697.986 248.962 698.912 248.337 700.103C246.423 703.375 241.354 708.187 235.727 709.32L235.142 709.435C229.276 710.313 223.227 707.285 219.534 699.993C218.15 697.393 217.065 694.122 216.555 690.735C215.648 684.698 216.419 677.872 219.555 672.075C224.566 662.875 235.906 655.88 247.44 652.803L249.961 652.294C260.63 650.144 271.177 651.193 278.433 654.283C286.12 657.588 289.96 663.181 291.776 669.942L292.916 674.875C293.738 680.327 293.428 686.302 291.855 691.772C289.914 698.838 286.059 705.081 281.344 709.664C276.64 714.248 271.086 717.193 268.874 721.126C266.863 725.022 268.003 729.944 267.259 732.976C266.496 735.857 263.437 736.774 259.757 737.523Z" fill="#7ACAEF"/>
<path d="M482.519 710.511C488.896 708.802 493.295 702.545 492.482 697.142C492.029 694.129 490.39 691.859 488.079 690.477C485.067 688.717 482.878 689.259 478.746 689.772C476.387 690.222 473.923 691.064 472.046 692.585C469.023 695.082 467.742 698.431 468.196 702.471C468.612 705.233 470.325 708.017 472.817 709.48C475.147 710.983 478.587 711.238 481.42 710.702L482.519 710.511ZM479.857 686.351C476.862 686.916 473.347 687.183 471.083 684.001C469.852 682.298 468.972 679.623 468.538 676.73C468.178 674.341 468.132 671.895 468.455 669.765C468.911 665.291 470.835 662.995 473.811 660.236C476.778 657.356 480.626 653.922 482.997 649.215C485.121 645.069 485.824 640.034 485.181 635.76L484.755 634.035C483.582 629.475 480.381 626.464 476.373 625.67C475.037 625.406 473.587 625.422 472.166 625.68C469.333 626.216 466.651 627.749 464.726 630.045C462.413 632.931 461.435 637.249 461.927 640.515L462.296 641.867C463.1 645.075 465.743 646.52 467.922 648.041C469.229 649.211 470.517 650.26 470.754 651.772C470.867 652.528 470.829 653.313 470.327 654.304C468.79 657.047 464.705 661.043 460.138 661.904L459.664 661.99C454.908 662.628 449.963 659.933 446.913 653.663C445.769 651.428 444.859 648.631 444.424 645.738C443.65 640.588 444.229 634.797 446.733 629.94C450.743 622.22 459.917 616.492 469.27 614.088L471.317 613.705C479.978 612.079 488.552 613.179 494.473 615.944C500.744 618.893 503.897 623.725 505.421 629.507L506.386 633.713C507.086 638.359 506.875 643.43 505.632 648.057C504.105 654.03 501.004 659.253 497.213 663.071C493.412 666.878 488.92 669.28 487.158 672.584C485.545 675.849 486.501 680.065 485.921 682.626C485.324 685.066 482.841 685.796 479.857 686.351Z" fill="#7ACAEF"/>
<path d="M595.274 626.378C600.587 627.577 606.2 624.734 607.67 620.521C608.488 618.174 608.168 615.906 606.999 614.023C605.464 611.603 603.665 611.162 600.448 609.953C598.55 609.371 596.42 609.049 594.474 609.422C591.307 610.075 589.094 612.006 587.877 615.094C587.121 617.251 587.316 619.91 588.565 621.925C589.693 623.898 592.114 625.391 594.381 626.087L595.274 626.378ZM602.56 607.901C600.162 607.163 597.476 606.02 597.044 602.855C596.799 601.152 597.173 598.881 597.96 596.634C598.612 594.769 599.515 592.986 600.566 591.577C602.608 588.518 604.892 587.594 608.131 586.74C611.401 585.785 615.527 584.779 619.064 582.278C622.205 580.094 624.643 576.716 625.803 573.386L626.159 571.98C627.051 568.245 625.856 564.842 623.23 562.733C622.361 562.03 621.29 561.486 620.146 561.133C617.868 560.437 615.321 560.522 613.037 561.456C610.238 562.657 607.876 565.411 606.996 567.949L606.743 569.064C606.104 571.684 607.483 573.741 608.49 575.673C609.001 577.016 609.542 578.269 609.128 579.443C608.92 580.025 608.593 580.575 607.844 581.111C605.676 582.509 601.155 583.834 597.491 582.711L597.11 582.596C593.39 581.242 590.811 577.412 590.977 571.718C590.997 569.665 591.403 567.293 592.189 565.047C593.587 561.035 596.232 557.065 599.921 554.515C605.808 550.466 614.701 549.828 622.462 551.665L624.108 552.164C631.061 554.295 636.91 558.358 640.179 562.617C643.637 567.149 644.095 571.844 642.992 576.593L642.083 580.006C640.82 583.627 638.721 587.22 636.047 590.082C632.648 593.813 628.376 596.408 624.146 597.715C619.917 599.022 615.71 599.032 613.157 600.748C610.725 602.496 609.816 605.908 608.411 607.535C607.058 609.062 604.958 608.639 602.56 607.901Z" fill="#7ACAEF"/>
<path d="M149.071 604.501C153.13 603.131 155.737 598.93 155.006 595.501C154.602 593.585 153.448 592.195 151.895 591.415C149.872 590.408 148.479 590.858 145.827 591.365C144.314 591.753 142.758 592.402 141.6 593.458C139.741 595.191 139.046 597.388 139.483 599.969C139.859 601.723 141.08 603.436 142.742 604.278C144.304 605.138 146.548 605.16 148.354 604.695L149.071 604.501ZM146.413 589.096C144.496 589.581 142.228 589.911 140.647 587.963C139.792 586.918 139.114 585.241 138.719 583.406C138.392 581.893 138.266 580.321 138.4 578.944C138.529 576.047 139.681 574.498 141.502 572.594C143.312 570.619 145.67 568.246 147.019 565.129C148.234 562.374 148.497 559.115 147.92 556.402L147.578 555.312C146.65 552.435 144.454 550.632 141.83 550.294C140.956 550.175 140.019 550.247 139.111 550.479C137.295 550.945 135.623 552.045 134.461 553.604C133.073 555.553 132.613 558.367 133.056 560.444L133.349 561.292C133.994 563.312 135.757 564.134 137.228 565.014C138.117 565.717 138.996 566.329 139.198 567.287C139.304 567.761 139.299 568.275 139.022 568.926C138.138 570.749 135.646 573.492 132.72 574.239L132.417 574.316C129.362 574.931 126.065 573.409 123.849 569.513C123.017 568.126 122.33 566.368 121.935 564.532C121.232 561.265 121.39 557.522 122.82 554.286C125.125 549.155 130.84 545.085 136.797 543.15L138.109 542.821C143.648 541.406 149.25 541.752 153.181 543.27C157.351 544.901 159.587 547.871 160.789 551.516L161.568 554.181C162.204 557.136 162.262 560.397 161.629 563.42C160.866 567.318 159.061 570.813 156.751 573.417C154.441 576.021 151.626 577.755 150.608 579.949C149.692 582.114 150.471 584.778 150.193 586.446C149.905 588.044 148.33 588.612 146.413 589.096Z" fill="#7ACAEF"/>
<path d="M350.751 623.689C354.315 622.526 356.762 619.209 356.305 616.577C356.048 615.105 355.132 614.07 353.829 613.504C352.135 612.783 350.924 613.163 348.615 613.624C347.293 613.963 345.919 614.504 344.874 615.349C343.19 616.741 342.479 618.455 342.731 620.43C342.97 621.781 343.933 623.069 345.326 623.666C346.629 624.293 348.551 624.241 350.135 623.844L350.751 623.689ZM349.226 611.869C347.551 612.295 345.585 612.608 344.321 611.146C343.634 610.365 343.134 609.082 342.886 607.681C342.676 606.521 342.647 605.313 342.829 604.238C343.082 602.006 344.151 600.769 345.816 599.255C347.472 597.681 349.624 595.79 350.936 593.347C352.125 591.185 352.502 588.663 352.14 586.586L351.896 585.748C351.233 583.548 349.435 582.222 347.202 582.029C346.458 581.961 345.642 582.044 344.855 582.248C343.271 582.655 341.773 583.546 340.704 584.783C339.411 586.331 338.876 588.509 339.152 590.102L339.357 590.748C339.815 592.293 341.289 592.871 342.511 593.516C343.24 594.037 343.971 594.487 344.094 595.223C344.161 595.586 344.137 595.978 343.861 596.499C343.011 597.93 340.725 600.111 338.173 600.771L337.91 600.839C335.248 601.396 332.481 600.313 330.769 597.357C330.125 596.304 329.614 594.971 329.367 593.559C328.928 591.049 329.238 588.154 330.642 585.621C332.875 581.597 337.999 578.306 343.219 576.656L344.359 576.365C349.202 575.124 354.001 575.242 357.312 576.31C360.823 577.462 362.593 579.693 363.451 582.479L363.995 584.518C364.396 586.786 364.28 589.301 363.593 591.649C362.749 594.68 361.021 597.421 358.907 599.494C356.794 601.567 354.284 602.981 353.291 604.702C352.399 606.405 352.932 608.433 352.618 609.738C352.284 610.963 350.89 611.442 349.226 611.869Z" fill="#7ACAEF"/>
<path d="M50.6645 730.188C53.9725 728.419 55.8096 724.723 54.888 722.218C54.3782 720.814 53.2904 719.948 51.9142 719.622C50.1272 719.213 48.994 719.795 46.8018 720.65C45.5582 721.211 44.3026 721.984 43.4177 723.002C42.0022 724.659 41.6024 726.476 42.1975 728.384C42.6679 729.667 43.8349 730.765 45.3111 731.122C46.7056 731.508 48.5915 731.134 50.0776 730.454L50.6645 730.188ZM47.1013 718.821C45.5247 719.53 43.6463 720.186 42.1385 718.964C41.3192 718.311 40.6067 717.137 40.1165 715.794C39.7146 714.683 39.4745 713.503 39.4648 712.416C39.3261 710.17 40.1648 708.769 41.5307 706.991C42.8872 705.153 44.6704 702.916 45.5415 700.277C46.329 697.95 46.2636 695.393 45.5481 693.403L45.1631 692.625C44.1264 690.582 42.1232 689.576 39.8872 689.776C39.1417 689.839 38.3547 690.062 37.6066 690.397C36.1205 691.077 34.8011 692.212 33.9621 693.612C32.9588 695.364 32.8162 697.607 33.3651 699.122L33.6807 699.729C34.4015 701.175 35.9587 701.482 37.2729 701.907C38.0845 702.288 38.8767 702.608 39.1312 703.314C39.2584 703.668 39.3051 704.051 39.1185 704.613C38.5298 706.177 36.6629 708.715 34.2673 709.809L34.0146 709.917C31.4888 710.929 28.5758 710.337 26.3768 707.739C25.5602 706.815 24.8276 705.59 24.3375 704.247C23.4653 701.853 23.2723 698.953 24.2048 696.215C25.7062 691.861 30.1753 687.728 35.0308 685.189L36.1019 684.707C40.6509 682.648 45.3986 681.919 48.8462 682.395C52.5042 682.914 54.64 684.797 55.9626 687.396L56.8503 689.307C57.6339 691.469 57.9719 693.968 57.6965 696.401C57.3941 699.528 56.1674 702.535 54.4533 704.943C52.7283 707.352 50.5067 709.182 49.8343 711.048C49.2428 712.874 50.1399 714.784 50.0469 716.122C49.9535 717.389 48.6684 718.111 47.1013 718.821Z" fill="#7ACAEF"/>
<path d="M655.838 771.028C659.535 771.638 663.247 769.832 664.046 767.294C664.493 765.869 664.164 764.527 663.279 763.421C662.115 762.001 660.859 761.778 658.591 761.121C657.266 760.807 655.788 760.661 654.477 760.92C652.339 761.372 650.917 762.566 650.226 764.441C649.81 765.746 650.067 767.328 651.031 768.515C651.896 769.671 653.628 770.523 655.215 770.891L655.838 771.028ZM659.942 759.836C658.265 759.448 656.369 758.815 655.925 756.929C655.673 755.92 655.827 754.553 656.253 753.188C656.607 752.065 657.14 750.983 657.793 750.113C659.049 748.244 660.565 747.645 662.744 747.072C664.944 746.439 667.719 745.752 670.018 744.194C672.065 742.825 673.574 740.767 674.208 738.75L674.377 737.896C674.802 735.646 673.825 733.634 671.935 732.428C671.305 732.029 670.543 731.72 669.749 731.531C668.153 731.153 666.411 731.257 664.895 731.856C663.035 732.633 661.55 734.319 661.062 735.854L660.945 736.527C660.638 738.104 661.682 739.312 662.455 740.447C662.871 741.246 663.297 741.985 663.079 742.687C662.965 743.039 662.77 743.379 662.284 743.706C660.866 744.578 657.828 745.464 655.268 744.865L655.007 744.803C652.387 744.062 650.436 741.829 650.289 738.416C650.199 737.187 650.375 735.76 650.801 734.406C651.569 731.978 653.183 729.558 655.594 727.961C659.433 725.432 665.497 724.877 670.892 725.826L672.037 726.098C676.897 727.233 681.1 729.558 683.543 732.038C686.123 734.68 686.67 737.473 686.139 740.346L685.676 742.405C684.979 744.592 683.721 746.784 682.023 748.549C679.877 750.842 677.073 752.475 674.237 753.344C671.4 754.202 668.521 754.294 666.85 755.365C665.269 756.457 664.806 758.515 663.921 759.513C663.076 760.451 661.619 760.235 659.942 759.836Z" fill="#7ACAEF"/>
<path d="M280.765 1045.28C288.408 994.288 270.007 940.104 233.044 904.76" stroke="#699DD4" stroke-width="1.33342" stroke-miterlimit="10"/>
<path d="M238.187 909.933C233.63 893.182 219.624 879.469 202.927 875.411C207.265 891.827 220.76 905.385 238.187 909.933Z" fill="#699DD4"/>
<path d="M249.807 922.637C244.611 915.682 242.616 906.665 242.842 897.932C243.079 889.198 245.376 880.656 248.074 872.349C253.966 888.318 255.061 906.062 249.807 922.637Z" fill="#699DD4"/>
<path d="M263.648 945.125C258.54 928.167 263.24 908.537 275.462 895.764C277.292 912.438 273.44 929.701 263.648 945.125Z" fill="#699DD4"/>
<path d="M273.389 967.914C274.245 948.277 285.328 929.364 301.974 919.17C300.962 940.265 289.472 960.614 273.389 967.914Z" fill="#699DD4"/>
<path d="M280.79 995.21C284.933 974.971 300.993 957.687 320.712 952.274C313.875 971.097 299.63 987.081 280.79 995.21Z" fill="#699DD4"/>
<path d="M282.336 1024.6C291.368 1007.66 310.555 996.809 329.515 997.91C317.68 1012.33 301.343 1022.92 282.336 1024.6Z" fill="#699DD4"/>
<path d="M243.431 916.043C236.542 912.483 228.571 911.409 220.836 911.988C213.111 912.567 205.572 914.717 198.241 917.303C211.774 925.878 230.336 925.436 243.431 916.043Z" fill="#699DD4"/>
<path d="M258.444 936.932C251.072 931.234 241.273 929.85 232.219 931.624C223.163 933.397 214.744 938.065 207.052 943.606C223.033 948.814 240.963 947.238 258.444 936.932Z" fill="#699DD4"/>
<path d="M269.875 958.752C250.797 955.224 230.584 957.734 213.92 965.714C223.047 969.969 233.628 971.662 243.664 970.482C253.699 969.292 263.119 965.227 269.875 958.752Z" fill="#699DD4"/>
<path d="M277.846 985.56C258.771 978.651 236.548 979.823 218.99 988.659C236.456 997.445 259.017 996.769 277.846 985.56Z" fill="#699DD4"/>
<path d="M281.636 1009.7C264.595 1000.63 242.929 1006.59 228.132 1024.42C244.713 1031.01 264.374 1025.36 281.636 1009.7Z" fill="#699DD4"/>
<path d="M122.098 1023.11C112.929 978.898 81.1128 940.011 39.5903 922.256" stroke="#699DD4" stroke-width="1.33342" stroke-miterlimit="10"/>
<path d="M45.4522 924.939C36.5653 912.574 20.7218 905.586 5.59846 907.351C14.2056 919.502 29.5656 926.515 45.4522 924.939Z" fill="#699DD4"/>
<path d="M58.9808 931.825C52.54 927.695 48.1374 920.9 45.6619 913.659C43.1967 906.419 42.5072 898.693 42.2295 891.052C51.992 902.359 58.314 916.601 58.9808 931.825Z" fill="#699DD4"/>
<path d="M77.3509 946.063C67.9403 933.693 65.8674 916.131 72.1561 901.911C78.7503 915.049 80.8045 930.407 77.3509 946.063Z" fill="#699DD4"/>
<path d="M92.3928 961.81C87.1181 945.424 90.5939 926.497 101.323 913.045C106.918 930.672 103.55 950.909 92.3928 961.81Z" fill="#699DD4"/>
<path d="M106.86 981.969C104.136 964.088 112.243 944.985 126.999 934.511C127.049 952.064 120.065 969.538 106.86 981.969Z" fill="#699DD4"/>
<path d="M117.105 1005.64C119.462 988.965 132.116 974.194 148.226 969.309C142.772 984.764 132.403 998.442 117.105 1005.64Z" fill="#699DD4"/>
<path d="M51.6784 928.352C44.8627 927.53 37.9037 929.083 31.6457 931.92C25.3882 934.758 19.773 938.819 14.4666 943.186C28.3273 946.088 43.6432 940.058 51.6784 928.352Z" fill="#699DD4"/>
<path d="M70.5167 940.925C62.6499 938.503 54.0773 940.351 47.0818 944.57C40.0862 948.789 34.5083 955.196 29.7914 962.094C44.6822 961.495 59.1195 954.722 70.5167 940.925Z" fill="#699DD4"/>
<path d="M86.6789 955.353C69.7225 958.277 53.6804 966.514 42.2444 978.158C51.1343 978.868 60.4617 977.027 68.442 972.989C76.4317 968.95 83.034 962.735 86.6789 955.353Z" fill="#699DD4"/>
<path d="M101.474 974.942C83.4981 975.088 65.367 982.842 53.4485 995.457C70.6604 997.346 89.2309 989.898 101.474 974.942Z" fill="#699DD4"/>
<path d="M111.98 993.613C95.0441 991.364 78.8289 1002.87 71.9493 1022.04C87.7566 1022.39 102.393 1011.75 111.98 993.613Z" fill="#699DD4"/>
<path d="M614.143 1023.48C619.904 978.694 648.657 937.49 688.695 916.615" stroke="#699DD4" stroke-width="1.33342" stroke-miterlimit="10"/>
<path d="M683.059 919.74C690.976 906.734 706.232 898.55 721.453 899.161C713.801 911.929 699.027 920.097 683.059 919.74Z" fill="#699DD4"/>
<path d="M670.09 927.635C676.194 923.025 680.067 915.917 681.981 908.508C683.895 901.1 683.982 893.341 683.673 885.699C674.81 897.72 669.605 912.413 670.09 927.635Z" fill="#699DD4"/>
<path d="M652.868 943.237C661.309 930.186 662.025 912.52 654.681 898.822C649.103 912.424 648.238 927.895 652.868 943.237Z" fill="#699DD4"/>
<path d="M639.077 960.091C643.075 943.353 638.174 924.747 626.441 912.153C622.22 930.157 627.118 950.071 639.077 960.091Z" fill="#699DD4"/>
<path d="M626.19 981.292C627.534 963.249 617.992 944.83 602.483 935.509C603.781 953.024 612.08 969.912 626.19 981.292Z" fill="#699DD4"/>
<path d="M617.79 1005.69C614.166 989.246 600.422 975.475 583.982 971.842C590.599 986.832 601.977 999.684 617.79 1005.69Z" fill="#699DD4"/>
<path d="M677.114 923.617C683.85 922.274 690.905 923.299 697.364 925.647C703.822 927.994 709.724 931.625 715.352 935.565C701.757 939.518 686.024 934.674 677.114 923.617Z" fill="#699DD4"/>
<path d="M659.285 937.594C666.943 934.579 675.636 935.761 682.928 939.434C690.228 943.109 696.279 949.066 701.509 955.588C686.619 956.137 671.709 950.487 659.285 937.594Z" fill="#699DD4"/>
<path d="M644.277 953.218C661.4 954.845 678.039 961.83 690.323 972.558C681.513 973.941 672.074 972.822 663.804 969.411C655.535 965.999 648.475 960.304 644.277 953.218Z" fill="#699DD4"/>
<path d="M631.023 973.881C648.959 972.657 667.636 978.999 680.475 990.668C663.466 993.863 644.382 987.86 631.023 973.881Z" fill="#699DD4"/>
<path d="M621.976 993.307C638.697 989.767 655.736 1000.01 664.069 1018.59C648.334 1020.13 632.928 1010.64 621.976 993.307Z" fill="#699DD4"/>
<path d="M481.289 1060.26C465.472 1006.23 464.631 948.032 478.892 894.408" stroke="#699DD4" stroke-width="1.33342" stroke-miterlimit="10"/>
<path d="M477.033 901.415C472.534 886.949 476.995 870.196 487.929 860.49C490.803 875.423 486.53 891.434 477.033 901.415Z" fill="#699DD4"/>
<path d="M473.623 918.642C470.923 903.529 461.719 889.601 448.988 881.355C449.805 896.59 459.707 911.169 473.623 918.642Z" fill="#699DD4"/>
<path d="M470.007 946.847C466.17 938.838 462.264 930.709 456.492 924.01C450.72 917.312 442.73 912.101 434.148 911.795C438.202 919.212 442.295 926.71 447.869 933.024C453.444 939.328 460.7 944.451 470.007 946.847Z" fill="#699DD4"/>
<path d="M468.22 974.274C460.593 959.647 446.094 948.908 430.31 946.188C437.377 961.454 452.637 972.542 468.22 974.274Z" fill="#699DD4"/>
<path d="M470.423 1004.33C459.955 991.011 443.967 982.421 427.563 981.285C437.029 995.095 453.715 1003.37 470.423 1004.33Z" fill="#699DD4"/>
<path d="M475.718 909.303C481.94 898.766 492.691 891.262 504.587 889.154C500.413 901.291 488.503 909.981 475.718 909.303Z" fill="#699DD4"/>
<path d="M471.265 935.467C479.198 921.796 494.65 913.241 510.314 913.868C502.337 927.829 487.041 936.929 471.265 935.467Z" fill="#699DD4"/>
<path d="M468.581 963.056C477.678 949.7 493.648 941.703 509.693 942.464C498.744 953.709 484.468 961.46 468.581 963.056Z" fill="#699DD4"/>
<path d="M469.394 992.1C477.089 978.055 492.775 969.21 508.629 969.989C499.417 982.651 484.604 990.729 469.394 992.1Z" fill="#699DD4"/>
<path d="M472.481 1020.27C479.93 1004.61 496.307 994.094 513.417 993.968C507.778 999.479 502.098 1005.02 495.584 1009.41C489.07 1013.8 481.631 1017.05 472.481 1020.27Z" fill="#699DD4"/>
<path d="M142.211 676.222C142.211 676.222 137.302 656.458 121.077 658.665C104.862 660.871 100.653 672.404 101.457 685.878C102.262 699.352 101.905 715.29 84.0665 725.069C66.2281 734.849 84.2478 747.735 87.2011 755.534C90.1441 763.342 87.4361 773.722 78.882 779.899C70.3268 786.075 68.2549 808.629 97.5056 807.203C126.756 805.778 137.473 785.261 131.907 778.182C126.33 771.113 116.616 755.801 126.528 752.869C136.439 749.926 155.251 717.853 150.003 700.744C144.765 683.644 142.211 676.222 142.211 676.222Z" fill="#282C55"/>
<path d="M126.864 672.096C132.521 672.151 137.066 676.512 137.014 681.837C136.962 687.161 132.333 691.433 126.675 691.377C121.018 691.322 116.473 686.961 116.525 681.637C116.577 676.312 121.206 672.041 126.864 672.096Z" fill="#F0D6CD"/>
<path d="M222.163 1070.98C204.776 1070.54 194.63 1070.71 185.731 1070.88C183.752 1062.34 181.841 1053.95 179.911 1045.47C174.922 1023.49 169.868 1001 163.65 974.059C163.621 973.908 163.572 973.746 163.543 973.596C163.207 1008.03 164.51 1032.34 165.465 1072.67C151.219 1070.04 141.407 1069.01 127.285 1070.28C112.515 995.55 102.129 962.498 106.378 928.332C107.896 916.139 111.277 903.813 116.983 889.406C119.243 883.672 121.889 877.609 124.931 871.087C151.762 876.3 178.335 882.095 204.773 886.288C204.773 886.368 204.782 886.459 204.781 886.53C205.533 900.275 204.85 899.03 205.107 915.044C205.86 920.295 206.586 925.365 207.263 930.253C215.773 991.516 218.585 1026.1 222.163 1070.98Z" fill="#3F61AA"/>
<path d="M207.252 930.273C174.119 937.688 139.203 937.026 106.367 928.342C107.885 916.149 111.267 903.823 116.973 889.417C146.232 888.142 175.498 887.18 204.771 886.55C205.522 900.295 204.84 899.05 205.096 915.065C205.85 920.316 206.565 925.385 207.252 930.273Z" fill="#2F4E9A"/>
<path d="M179.91 1045.48C174.922 1023.5 169.867 1001.01 163.649 974.069C163.641 973.858 163.633 973.656 163.635 973.445C163.569 970.928 163.503 968.391 163.855 965.396C169.205 962.741 174.544 960.085 179.574 957.287C178.27 986.651 178.375 1016.11 179.91 1045.48Z" fill="#2F4E9A"/>
<path d="M169.243 919.636C171.325 934.25 171.017 949.212 168.34 963.729" stroke="#2B3879" stroke-width="1.33342" stroke-miterlimit="10" stroke-linecap="round"/>
<path d="M176.881 918.563C176.889 928.094 179.571 937.872 176.775 946.994C176.265 948.67 175.545 950.333 174.325 951.589C173.105 952.845 171.305 953.643 169.588 953.314" stroke="#2B3879" stroke-width="1.33342" stroke-miterlimit="10" stroke-linecap="round"/>
<path d="M120.694 899.889C114.794 916.669 112.827 934.645 113.207 952.422C113.587 970.199 116.273 987.847 119.454 1005.35C123.379 1026.92 128.092 1048.33 133.561 1069.56" stroke="#2B3879" stroke-width="1.33342" stroke-miterlimit="10"/>
<path d="M125.116 908.839C125.443 915.575 125.045 922.335 123.913 928.987C123.625 930.664 123.276 932.382 122.286 933.761C120.46 936.299 117.051 937.011 113.967 937.514" stroke="#2B3879" stroke-width="1.33342" stroke-miterlimit="10"/>
<path d="M179.887 770.529C179.887 770.529 189.446 770.672 198.395 778.78C205.049 784.814 212.769 800.186 233.036 839.584C233.036 839.584 224.928 871.147 219.707 866.798C170.669 826.063 179.887 770.529 179.887 770.529Z" fill="#34B7B4"/>
<path d="M233.118 831.201C227.895 829.077 218.671 832.671 214.976 836.932C211.109 841.383 209.346 848.743 210.013 854.606C210.681 860.47 214.599 866.306 220.166 868.232C225.743 870.158 234.609 868.172 237.367 862.955C239.633 858.66 238.929 853.43 237.667 848.737C236.394 844.045 235.337 836.859 233.118 831.201Z" fill="#95D1CE"/>
<path d="M260.344 810.322C260.403 811.46 257.915 813.731 257.566 816.565C255.912 830.267 246.94 858.63 237.687 864.176C235.328 865.582 233.237 866.427 231.381 866.832C231.381 866.832 227.138 867.475 221.34 864.459C220.062 863.4 219.088 862.223 218.341 861.391C216.25 859.076 213.411 847.847 225.961 837.563C226.762 836.916 227.513 836.239 228.224 835.572C240.13 824.275 241.045 809.862 241.045 809.862L250.922 809.506L260.28 809.698C260.308 809.859 260.326 810.061 260.344 810.322Z" fill="#F29F89"/>
<path d="M241.046 809.852C241.046 809.852 239.667 797.44 250.509 792.02C261.351 786.601 268.806 786.825 269.675 787.538C270.544 788.251 265.271 793.302 259.376 795.025C259.376 795.025 264.478 797.239 272.779 794.321C281.08 791.403 283.929 787.174 286.448 787.913C288.977 788.652 283.455 796.529 270.657 800.319C270.657 800.319 276.875 800.48 283.155 798.398C289.435 796.315 289.806 800.677 285.067 802.573C285.067 802.573 287.376 803.129 286.891 805.398C286.406 807.658 282.27 807.689 282.27 807.689C282.27 807.689 284.191 808.755 282.873 810.774C281.545 812.794 273.045 813.506 265.205 813.439C257.366 813.363 249.895 811.589 249.895 811.589L241.046 809.852Z" fill="#F29F89"/>
<path d="M259.945 796.571C259.945 796.571 260.283 802.16 251.65 803.978" stroke="#B83E3C" stroke-width="1.00006" stroke-miterlimit="10" stroke-linecap="round"/>
<path d="M285.067 802.563C285.067 802.563 278.106 804.286 271.173 804.118" stroke="#B83E3C" stroke-width="1.00006" stroke-miterlimit="10" stroke-linecap="round"/>
<path d="M282.278 807.678C282.278 807.678 276.752 808.862 268.262 808.417" stroke="#B83E3C" stroke-width="1.00006" stroke-miterlimit="10" stroke-linecap="round"/>
<path d="M209.153 926.326C196.475 934.233 145.28 929.919 117.395 921.384C117.379 914.833 117.454 909.187 118.426 901.366C114.287 908.864 112.287 912.669 109.993 918.776C107.878 917.92 106.015 917.036 104.464 916.125C104.464 916.125 123.154 866.49 121.215 854.796C119.191 842.589 101.647 801.537 105.666 792.992C109.427 784.997 115.954 779.344 123.771 775.496C138.92 768.015 158.935 767.234 173.059 768.952C178.286 769.587 182.715 770.576 185.794 771.683C194.95 774.993 204.948 814.763 205.593 830.107C206.218 845.462 209.153 926.326 209.153 926.326Z" fill="#68C3C8"/>
<path d="M173.049 768.962C173.148 782.5 170.56 798.174 164.101 810.259C149.64 799.852 137.204 788.207 123.761 775.506C138.91 768.015 158.916 767.234 173.049 768.962Z" fill="#95D1CE"/>
<path d="M136.99 879.145C151.932 899.047 175.697 912.07 200.527 913.953C187.713 916.314 174.136 914.28 162.57 908.289C151.005 902.289 141.521 892.363 136.99 879.145Z" fill="#34B7B4"/>
<path d="M162.988 802.549C150.796 794.751 140.371 785.29 130.769 775.041C132.209 770.838 133.138 766.399 133.495 761.833C133.838 757.539 133.67 753.149 132.908 748.744C142.862 749.727 150.113 749.154 159.811 749.57C159.922 752.651 160.25 757.183 161.062 761.629C161.502 764.049 162.241 765.697 163.186 766.783C164.579 768.397 166.417 768.797 168.37 768.725C168.591 780.14 166.965 792.071 162.988 802.549Z" fill="#F29F89"/>
<path d="M163.196 766.803C158.658 767.795 153.966 768.021 149.352 767.423C143.754 766.704 138.328 764.759 133.495 761.843C133.839 757.549 133.671 753.16 132.908 748.754C142.862 749.737 150.114 749.164 159.812 749.58C159.923 752.661 160.251 757.193 161.063 761.639C161.512 764.069 162.251 765.717 163.196 766.803Z" fill="#E76C67"/>
<path d="M147.283 900.038C145.342 899.878 144.188 898.478 142.498 896.389C141.772 895.516 140.997 894.522 139.991 893.425C136.585 889.749 131.231 889.737 131.231 889.737C131.451 889.799 135.535 891.097 139.301 896.015C143.207 901.065 145.578 910.8 143.234 910.697C140.88 910.553 137.951 906.469 137.951 906.469C138.476 908.346 138.395 912.602 136.518 913.067C136.326 913.145 136.145 913.164 135.914 913.121C133.572 912.807 131.968 910.033 131.781 909.679C132.312 911.959 130.874 915.92 128.059 913.608C125.243 911.296 120.373 904.002 120.373 904.002C120.373 904.002 120.373 904.002 120.353 904.012C120.332 904.022 120.322 904.042 120.282 904.062C119.43 904.688 112.272 908.05 104.971 905.392C98.8439 903.158 96.5953 899.473 96.5953 899.473L105.252 884.914C105.252 884.914 110.618 886.698 116.714 884.996C117.551 884.773 118.41 884.479 119.259 884.085C119.299 884.075 119.34 884.055 119.38 884.035C121.713 883.223 123.722 882.63 125.002 882.4C127.643 881.942 130.128 882.077 132.094 882.711C134.572 883.531 136.677 884.446 138.419 885.379C143.915 888.371 146.086 891.694 146.647 893.047C147.404 894.897 150.058 900.267 147.283 900.038Z" fill="#F29F89"/>
<path d="M131.353 909.062C131.353 909.062 127.457 900.992 123.851 899.256" stroke="#B83E3C" stroke-width="1.00006" stroke-miterlimit="10" stroke-linecap="round"/>
<path d="M137.646 905.721C137.646 905.721 134.796 897.702 129.657 895.216" stroke="#B83E3C" stroke-width="1.00006" stroke-miterlimit="10" stroke-linecap="round"/>
<path d="M108.402 885.941C104.039 892.621 101.762 897.048 99.4742 901.474C56.2684 871.614 55.2016 862.325 56.5049 857.698C56.703 856.985 56.9498 856.394 57.1063 855.852C57.5743 854.296 63.6393 844.432 69.0712 839.453C71.1232 837.561 73.0869 836.382 74.6144 836.599C77.1674 836.956 78.4452 839.062 79.1827 841.887C80.5027 846.861 80.1909 854.074 82.2751 858.09C84.6309 861.102 87.1262 864.277 89.7324 867.411C95.6407 874.575 102.064 881.572 108.402 885.941Z" fill="#F29F89"/>
<path d="M89.722 867.412C78.158 866.383 66.7978 863.072 56.5048 857.688C56.7029 856.975 56.9497 856.383 57.1062 855.842C57.5742 854.286 63.6392 844.422 69.0711 839.443C72.4456 840.241 75.809 841.049 79.1723 841.887C80.4925 846.861 80.1805 854.074 82.2649 858.09C84.6308 861.102 87.126 864.277 89.722 867.412Z" fill="#E76C67"/>
<path d="M132.251 817.164C130.093 805.257 125.679 777.97 113.591 783.186C103.798 787.408 81.4965 813.116 63.6061 840.577C66.5361 847.611 83.8857 855.992 91.988 862.11C112.279 840.368 119.268 838.856 132.251 817.164Z" fill="#68C3C8"/>
<path d="M63.3714 838.734C74.4887 847.326 84.457 853.039 96.992 858.717C94.4215 862.234 94.0909 864.133 91.5203 867.651C66.7304 857.526 57.1602 851.273 57.1602 851.273C57.1602 851.273 58.3214 844.662 63.3714 838.734Z" fill="#95D1CE"/>
<path d="M117.48 837.43C121.454 833.382 125.051 828.889 127.526 823.79C130.001 818.692 131.326 812.938 130.686 807.296C132.965 813.044 132.819 819.706 130.299 825.357C127.768 830.988 122.892 835.54 117.48 837.43Z" fill="#34B7B4"/>
<path d="M124.216 831.88C131.051 828.645 137.117 823.823 141.794 817.891C137.718 827.13 128.964 834.16 119.072 836.157C121.191 834.588 122.892 832.511 124.216 831.88Z" fill="#34B7B4"/>
<path d="M194.778 729.682C196.682 733.556 193.562 738.718 187.812 741.208C182.061 743.698 175.862 742.571 173.967 738.698C172.073 734.825 175.183 729.662 180.934 727.172C186.675 724.682 192.883 725.809 194.778 729.682Z" fill="#E76C67"/>
<path d="M183.869 726.516C183.327 747.002 175.405 761.578 158.4 763.244C142.322 764.818 119.507 749.368 116.603 725.165C114.165 704.822 131.266 688.121 150.323 688.589C169.39 689.047 184.401 706.031 183.869 726.516Z" fill="#F29F89"/>
<path d="M116.23 732.478C116.23 732.478 117.478 722.145 125.453 716.566C133.428 710.978 136.117 705.64 136.117 705.64C136.117 705.64 144.621 710.785 157.381 709.873C170.141 708.961 177.69 709.991 180.623 715.726C183.556 721.461 188.561 707.722 180.764 701.235C172.967 694.748 135.624 685.004 134.853 685.59C134.083 686.176 128.687 687.321 123.428 690.994C118.169 694.666 110.143 705.467 110.761 707.114L116.23 732.478Z" fill="#E76C67"/>
<path d="M190.295 703.301C190.164 718.849 183.6 732.422 183.6 732.422C182.974 709.962 175.192 706.112 159.988 705.752C144.784 705.413 133.245 697.742 133.245 697.742C134.023 704.704 126.07 710.011 121.88 718.605C117.865 726.838 115.583 731.778 115.583 731.778C111.106 722.284 107.036 713.408 106.631 702.393C106.451 698.104 106.943 694.114 108.405 690.736C113.585 678.669 126.902 678.407 126.902 678.407C144.405 658.701 180.446 666.802 187.843 687.536C189.694 692.727 190.346 698.128 190.295 703.301Z" fill="#2D3067"/>
<path d="M190.295 703.3C190.295 703.3 184.542 683.428 166.174 676.244C147.796 669.07 130.388 683.191 130.388 683.191C130.388 683.191 108.295 684.465 106.631 702.413C106.451 698.124 106.943 694.134 108.405 690.756C113.585 678.69 126.902 678.427 126.902 678.427C144.405 658.721 180.446 666.822 187.843 687.556C189.694 692.727 190.346 698.128 190.295 703.3Z" fill="#463B8A"/>
<path d="M106.117 726.15C104.017 729.924 106.863 735.235 112.472 737.997C118.081 740.759 124.329 739.945 126.429 736.161C128.529 732.387 125.682 727.076 120.073 724.314C114.464 721.552 108.217 722.376 106.117 726.15Z" fill="#F29F89"/>
<path d="M175.161 729.843C174.275 729.895 173.62 728.942 173.514 727.411C173.408 725.881 173.911 724.859 174.797 724.797C175.684 724.746 176.339 725.698 176.444 727.229C176.55 728.76 176.057 729.791 175.161 729.843Z" fill="#29374E"/>
<path d="M151.075 732.134C150.179 732.186 149.534 731.233 149.428 729.703C149.322 728.172 149.825 727.15 150.712 727.089C151.598 727.037 152.253 727.989 152.358 729.52C152.464 731.051 151.961 732.072 151.075 732.134Z" fill="#29374E"/>
<path d="M168.865 731.563C170.188 734.172 170.186 737.413 168.873 740.027" stroke="#B04050" stroke-width="1.33342" stroke-miterlimit="10" stroke-linecap="round"/>
<path d="M158.866 743.281C155.213 743.275 150.532 747.497 153.73 749.853C155.568 751.199 157.252 748.871 159.418 749.697C161.333 750.43 164.12 753.587 165.502 750.149C166.461 747.753 164.875 743.289 158.866 743.281Z" fill="#B04050"/>
<path d="M167.598 713.878C170.689 711.664 175.178 711.617 178.317 713.771" stroke="#2D3067" stroke-width="1.33342" stroke-miterlimit="10" stroke-linecap="round"/>
<path d="M152.054 718.477C148.949 721.103 144.538 722.358 140.367 721.794" stroke="#2D3067" stroke-width="1.33342" stroke-miterlimit="10" stroke-linecap="round"/>
<path d="M328.949 1035.24C339.422 1036.75 349.968 1037.84 360.539 1038.55C363.97 1007.71 367.404 981.724 370.24 970.58C370.251 970.52 370.271 970.46 370.282 970.41L373.667 1025.73L374.491 1039.26C377.489 1039.37 380.487 1039.45 383.476 1039.5C397.171 1039.71 410.89 1039.56 424.592 1039.06C426.806 1002.05 429.353 951.371 428.636 924.865C428.604 924.019 428.582 923.194 428.549 922.399C428.49 921.29 428.449 920.274 428.389 919.276C428.192 915.672 427.899 912.751 427.496 910.664L395.811 906.862L391.952 906.401L318.362 897.058C318.362 897.058 317.842 901.884 317.592 905.857C317.58 906.068 317.568 906.3 317.545 906.531C317.475 907.567 317.403 908.713 317.32 909.971C316.95 915.905 316.427 924.212 315.825 934.321C314.356 959.014 312.39 994.421 310.793 1032.16C316.842 1033.25 322.869 1034.37 328.949 1035.24Z" fill="#4262AB"/>
<path d="M428.647 924.875C392.026 934.824 353.6 938.042 315.835 934.332C316.437 924.223 316.961 915.915 317.331 909.981C329.755 911.561 342.444 910.669 354.973 909.785C368.589 908.811 382.206 907.846 395.822 906.872L427.507 910.674C427.909 912.761 428.203 915.683 428.399 919.287C428.46 920.284 428.5 921.301 428.56 922.409C428.592 923.204 428.615 924.03 428.647 924.875Z" fill="#2F4E9A"/>
<path d="M386.532 958.501C383.933 982.5 381.903 1005.87 380.667 1027.34C379.929 1026.59 376.662 1026.22 373.668 1025.74L370.283 970.42C370.272 970.47 370.251 970.53 370.241 970.591C370.381 969.646 370.541 968.732 370.72 967.858C377.092 965.696 383.031 961.486 386.532 958.501Z" fill="#2F4E9A"/>
<path d="M375.949 911.609C377.202 929.577 376.643 947.666 374.285 965.528" stroke="#2B3879" stroke-width="1.33342" stroke-miterlimit="10" stroke-linecap="round"/>
<path d="M385.808 912.008C386.72 921.669 387.631 931.49 385.726 940.992C385.197 943.614 384.427 946.263 382.816 948.401C381.205 950.539 378.613 952.094 375.949 951.846" stroke="#2B3879" stroke-width="1.33342" stroke-miterlimit="10" stroke-linecap="round"/>
<path d="M324.547 917.136C324.328 921.1 324.143 925.556 323.795 928.25C323.109 933.527 322.3 940.081 316.275 940.858" stroke="#2B3879" stroke-width="1.33342" stroke-miterlimit="10" stroke-linecap="round"/>
<path d="M419.987 917.032C419.936 922.285 419.948 924.186 420.015 927.609C420.082 931.031 420.129 934.534 421.184 937.745C422.24 940.946 424.546 943.847 427.521 944.349" stroke="#2B3879" stroke-width="1.33342" stroke-miterlimit="10" stroke-linecap="round"/>
<path d="M479.833 845.445C476.458 861.273 426.564 904.123 426.372 904.161L415.239 885.826C415.239 885.826 439.728 858.761 446.163 842.912C446.163 842.903 446.183 842.882 446.183 842.872C445.865 842.477 445.557 842.081 445.249 841.655C444.305 840.388 443.431 839.182 442.618 838.027C438.11 831.662 435.398 826.986 433.771 823.619C433.011 822.032 432.481 820.728 432.128 819.678C433.181 818.018 434.211 816.619 434.647 816.371C434.789 816.272 435.243 816.075 435.9 815.82L442.462 815.804L462.973 815.772L463.753 815.257C463.753 815.257 467.257 819.226 471.02 824.506C475.795 831.225 480.983 840.052 479.833 845.445Z" fill="#F29C8D"/>
<path d="M442.618 838.027C452.574 834.652 462.119 830.106 471.02 824.506C467.258 819.226 463.754 815.257 463.754 815.257L462.974 815.773L442.462 815.804C439.569 818.412 436.665 821.011 433.771 823.619L442.618 838.027Z" fill="#E76C67"/>
<path d="M398.709 753.341C400.091 746.894 419.887 752.079 432.135 766.469C444.384 780.86 466.788 813.737 466.788 813.737L431.923 839.825C431.923 839.825 394.08 775.025 398.709 753.341Z" fill="#D33543"/>
<path d="M368.709 776.971C365.893 775.696 346.482 767.153 354.224 744.252C354.296 744.041 354.369 743.831 354.431 743.63C354.493 743.47 354.555 743.289 354.607 743.088C355.709 739.546 356.683 734.665 356.436 728.986L370.697 731.067L385.108 731.208C384.6 733.709 384.365 736.092 384.324 738.296C384.275 741.184 386.08 753.228 386.08 753.228C386.08 753.228 384.533 774.609 368.709 776.971Z" fill="#F29C8D"/>
<path d="M384.334 738.286C381.655 740.585 371.824 747.564 354.432 743.62C354.494 743.46 354.556 743.279 354.608 743.078C355.709 739.536 356.683 734.655 356.437 728.976L370.697 731.058L385.108 731.198C384.61 733.709 384.376 736.092 384.334 738.286Z" fill="#E76C67"/>
<path d="M431.235 921.529C411.653 929.43 325.81 925.834 312.45 921.205C312.45 921.205 322.363 876.908 313.788 810.965C308.255 768.43 317.236 763.898 322.223 758.24C326.182 753.75 335.72 750.985 343.011 749.456C348.003 748.418 351.932 747.953 352.315 747.927C351.436 766.839 369.707 774.575 369.707 774.575C369.707 774.575 385.847 764.639 385.457 748.945C385.779 748.958 388.607 748.925 392.48 749.164C400.064 749.641 411.673 751.133 416.317 755.908C421.588 761.314 423.187 765.466 427.349 808.148C429.536 830.623 431.235 921.529 431.235 921.529Z" fill="#D33543"/>
<path d="M392.48 749.164C391.639 758.013 388.143 766.624 382.5 773.493C379.933 776.628 376.735 779.515 372.781 780.413C367.455 781.619 361.986 778.949 357.753 775.505C349.825 769.068 344.523 759.545 343.012 749.456C348.003 748.418 351.933 747.953 352.316 747.927C351.437 766.839 369.708 774.575 369.708 774.575C369.708 774.575 385.847 764.639 385.457 748.945C385.779 748.958 388.607 748.925 392.48 749.164Z" fill="#A0273D"/>
<path d="M415.53 856.049C406.74 873.958 392.756 887.831 376.935 896.07C361.114 904.309 343.525 907.066 326.372 905.399C336.886 908.773 348.046 907.926 358.795 905.786C371.249 903.301 383.68 899.004 394.278 890.694C404.876 882.384 413.505 869.656 415.53 856.049Z" fill="#A0273D"/>
<path d="M419.284 892.096C394.144 909.604 361.554 916.028 331.648 909.386C342.562 915.088 355.345 915.978 367.64 915.323C377.286 914.813 386.992 913.388 395.924 909.721C404.867 906.055 413.028 899.975 419.284 892.096Z" fill="#A0273D"/>
<path d="M428.444 832.162C426.672 809.561 425.368 793.667 422.36 768.799C429.533 794.835 431.488 813.1 428.444 832.162Z" fill="#A0273D"/>
<path d="M428.252 819.912C432.381 805.158 432.796 790.479 433.728 774.375C436.26 788.258 434.826 813.515 428.447 831.83C428.08 829.28 427.824 821.428 428.252 819.912Z" fill="#A0273D"/>
<path d="M418.355 705.859C420.195 710.124 416.68 715.565 410.507 718C404.334 720.436 397.837 718.953 396.007 714.688C394.166 710.423 397.681 704.983 403.855 702.547C410.018 700.111 416.515 701.594 418.355 705.859Z" fill="#E76C67"/>
<path d="M325.165 699.152C322.781 703.145 325.562 708.989 331.358 712.226C337.164 715.453 343.792 714.843 346.166 710.851C348.55 706.858 345.769 701.014 339.973 697.777C334.177 694.55 327.549 695.17 325.165 699.152Z" fill="#E76C67"/>
<path d="M407.785 698.872C407.417 710.784 394.31 741.02 370.074 739.143C341.422 736.931 335.967 701.895 336.635 693.327C338.626 667.642 354.191 651.651 374.287 652.964C394.382 654.267 408.68 670.067 407.785 698.872Z" fill="#F29C8D"/>
<path d="M337.845 699.246C339.213 695.254 342.263 692.103 345.011 688.899C347.76 685.696 350.086 679.428 350.746 675.721C354.81 678.991 359.568 681.312 364.04 682C368.873 682.742 373.454 682.565 374.795 678.22C377.243 681.082 382.537 683.137 386.643 683.146C388.666 683.146 390.777 682.311 392.12 680.795C395.504 684.743 400.273 685.886 400.273 685.886C400.273 685.886 405.988 697.425 406.616 702.081C407.07 693.762 406.875 683.867 405.739 675.473C387.927 667.016 368.626 661.725 349.271 659.745C341.842 671.266 337.544 684.77 337.845 699.246Z" fill="#E76C67"/>
<path d="M415.18 676.481C414.084 678.442 412.658 680.17 411.165 681.494C411.274 689.979 410.092 698.632 406.168 707.813C406.021 696.047 404.352 692.82 402.762 684.582C398.733 682.862 395.167 680.069 392.363 676.59C391.322 679.116 387.419 680.96 384.066 680.102C380.703 679.244 376.377 677.038 373.037 673.744C374.035 675.666 372.843 679.268 369.086 679.493C363.336 679.839 354.912 675.721 348.933 671.687C345.06 688.105 342.076 685.479 337.39 702.633C332.562 692.038 330.227 683.783 330.298 673.398C330.336 668.436 330.92 660.159 341.437 658.128C344.787 652.132 349.127 646.77 354.162 642.301C358.446 638.498 363.217 635.364 368.332 633.029C371.355 631.64 374.717 630.515 377.909 631.361C381.092 632.208 383.815 635.716 382.806 639.038C388.565 636.729 394.95 636.298 400.904 637.805C404.458 638.706 408.014 640.411 410.147 643.562C412.27 646.692 410.396 652.048 407.785 655.555C412.293 657.763 417.004 662.821 417.315 668.078C417.507 671.028 416.613 673.959 415.18 676.481Z" fill="#323169"/>
<path d="M415.18 676.481C415.373 673.141 414.672 669.743 413.101 666.789C410.373 661.7 405.094 658.045 399.365 657.285C400.668 655.818 402.019 654.493 402.971 652.882C403.922 651.271 404.425 649.293 403.909 647.497C403.052 644.529 399.837 642.938 396.815 642.234C390.248 640.701 383.102 641.748 377.262 645.133C377.64 642.5 377.484 639.952 376.211 638.36C374.928 636.757 372.802 636.022 370.749 636.032C368.696 636.032 366.717 636.657 364.798 637.362C361.131 638.716 357.582 640.382 354.192 642.321C358.476 638.519 363.247 635.385 368.362 633.049C371.385 631.66 374.747 630.535 377.94 631.382C381.122 632.228 383.845 635.737 382.836 639.058C388.596 636.749 394.98 636.319 400.934 637.826C404.488 638.726 408.044 640.431 410.177 643.582C412.3 646.713 410.426 652.069 407.816 655.576C412.323 657.784 417.034 662.842 417.345 668.098C417.508 671.028 416.614 673.959 415.18 676.481Z" fill="#463B8A"/>
<path d="M380.358 688.792C383.648 687.938 388.744 687.555 392.489 691.597" stroke="#323169" stroke-width="1.33342" stroke-miterlimit="10" stroke-linecap="round"/>
<path d="M351.672 693.211C354.596 693.703 358.962 693.876 363.268 691.996" stroke="#323169" stroke-width="1.33342" stroke-miterlimit="10" stroke-linecap="round"/>
<path d="M386.954 703.872C386.008 703.812 385.476 702.7 385.582 701.05C385.689 699.401 386.363 698.371 387.309 698.43C388.254 698.49 388.787 699.602 388.68 701.252C388.574 702.901 387.889 703.931 386.954 703.872Z" fill="#23354D"/>
<path d="M361.209 701.859C360.263 701.88 359.629 700.827 359.575 699.166C359.521 697.505 360.105 696.424 361.041 696.403C361.987 696.382 362.621 697.435 362.675 699.096C362.73 700.757 362.155 701.838 361.209 701.859Z" fill="#23354D"/>
<path d="M369.602 706.088C368.793 708.515 368.586 711.15 369.014 713.68" stroke="#B83E3C" stroke-width="1.33342" stroke-miterlimit="10" stroke-linecap="round"/>
<path d="M360.636 719.375C364.805 719.154 369.038 720.605 372.201 723.343" stroke="#B83E3C" stroke-width="1.33342" stroke-miterlimit="10" stroke-linecap="round"/>
<path d="M305.115 798.351C304.268 811.959 303.439 825.698 305.491 839.184C307.544 852.67 314.37 874.013 323.316 875.167C326.169 861.256 329.013 847.334 331.866 833.424C332.352 831.063 332.819 828.531 331.905 826.288C331.286 824.763 330.08 823.553 328.904 822.394C320.979 814.527 313.055 806.681 305.115 798.351Z" fill="#E76C67"/>
<path d="M330.973 752.7C321.232 753.571 311.013 763.284 307.219 775.676C301.21 795.323 299.706 811.28 297.573 835.917C309.984 837.809 323.999 840.261 336.45 839.154C341.237 811.615 340.385 751.494 330.973 752.7Z" fill="#D33543"/>
<path d="M332.652 764.26C335.95 788.265 336.184 812.693 333.333 836.759C338.61 812.666 340.722 787.044 332.652 764.26Z" fill="#A0273D"/>
<path d="M356.946 781.889C356.946 781.889 353.162 826.184 348.18 850.974C343.197 875.764 323.817 876.43 321.315 875.037C313.908 870.909 310.845 856.819 314.836 846.975C321.982 829.362 338.003 789.262 340.354 778.335L356.946 781.889Z" fill="#F4AF9C"/>
<path d="M365.045 766.7C365.045 766.7 364.411 777 356.946 781.888L340.354 778.335L345.446 747.437C345.446 747.437 345.911 738.001 350.199 732.78C354.487 727.558 364.02 728.406 365.177 731.497C366.345 734.588 360.464 733.816 357.575 734.915C354.686 736.014 353.56 743.088 353.56 743.088C353.56 743.088 360.668 739.776 364.655 740.62C368.642 741.454 374.487 747.912 371.394 751.384C371.394 751.384 374.519 753.9 371.987 757.599C371.987 757.589 376.141 765.057 365.045 766.7Z" fill="#F4AF9C"/>
<path d="M364.339 759.638C364.339 759.638 363.884 760.882 365.541 762.267" stroke="#B83E3C" stroke-width="1.00006" stroke-miterlimit="10" stroke-linecap="round"/>
<path d="M371.987 757.589C371.987 757.589 370.082 753.796 364.97 754.783" stroke="#B83E3C" stroke-width="1.00006" stroke-miterlimit="10" stroke-linecap="round"/>
<path d="M371.394 751.374C371.394 751.374 365.805 746.569 360.329 749.756" stroke="#B83E3C" stroke-width="1.00006" stroke-miterlimit="10" stroke-linecap="round"/>
<path d="M367.207 760.723C365.856 761.978 365.073 763.832 365.106 765.674" stroke="#B83E3C" stroke-width="1.00006" stroke-miterlimit="10" stroke-linecap="round"/>
<path d="M604.251 693.564C613.682 682.132 617.43 731.242 611.336 745.131C610.276 747.557 609.055 749.94 608.486 752.531C607.917 755.122 608.06 758.002 609.559 760.18C611.385 762.835 614.756 763.884 617.191 765.981C620.375 768.719 621.771 773.181 621.488 777.395C621.205 781.61 619.405 785.588 617.106 789.118C610.537 799.178 596.592 804.909 585.068 808.038C573.545 811.166 561.31 810.845 549.565 808.748C541.186 807.247 532.387 804.474 527.159 797.7C521.683 790.612 521.628 779.782 527.022 772.629C529.703 769.082 533.674 766.394 535.275 762.233C537.444 756.588 532.344 753.156 531.123 748.404C527.613 734.713 538.202 735.641 532.329 704.274C531.898 701.996 546.302 704.783 548.618 704.695C567.375 703.942 586.228 705.736 604.338 710.392C606.162 706.062 601.542 696.838 604.251 693.564Z" fill="#282C55"/>
<path d="M546.057 785.536C544.196 779.187 541.498 773.082 538.63 767.971C531.63 768.467 520.692 770.343 516.012 775.581C511.565 780.549 511.333 787.843 510.725 794.48C508.922 814.238 504.981 832.305 504.476 852.137C504.332 857.54 504.829 863.322 508.159 867.581C510.923 871.111 516.359 873.025 519.988 870.394C523.231 868.04 523.578 863.444 523.788 859.441C525.073 833.971 532.203 808.82 546.057 785.536Z" fill="#E98473"/>
<path d="M507.612 977.256C502.483 993.348 497.344 1009.44 492.215 1025.54C510.122 1029.36 551.192 1026.48 552.677 1024.96C554.161 1023.43 554.966 1021.39 555.73 1019.39C560.067 1008.12 564.394 996.851 568.731 985.582C547.953 986.123 527.129 984.189 507.612 977.256Z" fill="#E76C67"/>
<path d="M627.694 963.261C624.017 982.136 618.884 1000.74 612.356 1018.92C610.659 1023.65 608.496 1028.77 603.813 1031.13C600.92 1032.59 597.507 1032.74 594.215 1032.83C579.034 1033.26 563.839 1033.08 548.68 1032.31C553.85 1019.16 556.945 1005.3 557.836 991.313C581.111 983.378 604.397 975.443 627.694 963.261Z" fill="#F29F89"/>
<path d="M619.256 1008.07C573.316 1013.9 525.565 1011.44 496.094 1004.57C501.67 983.88 520.98 916.186 521.787 909.762C521.994 908.154 522.219 905.711 522.45 902.724C522.574 901.316 522.68 899.798 522.776 898.188C523.34 889.891 523.856 879.248 523.972 870.493C523.985 870.202 523.988 869.91 523.99 869.638C553.113 868.916 579.602 872.073 606.516 868.662C612.012 873.788 616.435 879.437 619.928 885.5C620.215 886.006 620.512 886.522 620.789 887.028C639.704 921.612 629.843 968.878 619.256 1008.07Z" fill="#4262AB"/>
<path d="M620.789 887.038C607.311 893.388 574.829 907.301 522.449 902.734C522.574 901.326 522.679 899.808 522.775 898.198C523.339 889.901 523.856 879.258 523.972 870.503C523.984 870.212 523.987 869.92 523.99 869.648C553.113 868.926 579.601 872.083 606.516 868.672C612.011 873.798 616.436 879.447 619.928 885.51C620.215 886.016 620.502 886.522 620.789 887.038Z" fill="#2F4E9A"/>
<path d="M592.541 921.856C585.851 939.141 578.894 956.877 566.342 970.522C553.789 984.167 534.189 992.974 516.458 987.567C548.386 975.822 575.721 952.045 592.541 921.856Z" fill="#2F4E9A"/>
<path d="M524.893 902.929C557.434 905.662 589.831 900.534 619.837 887.642" stroke="#2B3879" stroke-width="1.33342" stroke-miterlimit="10" stroke-linecap="round"/>
<path d="M613.971 890.544C622.882 907.68 625.102 927.669 623.506 946.906C621.909 966.153 615.867 989.111 610.594 1007.69" stroke="#2B3879" stroke-width="1.33342" stroke-miterlimit="10" stroke-linecap="round"/>
<path d="M605.043 893.808C605.692 896.401 606.351 899.024 607.535 901.421C608.719 903.818 610.489 906.019 612.862 907.24C615.246 908.461 618.293 908.571 620.523 907.083" stroke="#2B3879" stroke-width="1.33342" stroke-miterlimit="10" stroke-linecap="round"/>
<path d="M559.814 903.048C561.424 916.55 561.502 930.228 560.031 943.75" stroke="#2B3879" stroke-width="1.33342" stroke-miterlimit="10" stroke-linecap="round"/>
<path d="M567.933 902.393C568.88 909.467 569.293 916.607 569.163 923.741C569.124 925.723 568.992 927.856 567.75 929.394C566.13 931.391 563.592 931.688 561.023 931.824" stroke="#2B3879" stroke-width="1.33342" stroke-miterlimit="10" stroke-linecap="round"/>
<path d="M612.125 872.471C595.655 885.323 525.734 883.785 522.105 876.141C520.32 872.39 519.905 859.232 520.533 843.366C521.706 812.904 526.67 772.504 532.977 769.698C545.351 764.182 577.52 765.704 599.708 776.408C607.831 780.331 615.982 784.598 619.474 792.915C620.752 795.966 621.267 799.947 621.253 804.455C621.245 821.776 613.363 846.728 610.861 855.611C609.474 860.549 619.356 866.825 612.125 872.471Z" fill="#FDE863"/>
<path d="M612.124 872.471C595.655 885.323 525.734 883.785 522.105 876.141C520.32 872.39 519.905 859.232 520.533 843.367C533.438 850.397 547.982 854.252 562.394 852.189C579.578 849.72 594.747 839.109 606.097 825.986C611.858 819.329 616.781 812.03 621.243 804.436C621.235 821.756 613.352 846.708 610.85 855.591C609.473 860.549 619.355 866.825 612.124 872.471Z" fill="#F7D44C"/>
<path d="M556.62 794.143C566.973 799.639 584.871 803.416 589.095 801.596C596.898 798.24 598.792 776.369 597.218 773.626C594.992 769.73 590.328 767.017 585.841 766.883C575.18 777.497 565.149 781.324 556.62 794.143Z" fill="#FEF6AA"/>
<path d="M568.189 769.025C561.861 762.583 549.764 763.582 546.555 766.509C541.447 771.169 531.335 787.395 532.057 793.833C532.409 796.986 553.069 795.095 556.624 793.811C560.411 783.281 562.339 780.572 568.189 769.025Z" fill="#FEF6AA"/>
<path d="M554.356 800.33C555.579 800.342 556.56 801.343 556.549 802.566C556.537 803.789 555.536 804.77 554.313 804.758C553.09 804.746 552.109 803.746 552.12 802.523C552.132 801.3 553.133 800.319 554.356 800.33Z" fill="#EC9E32"/>
<path d="M552.917 811.699C554.139 811.711 555.121 812.712 555.109 813.934C555.097 815.157 554.096 816.139 552.873 816.127C551.651 816.115 550.669 815.114 550.681 813.891C550.693 812.668 551.694 811.687 552.917 811.699Z" fill="#EC9E32"/>
<path d="M556.383 794.815C570.467 788.209 591.637 779.399 591.405 775.29C591.269 772.773 589.218 765.356 588.953 760.552C588.695 756.031 588.951 751.414 589.791 746.803C579.83 747.642 572.601 746.897 562.897 747.134C562.724 750.373 562.305 755.139 561.414 759.791C560.927 762.332 560.155 764.045 559.188 765.173C557.763 766.84 555.458 765.851 553.966 767.115C550.82 769.812 552.833 783.146 556.383 794.815Z" fill="#F29F89"/>
<path d="M559.198 765.163C563.706 766.294 568.392 766.632 573.007 766.093C578.609 765.443 584.073 763.514 588.953 760.542C588.695 756.021 588.951 751.404 589.791 746.793C579.83 747.632 572.601 746.887 562.897 747.124C562.724 750.363 562.305 755.13 561.414 759.78C560.927 762.322 560.165 764.045 559.198 765.163Z" fill="#E76C67"/>
<path d="M522.854 897.374C532.039 892.552 536.043 889.612 540.041 883.22C540.695 877.017 540.987 870.79 541.28 864.573C535.908 863.273 530.314 862.041 524.721 860.819C523.194 860.482 521.638 860.144 520.076 860.32C518.524 860.497 516.946 861.276 516.188 862.688C515.429 864.1 515.761 866.166 517.998 866.943C512.363 868.971 502.27 872.848 501.971 878.793C501.908 880.05 502.894 881.167 503.985 881.73C505.077 882.295 506.324 882.408 508.039 883.028C506.67 884.082 506.056 886.079 506.583 887.755C507.111 889.43 508.749 890.664 510.994 890.585C510.117 891.805 510.079 893.615 510.922 894.872C511.765 896.128 513.41 896.728 514.823 896.299C514.283 898.075 515.491 900.029 517.104 900.84C518.716 901.651 520.76 901.601 522.553 901.437C522.604 900.28 522.713 899.466 522.854 897.374Z" fill="#F29F89"/>
<path d="M529.758 882.898C557.641 888.535 605.666 884.606 615.253 877.805C622.063 872.97 626.312 805.803 622.394 796.808C620.317 792.038 618.207 787.538 611.302 783.516C603.557 779.002 597.124 795.635 595.716 804.81C592.89 823.22 593.443 837.667 593.31 855.43C573.518 862.221 552.147 864.79 531.295 864.586C531.533 868.101 529.842 879.427 529.758 882.898Z" fill="#F29F89"/>
<path d="M524.7 784.643C521.542 778.201 516.476 771.349 515.445 766.629C514.511 762.362 517.959 749.393 520.588 747.084C523.735 744.317 537.881 744.757 537.671 747.653C537.555 749.212 536.025 750.274 534.514 750.43C533.003 750.586 526.54 751.801 525.722 752.105C524.803 752.449 524.151 754.284 523.901 758.257C528.798 754.581 530.517 752.716 533.602 753.108C535.452 753.348 536.904 755.083 536.739 757.587C537.472 756.719 539.636 756.7 540.597 757.273C542.638 758.5 543.032 760.346 542.708 762.688C546.215 761.102 546.327 765.098 546.469 768.068C546.611 771.039 546.472 774.037 545.93 776.96C545.6 778.748 544.36 780.044 543.137 779.519C541.283 778.736 541.032 774.527 540.806 771.928C540.18 772.103 538.528 773.315 538.307 774.279C541.624 777.834 544.088 784.138 541.548 789.759C533.589 792.57 528.242 791.884 524.7 784.643Z" fill="#F29F89"/>
<path d="M536.141 757.964C533.38 759.416 530.766 761.162 528.382 763.172" stroke="#B04050" stroke-width="1.33342" stroke-miterlimit="10" stroke-linecap="round"/>
<path d="M542.001 762.811C539.412 764.125 537.05 765.883 535.047 767.977" stroke="#B04050" stroke-width="1.33342" stroke-miterlimit="10" stroke-linecap="round"/>
<path d="M542.109 787.822C539.579 808.801 537.05 829.77 534.521 850.74C534.498 850.961 534.466 851.182 534.433 851.413C533.57 858.409 532.045 866.144 526.141 869.901C520.227 873.677 509.235 873.892 505.658 863.974C505.511 863.58 505.394 863.166 505.278 862.742C503.073 854.498 506.681 841.662 511.477 831.846C518.09 818.333 523.408 799.334 525.828 784.493C531.015 785.097 536.222 785.712 542.109 787.822Z" fill="#F29F89"/>
<path d="M534.423 851.413C533.56 858.409 532.035 866.144 526.131 869.9C520.217 873.677 509.225 873.892 505.648 863.974C505.501 863.58 505.384 863.166 505.268 862.742C505.347 862.824 505.447 862.915 505.527 862.986C508.38 865.541 512.158 867.248 515.995 867.014C519.872 866.79 523.405 864.65 526.288 862.042C529.669 859.015 532.302 855.388 534.423 851.413Z" fill="#E98473"/>
<path d="M524.216 722.713C522.134 726.759 525.31 732.265 531.322 735.011C537.334 737.756 543.896 736.693 545.979 732.648C548.061 728.602 544.884 723.096 538.873 720.35C532.871 717.605 526.309 718.668 524.216 722.713Z" fill="#E76C67"/>
<path d="M535.162 722.206C535.303 743.826 544.638 760.905 560.709 762.028C579.436 763.328 602.576 747.642 606.136 722.174C609.132 700.767 591.435 682.801 571.314 682.896C551.205 682.982 535.021 700.587 535.162 722.206Z" fill="#F29F89"/>
<path d="M597.754 717.805C582.424 717.968 567.235 709.949 558.824 697.277C549.049 702.787 540.767 710.918 535.077 720.595C535.41 710.182 539.304 699.904 545.954 691.888C547.604 689.901 549.495 687.997 551.89 687.024C554.224 686.081 556.82 686.116 559.335 686.191C570.463 686.541 581.564 687.565 592.568 689.243C593.432 689.372 594.326 689.521 595.025 690.052C596.134 690.898 596.381 692.44 596.538 693.82C597.381 701.296 597.993 708.79 597.754 717.805Z" fill="#E76C67"/>
<path d="M550.887 727.835C549.442 730.568 549.368 733.979 550.699 736.77" stroke="#B04050" stroke-width="1.33342" stroke-miterlimit="10" stroke-linecap="round"/>
<path d="M554.978 744.923C558.926 743.522 563.607 744.434 566.761 747.202" stroke="#B04050" stroke-width="1.33342" stroke-miterlimit="10" stroke-linecap="round"/>
<path d="M544.257 727.579C545.193 727.658 545.897 726.659 546.043 725.05C546.19 723.441 545.677 722.349 544.742 722.269C543.807 722.19 543.103 723.189 542.956 724.798C542.809 726.417 543.322 727.509 544.257 727.579Z" fill="#29374E"/>
<path d="M568.324 729.303C569.259 729.383 569.963 728.383 570.109 726.774C570.256 725.165 569.744 724.073 568.808 723.994C567.873 723.915 567.169 724.914 567.022 726.523C566.876 728.132 567.388 729.224 568.324 729.303Z" fill="#29374E"/>
<path d="M539.473 715.566C543.016 716.597 547.822 715.013 549.749 712.436" stroke="#2D3067" stroke-width="1.33342" stroke-miterlimit="10" stroke-linecap="round"/>
<path d="M566.017 713.057C569.965 711.707 574.703 713.061 577.328 716.308" stroke="#2D3067" stroke-width="1.33342" stroke-miterlimit="10" stroke-linecap="round"/>
<path d="M609.059 731.965C605.499 735.815 605.04 735.388 600.892 737.612C598.579 731.209 596.52 725.643 594.286 719.432C577.793 716.141 568.557 705.493 559.653 691.84C548.942 698.277 539.42 707.685 535.143 723.142C531.41 716.825 529.79 709.624 529.841 702.318C529.86 699.319 530.171 696.303 530.714 693.329C531.447 689.421 532.672 685.548 534.868 682.238C537.074 678.939 540.311 676.203 544.136 675.163C550.311 673.462 556.759 674.853 562.56 677.557C571.184 674.582 580.184 674.277 588.894 676.848C591.805 677.702 594.661 678.947 597.323 680.543C602.666 683.685 607.251 688.219 609.916 693.639C615.058 704.055 612.405 720.142 609.059 731.965Z" fill="#282C55"/>
<path d="M597.343 680.543C586.275 677.164 574.001 677.729 563.359 682.295C554.722 679.352 544.796 682.738 538.293 689.135C534.543 692.843 531.79 697.405 529.851 702.318C529.87 699.319 530.181 696.303 530.724 693.329C531.456 689.421 532.682 685.548 534.878 682.238C537.084 678.939 540.321 676.203 544.146 675.163C550.321 673.462 556.769 674.853 562.57 677.557C571.194 674.582 580.194 674.277 588.905 676.848C591.815 677.702 594.671 678.957 597.343 680.543Z" fill="#2E3B72"/>
<path d="M616.406 733.909C617.693 738.189 613.663 742.749 607.41 744.097C601.157 745.445 595.041 743.07 593.754 738.79C592.467 734.51 596.497 729.95 602.75 728.603C609.003 727.244 615.119 729.629 616.406 733.909Z" fill="#F29F89"/>
</g>
</g>
<defs>
<filter id="filter0_d_41_180" x="-6.40137" y="532.052" width="729.855" height="556.614" filterUnits="userSpaceOnUse" color-interpolation-filters="sRGB">
<feFlood flood-opacity="0" result="BackgroundImageFix"/>
<feColorMatrix in="SourceAlpha" type="matrix" values="0 0 0 0 0 0 0 0 0 0 0 0 0 0 0 0 0 0 127 0" result="hardAlpha"/>
<feOffset dx="-5" dy="9"/>
<feGaussianBlur stdDeviation="3.5"/>
<feComposite in2="hardAlpha" operator="out"/>
<feColorMatrix type="matrix" values="0 0 0 0 0 0 0 0 0 0 0 0 0 0 0 0 0 0 0.55 0"/>
<feBlend mode="normal" in2="BackgroundImageFix" result="effect1_dropShadow_41_180"/>
<feBlend mode="normal" in="SourceGraphic" in2="effect1_dropShadow_41_180" result="shape"/>
</filter>
<clipPath id="clip0_41_180">
<rect width="1440" height="1024" fill="white"/>
</clipPath>
</defs>
</svg>
