<svg width="1440" height="1024" viewBox="0 0 1440 1024" fill="none" xmlns="http://www.w3.org/2000/svg">
<g clip-path="url(#clip0_19_52)">
<rect width="1440" height="1024" fill="#33F7A3"/>
<path fill-rule="evenodd" clip-rule="evenodd" d="M1657 1072.44L1612.98 1039.83C1568.95 1007.22 1373.76 943.13 1285.71 951.001C1197.67 958.872 1109.62 1006.54 1021.57 1014.41C933.523 1022.28 845.476 991.48 757.428 943.13C669.38 893.655 581.333 862.171 493.285 853.175C405.237 845.304 306.581 879.301 218.534 862.434C130.486 846.692 53.0466 801.475 9.0228 776.738L-35.001 752V1120.79H9.0228C53.0466 1120.79 141.094 1120.79 229.142 1120.79C317.19 1120.79 405.237 1120.79 493.285 1120.79C581.333 1120.79 669.38 1120.79 757.428 1120.79C845.476 1120.79 933.523 1120.79 1021.57 1120.79C1109.62 1120.79 1197.67 1120.79 1285.71 1120.79C1373.76 1120.79 1568.95 1120.79 1612.98 1120.79H1657V1072.44Z" fill="#23CCDF"/>
<path d="M1729.26 872.956C1677.14 850.352 1462.07 829.186 1372.36 855.766C1282.65 882.346 1200.85 948.013 1111.15 974.593C1021.44 1001.17 924.048 989.771 823.168 961.13C722.064 931.385 624.536 919.31 531.477 929.324C438.641 940.442 343.13 994.954 248.507 997.237C154.107 1000.62 64.846 972.79 14.2943 957.917L-36.2574 943.044" stroke="white" stroke-width="2"/>
<path d="M1729.15 929.64C1678.79 903.73 1465.84 868.801 1374.52 889.584C1283.19 910.367 1196.98 970.679 1105.66 991.462C1014.33 1012.24 918.032 994.614 819.475 959.548C720.774 923.365 624.386 905.054 530.891 909.082C437.54 914.227 338.45 962.523 243.943 958.732C149.58 956.059 62.5509 922.543 13.2001 904.452L-36.1505 886.36" stroke="white" stroke-width="5"/>
</g>
<defs>
<clipPath id="clip0_19_52">
<rect width="1440" height="1024" fill="white"/>
</clipPath>
</defs>
</svg>
