<svg width="1440" height="1024" viewBox="0 0 1440 1024" fill="none" xmlns="http://www.w3.org/2000/svg">
<g clip-path="url(#clip0_26_2)">
<rect width="1440" height="1024" fill="#23CCDF"/>
<path fill-rule="evenodd" clip-rule="evenodd" d="M1657 967.756L1612.98 929.823C1568.95 891.891 1373.76 817.334 1285.72 826.491C1197.67 835.647 1109.62 891.094 1021.57 900.25C933.525 909.406 845.477 873.579 757.429 817.334C669.382 759.782 581.334 723.158 493.286 712.694C405.239 703.538 306.583 743.084 218.535 723.464C130.488 705.152 53.048 652.552 9.02421 623.776L-34.9996 595V1024H9.02421C53.048 1024 141.096 1024 229.143 1024C317.191 1024 405.239 1024 493.286 1024C581.334 1024 669.382 1024 757.429 1024C845.477 1024 933.525 1024 1021.57 1024C1109.62 1024 1197.67 1024 1285.72 1024C1373.76 1024 1568.95 1024 1612.98 1024H1657V967.756Z" fill="url(#paint0_linear_26_2)" stroke="white" stroke-width="3"/>
<path d="M1729.26 715.708C1677.14 693.105 1462.07 671.939 1372.36 698.519C1282.65 725.099 1200.85 790.765 1111.15 817.345C1021.44 843.925 924.048 832.524 823.168 803.883C722.065 774.138 624.536 762.063 531.477 772.077C438.642 783.195 343.13 837.707 248.507 839.989C154.107 843.377 64.8465 815.542 14.2948 800.67L-36.2569 785.797" stroke="white" stroke-width="2"/>
<path d="M1729.15 772.393C1678.79 746.482 1465.84 711.554 1374.52 732.337C1283.19 753.119 1196.98 813.432 1105.66 834.215C1014.33 854.997 918.033 837.366 819.476 802.3C720.774 766.118 624.386 747.806 530.891 751.834C437.541 756.979 338.451 805.276 243.943 801.485C149.58 798.811 62.5514 765.296 13.2006 747.204L-36.15 729.113" stroke="white" stroke-width="5"/>
<rect x="-34.9998" y="1002" width="1511" height="133" fill="#33F7A3"/>
<g filter="url(#filter0_d_26_2)">
<path d="M682.029 644.258C682.029 644.258 670.36 669.63 662.504 680.347C654.649 691.064 647.163 701.313 640.9 731.06C634.631 760.807 635.706 763.795 633.99 771.478C632.274 779.162 621.111 810.29 621.046 815.998C620.982 821.706 598.484 854.201 592.72 869.412C586.956 884.619 576.75 906.345 577.326 917.404L579.888 916.754C579.888 916.754 581.98 890.965 599.759 864.901C617.55 838.836 615 833.916 635.201 820.525C655.395 807.136 668.439 770.15 668.439 770.15C668.439 770.15 688.985 729.974 688.028 709.089C687.076 688.204 692.523 669.369 682.029 644.258Z" fill="#256653"/>
<path d="M654.696 605.234C654.696 605.234 654.014 621.901 648.626 631.802C643.244 641.703 638.608 647.716 637.627 658.428C636.652 669.14 633.273 696.757 618.255 710.239C603.237 723.722 601.322 764.12 589.894 776.339C578.466 788.561 576.974 797.346 579.083 818.305C581.193 839.264 588.361 868.311 571.786 906.226L568.037 896.795C568.037 896.795 579.894 865.604 577.027 847.339C574.154 829.077 564.165 801.478 567.82 788.243C571.474 775.008 557.878 772.422 566.069 752.404C574.254 732.385 570.893 725.43 582.039 708.122C582.039 708.122 583.184 707.311 586.116 692.668C589.042 678.023 612.674 651.182 623.561 642.023C634.449 632.864 650.142 618.184 654.696 605.234Z" fill="#256653"/>
<path d="M610.341 687.755C610.341 687.755 597.303 710.044 597.121 724.39C596.933 738.736 598.49 750.406 591.892 770.05C585.294 789.697 598.39 802.116 594.612 812.963C590.84 823.81 590.552 836.652 590.664 846.389C590.781 856.13 575.728 888.358 573.437 904.675C571.145 920.996 574.077 921.049 574.077 921.049C574.077 921.049 576.568 899.505 580.035 892.381C583.496 885.257 594.025 860.693 596.487 851.19C598.943 841.687 605.611 835.589 611.364 819.497C617.116 803.401 625.294 789.847 624.672 767.009C624.043 744.173 633.25 720.069 610.341 687.755Z" fill="#3C8F7C"/>
<path d="M582.738 906.094C582.738 906.094 588.819 877.808 614.46 874.982C640.101 872.159 655.166 877.22 673.274 856.554C691.389 835.886 701.912 803.091 707.699 797.445C707.699 797.445 698.598 792.769 683.468 806.892C668.333 821.015 657.704 831.731 648.943 839.953C640.189 848.177 633.074 842.816 623.826 848.236C616.076 852.778 606.052 865.911 601.639 872.788C600.206 875.023 598.502 877.073 596.551 878.871C594.771 880.509 592.656 882.515 591.304 883.991C588.59 886.945 580.758 906.198 580.758 906.198L582.738 906.094Z" fill="#3C8F7C"/>
<path d="M573.701 901.106C573.701 901.106 582.738 866.511 576.686 849.58C570.634 832.653 551.685 820.125 552.443 809.49C553.207 798.856 565.37 770.112 555.452 748.715C555.452 748.715 551.685 767.802 547.966 772.048C544.247 776.295 518.733 793.416 523.257 816.033C527.778 838.646 552.584 843.932 558.695 850.59C564.8 857.245 573.049 857.239 573.102 861.665C573.155 866.092 574.765 882.187 572.027 898.071L573.701 901.106Z" fill="#3C8F7C"/>
<path d="M583.578 877.955L596.275 841.443C596.275 841.443 603.737 812.075 608.055 787.587C612.38 763.098 610.341 687.755 610.341 687.755C610.341 687.755 597.303 710.044 597.121 724.39C596.933 738.736 598.49 750.406 591.892 770.05C585.294 789.697 598.39 802.116 594.612 812.963C590.84 823.81 590.552 836.652 590.664 846.389C590.781 856.13 575.728 888.358 573.437 904.675C572.185 913.616 572.497 917.67 573.031 919.511C570.998 905.238 583.578 877.955 583.578 877.955Z" fill="#327F6B"/>
<path d="M646.111 856.204C634.789 858.461 624.66 857.692 611.217 867.683C597.773 877.674 589.865 888.342 589.865 888.342C589.865 888.342 583.825 899.123 581.328 904.81C580.969 905.679 580.758 906.198 580.758 906.198L582.738 906.094C582.738 906.094 588.819 877.808 614.46 874.982C640.101 872.159 655.166 877.22 673.274 856.554C691.389 835.886 701.912 803.091 707.699 797.445C707.699 797.445 688.433 812.41 676.523 825.654C664.62 838.896 657.44 853.944 646.111 856.204Z" fill="#327F6B"/>
<path d="M547.966 772.048C544.247 776.295 518.733 793.416 523.257 816.033C527.778 838.646 552.584 843.932 558.695 850.59C564.8 857.245 573.049 857.239 573.102 861.665C573.155 866.092 574.765 882.187 572.027 898.071L572.755 899.396C574.095 893.197 575.951 883.756 576.557 876.589C577.544 864.951 575.657 860.131 571.909 850.702C568.16 841.271 544.876 822.066 539.04 811.969C533.207 801.869 550.293 784.992 554.083 776.843C557.878 768.693 555.452 748.715 555.452 748.715C555.452 748.715 551.685 767.802 547.966 772.048Z" fill="#327F6B"/>
<path d="M608.496 884.391L612.48 874.772C615.576 867.698 623.485 864.323 630.159 867.23C646.969 874.554 654.272 894.942 646.476 912.768L640.782 925.801C638.285 931.509 639.149 937.792 642.522 942.218C645.577 946.241 646.076 951.833 643.955 956.682L640.953 963.553C637.697 970.989 631.37 976.5 623.867 978.773C619.478 980.102 615.6 983.39 613.549 988.079L609.295 997.807C604.595 1008.56 592.562 1013.7 582.42 1009.28L576.639 1006.76C566.498 1002.34 562.085 990.036 566.791 979.28C574.395 966.419 573.789 956.823 571.092 950.311C567.132 940.74 567.179 929.727 571.463 919.924L572.068 918.548C576.586 908.201 585.323 900.477 595.723 897.17C600.317 895.71 605.106 892.143 608.496 884.391Z" fill="#50BFA5"/>
<path d="M536.73 1020.21C544.886 1009.65 589.612 953.091 618.773 943.662C650.965 933.259 620.623 974.584 620.623 974.584C620.623 974.584 677.728 912.241 698.686 917.861C717.893 923.012 698.686 961.655 698.686 961.655C698.686 961.655 720.32 940.255 746.56 940.255C772.089 940.255 728.716 1016.15 726.377 1020.21H536.73Z" fill="#96D9C9"/>
<path d="M708.821 897.848C685.489 934.231 668.462 974.647 658.726 1017.58L657.128 1017.15C666.823 975.116 683.739 934.772 707.029 898.429C712.44 889.986 718.287 879.964 728.428 876.67C728.622 876.607 728.698 876.904 728.51 876.973C719.25 880.455 713.892 889.952 708.821 897.848Z" fill="#3C8F7C"/>
<path d="M664.355 1019.09C690.425 983.69 722.124 950.971 759.809 922.518C760.191 922.234 760.696 922.89 760.32 923.181C724.574 950.614 692.946 983.009 666.335 1019.62L664.355 1019.09Z" fill="#3C8F7C"/>
<path d="M710.954 875.289C711.559 876.17 713.856 878.47 714.532 881.49C715.437 884.356 714.72 887.946 714.644 887.82C714.474 887.892 717.306 885.501 718.193 881.696C719.338 878.046 718.533 872.984 717.106 871.309C714.65 867.517 710.343 867.133 709.509 868.97C708.621 870.796 709.749 873.281 710.954 875.289Z" fill="#3C8F7C"/>
<path d="M716.536 907.761C715.666 907.145 713.41 904.804 710.396 904.069C707.546 903.109 703.939 903.753 704.056 903.831C703.986 904.003 706.436 901.221 710.267 900.415C713.939 899.342 718.992 900.243 720.643 901.699C724.392 904.231 724.691 908.533 722.835 909.33C720.99 910.177 718.522 909.008 716.536 907.761Z" fill="#3C8F7C"/>
<path d="M708.116 921.993C707.24 921.377 704.984 919.036 701.976 918.304C699.121 917.342 695.513 917.986 695.637 918.064C695.56 918.236 698.01 915.454 701.841 914.647C705.519 913.575 710.572 914.476 712.223 915.932C715.966 918.464 716.271 922.765 714.415 923.562C712.564 924.413 710.096 923.241 708.116 921.993Z" fill="#3C8F7C"/>
<path d="M738.164 955.009C737.288 954.39 735.032 952.049 732.018 951.318C729.168 950.355 725.561 950.999 725.684 951.077C725.608 951.249 728.058 948.467 731.888 947.66C735.561 946.588 740.614 947.488 742.265 948.945C746.013 951.477 746.313 955.778 744.456 956.576C742.611 957.426 740.144 956.253 738.164 955.009Z" fill="#3C8F7C"/>
<path d="M753.511 941.505C752.641 940.889 750.379 938.548 747.371 937.814C744.515 936.851 740.907 937.498 741.031 937.576C740.954 937.748 743.411 934.966 747.236 934.156C750.914 933.087 755.967 933.987 757.618 935.441C761.366 937.973 761.666 942.274 759.809 943.074C757.959 943.921 755.496 942.752 753.511 941.505Z" fill="#3C8F7C"/>
<path d="M699.174 891.393C699.902 892.168 702.534 894.079 703.68 896.958C705.032 899.643 704.89 903.3 704.791 903.188C704.632 903.287 707.053 900.477 707.329 896.582C707.881 892.797 706.289 887.927 704.62 886.495C701.589 883.138 697.282 883.438 696.747 885.382C696.159 887.327 697.664 889.602 699.174 891.393Z" fill="#3C8F7C"/>
<path d="M686.782 907.533C687.822 908.086 691.471 909.086 693.298 911.809C695.372 914.228 695.636 918.37 695.501 918.286C695.307 918.464 698.092 914.291 697.975 909.824C698.233 905.363 695.578 900.608 693.239 899.73C688.909 897.283 683.368 899.464 682.91 901.868C682.387 904.288 684.614 906.182 686.782 907.533Z" fill="#3C8F7C"/>
<path d="M673.75 931.98C674.866 932.349 678.627 932.725 680.889 935.101C683.339 937.139 684.297 941.177 684.15 941.118C683.985 941.324 686.036 936.744 685.166 932.362C684.667 927.92 681.247 923.678 678.797 923.203C674.114 921.521 669.02 924.6 668.979 927.045C668.868 929.518 671.376 931.015 673.75 931.98Z" fill="#3C8F7C"/>
<path d="M712.323 949.011C713.14 949.52 716.048 950.539 717.382 952.859C718.927 954.944 718.904 958.329 718.798 958.251C718.628 958.385 721.136 955.15 721.295 951.512C721.759 947.898 719.873 943.878 718.022 943.027C714.632 940.793 710.002 942.252 709.497 944.181C708.933 946.119 710.631 947.789 712.323 949.011Z" fill="#3C8F7C"/>
<path d="M732.411 881.012C731.918 880.608 730.69 879.124 728.939 878.558C727.288 877.864 725.132 878.089 725.196 878.142C725.149 878.239 726.718 876.701 729.021 876.392C731.242 875.917 734.192 876.67 735.102 877.604C737.206 879.265 737.194 881.822 736.06 882.212C734.938 882.634 733.528 881.834 732.411 881.012Z" fill="#3C8F7C"/>
<path d="M727.729 870.621C727.752 871.256 728.175 873.134 727.558 874.863C727.1 876.589 725.608 878.161 725.608 878.077C725.496 878.058 727.676 877.752 729.327 876.123C731.06 874.657 732.265 871.862 732.077 870.571C732.047 867.892 730.008 866.339 729.009 866.998C727.987 867.633 727.758 869.233 727.729 870.621Z" fill="#3C8F7C"/>
<path d="M764.568 927.751C764.081 927.351 762.847 925.866 761.096 925.3C759.451 924.606 757.289 924.832 757.359 924.882C757.3 924.982 758.875 923.444 761.178 923.131C763.399 922.659 766.349 923.413 767.259 924.344C769.369 926.007 769.357 928.564 768.223 928.955C767.095 929.377 765.685 928.577 764.568 927.751Z" fill="#3C8F7C"/>
<path d="M758.922 917.273C758.998 917.901 759.574 919.743 759.098 921.515C758.787 923.272 757.424 924.963 757.418 924.875C757.306 924.866 759.457 924.385 760.967 922.628C762.571 921.021 763.54 918.142 763.252 916.869C763 914.2 760.843 912.819 759.897 913.556C758.934 914.276 758.84 915.888 758.922 917.273Z" fill="#3C8F7C"/>
<path d="M754.997 984.987C731.172 987.594 708.986 998.094 687.622 1008.33C673.221 1015.24 673.944 1017.2 671.012 1018.23C670.536 1018.4 670.06 1017.88 670.289 1017.43C671.418 1015.19 674.379 1013.68 676.435 1012.4C678.838 1010.9 681.341 1009.58 683.879 1008.35C689.32 1005.72 694.896 1003.35 700.437 1000.94C711.712 996.05 723.169 991.449 735.079 988.335C741.613 986.628 748.252 985.397 754.979 984.794C755.103 984.781 755.12 984.971 754.997 984.987Z" fill="#3C8F7C"/>
<path d="M733.522 977.61C733.675 978.589 734.697 981.421 734.068 984.218C733.698 986.978 731.677 989.704 731.665 989.57C731.489 989.561 734.809 988.673 737.053 985.831C739.456 983.224 740.784 978.666 740.25 976.701C739.691 972.552 736.236 970.536 734.809 971.749C733.34 972.931 733.305 975.453 733.522 977.61Z" fill="#3C8F7C"/>
<path d="M712.535 985.115C712.693 986.091 713.71 988.923 713.081 991.724C712.705 994.484 710.69 997.21 710.672 997.073C710.501 997.063 713.821 996.175 716.066 993.337C718.469 990.73 719.797 986.169 719.268 984.203C718.698 980.055 715.243 978.038 713.815 979.252C712.358 980.433 712.317 982.959 712.535 985.115Z" fill="#3C8F7C"/>
<path d="M691.212 994.606C691.365 995.581 692.382 998.413 691.753 1001.21C691.383 1003.97 689.361 1006.7 689.35 1006.56C689.173 1006.56 692.499 1005.67 694.743 1002.83C697.14 1000.22 698.469 995.659 697.94 993.693C697.376 989.548 693.915 987.529 692.493 988.742C691.03 989.923 690.989 992.449 691.212 994.606Z" fill="#3C8F7C"/>
<path d="M739.791 997.191C739.356 996.384 738.522 993.731 736.501 992.018C734.679 990.189 731.665 989.307 731.73 989.413C731.612 989.517 734.556 988.323 737.793 989.164C741.025 989.745 744.55 992.365 745.261 994.112C747.159 997.482 745.743 1000.89 744.01 1000.8C742.277 1000.74 740.831 998.901 739.791 997.191Z" fill="#3C8F7C"/>
<path d="M717.958 1004.91C717.529 1004.1 716.694 1001.45 714.667 999.732C712.846 997.904 709.838 997.022 709.902 997.129C709.779 997.232 712.723 996.038 715.966 996.878C719.192 997.459 722.717 1000.08 723.428 1001.83C725.326 1005.2 723.91 1008.61 722.182 1008.51C720.443 1008.46 719.004 1006.62 717.958 1004.91Z" fill="#3C8F7C"/>
<path d="M756.413 989.248C756.037 988.798 755.162 987.241 753.663 986.435C752.283 985.525 750.273 985.369 750.326 985.428C750.267 985.509 751.954 984.372 754.098 984.471C756.202 984.412 758.764 985.591 759.439 986.594C761.084 988.46 760.644 990.789 759.545 990.955C758.446 991.152 757.294 990.186 756.413 989.248Z" fill="#3C8F7C"/>
<path d="M753.898 979.001C753.81 979.579 753.881 981.365 753.029 982.837C752.324 984.331 750.696 985.516 750.708 985.435C750.614 985.4 752.653 985.487 754.427 984.28C756.249 983.233 757.818 980.889 757.864 979.682C758.288 977.235 756.695 975.478 755.667 975.913C754.627 976.319 754.157 977.742 753.898 979.001Z" fill="#3C8F7C"/>
<path d="M140.303 839.555C112.309 814.632 97.9147 778.843 90.769 753.204C83.0113 725.374 81.8815 703.161 81.8704 702.94L80.3491 702.846C80.3599 703.069 81.4948 725.445 89.2987 753.463C96.511 779.353 111.057 815.51 139.398 840.741L140.303 839.555Z" fill="#3C8F7C"/>
<path d="M85.0591 696.497C86.4391 702.905 85.2841 708.958 82.3423 713.329C77.7292 709.939 74.1022 704.507 72.7222 698.099C71.3425 691.69 72.4978 685.637 75.4396 681.266C80.0518 684.656 83.68 690.088 85.0591 696.497Z" fill="#3C8F7C"/>
<path d="M76.4731 714.744C81.2962 719.225 84.1153 725.11 84.6619 730.777C79.3675 731.018 73.5418 728.872 68.7184 724.391C63.8953 719.911 61.0762 714.026 60.5299 708.36C65.8243 708.119 71.6497 710.264 76.4731 714.744Z" fill="#3C8F7C"/>
<path d="M74.2099 733.917C80.2039 735.795 85.1194 739.963 88.0291 745.025C83.6788 747.814 77.851 748.615 71.8573 746.738C65.863 744.861 60.9475 740.693 58.0384 735.631C62.3887 732.843 68.2156 732.039 74.2099 733.917Z" fill="#3C8F7C"/>
<path d="M83.4409 756.98C88.189 758.478 91.9852 762.301 94.1356 767.13C90.5356 770.15 85.8223 771.294 81.0742 769.8C76.3261 768.302 72.5305 764.479 70.3795 759.65C73.9795 756.63 78.6934 755.486 83.4409 756.98Z" fill="#3C8F7C"/>
<path d="M91.5478 724.063C95.2849 720.308 100.234 718.707 105.024 719.22C105.29 724.282 103.541 729.413 99.8044 733.169C96.0679 736.924 91.1191 738.525 86.3287 738.012C86.0632 732.95 87.8116 727.819 91.5478 724.063Z" fill="#3C8F7C"/>
<path d="M95.8794 740.593C99.6162 736.837 104.565 735.236 109.355 735.75C109.621 740.811 107.873 745.942 104.136 749.697C100.4 753.454 95.4504 755.055 90.6594 754.542C90.3945 749.478 92.1432 744.348 95.8794 740.593Z" fill="#3C8F7C"/>
<path d="M123.432 873.353C97.5811 869.593 75.4573 854.301 61.4506 842.134C46.2445 828.931 37.0504 816.451 36.9595 816.326L36.0388 816.855C36.1309 816.98 45.3901 829.552 60.6949 842.847C74.8378 855.135 97.1902 870.581 123.362 874.391L123.432 873.353Z" fill="#50BFA5"/>
<path d="M36.3364 811.359C39.6016 814.554 41.2567 818.518 41.2267 822.184C37.2421 821.981 33.0457 820.212 29.7805 817.017C26.5162 813.82 24.8605 809.859 24.8905 806.189C28.8751 806.395 33.0715 808.161 36.3364 811.359Z" fill="#50BFA5"/>
<path d="M38.359 825.257C42.8842 826.014 46.7851 828.352 49.2805 831.437C46.2952 833.607 42.0847 834.591 37.5586 833.835C33.0328 833.078 29.1319 830.737 26.6365 827.652C29.6218 825.485 33.8329 824.501 38.359 825.257Z" fill="#50BFA5"/>
<path d="M44.4112 837.267C48.6178 836.064 53.0767 836.601 56.7136 838.43C55.2571 841.718 52.1776 844.416 47.9719 845.623C43.7656 846.827 39.3067 846.289 35.6698 844.46C37.1269 841.172 40.2055 838.474 44.4112 837.267Z" fill="#50BFA5"/>
<path d="M58.642 847.139C61.9768 846.188 65.6533 846.958 68.7595 848.94C67.8271 852.075 65.527 854.547 62.1925 855.495C58.8574 856.445 55.1812 855.676 52.075 853.694C53.0074 850.559 55.3075 848.089 58.642 847.139Z" fill="#50BFA5"/>
<path d="M50.7034 824.898C51.4321 821.281 53.6935 818.455 56.6761 816.921C58.7752 819.759 59.7313 823.413 59.002 827.026C58.2736 830.64 56.0119 833.469 53.0296 835.004C50.9302 832.166 49.9744 828.512 50.7034 824.898Z" fill="#50BFA5"/>
<path d="M59.5738 832.848C60.3028 829.231 62.5639 826.405 65.5462 824.866C67.6462 827.708 68.6011 831.362 67.8724 834.976C67.1437 838.589 64.8823 841.419 61.9006 842.953C59.8006 840.112 58.8451 836.46 59.5738 832.848Z" fill="#50BFA5"/>
<path d="M138.998 950.605C109.178 961.908 76.3522 955.938 54.0655 948.939C29.8711 941.34 12.5233 930.924 12.3505 930.821L11.6896 932.081C11.863 932.187 29.3377 942.684 53.6917 950.336C76.1974 957.408 109.361 963.434 139.551 951.99L138.998 950.605Z" fill="#96D9C9"/>
<path d="M8.68089 924.772C14.0941 926.873 18.2554 930.968 20.4427 935.741C16.0744 937.97 10.5337 938.304 5.1199 936.207C-0.293305 934.106 -4.45431 930.011 -6.64191 925.238C-2.27391 923.009 3.26769 922.675 8.68089 924.772Z" fill="#96D9C9"/>
<path d="M19.246 941.515C24.5263 939.664 30.0985 940.255 34.6246 942.693C32.7559 947.37 28.8658 951.28 23.5861 953.134C18.3061 954.985 12.7333 954.39 8.20746 951.955C10.0762 947.279 13.9666 943.369 19.246 941.515Z" fill="#96D9C9"/>
<path d="M32.9653 953.293C36.7174 949.098 41.7949 947.007 46.7764 947.101C47.2141 952.275 45.5671 957.698 41.815 961.89C38.0629 966.085 32.9851 968.176 28.0039 968.082C27.5662 962.912 29.2135 957.485 32.9653 953.293Z" fill="#96D9C9"/>
<path d="M52.1605 959.373C55.9123 955.181 60.9898 953.09 65.971 953.184C66.4087 958.354 64.762 963.777 61.0096 967.973C57.2575 972.165 52.1806 974.256 47.1988 974.165C46.7614 968.992 48.4084 963.568 52.1605 959.373Z" fill="#96D9C9"/>
<path d="M34.0999 939.727C30.7981 935.435 29.3263 930.261 29.6761 925.569C34.0246 926.075 38.4706 928.598 41.7721 932.89C45.0736 937.182 46.546 942.356 46.1959 947.048C41.8471 946.541 37.4017 944.018 34.0999 939.727Z" fill="#96D9C9"/>
<path d="M54.0409 945.956C50.6776 941.715 49.126 936.56 49.399 931.852C53.746 932.284 58.2229 934.731 61.5868 938.973C64.9504 943.215 66.5023 948.374 66.229 953.081C61.8817 952.649 57.4045 950.202 54.0409 945.956Z" fill="#96D9C9"/>
<path d="M77.3866 961.039C78.2686 958.805 80.0206 957.251 82.0735 956.61C83.0584 958.676 83.23 961.13 82.348 963.365C81.466 965.6 79.714 967.153 77.6611 967.795C76.6762 965.729 76.5055 963.274 77.3866 961.039Z" fill="#96D9C9"/>
<path d="M203.001 1018.03C203.001 1018.03 240.995 868.001 228.396 852.928C210.984 832.094 196.621 901.205 195.212 895.335C181.902 839.899 178.357 768.968 135.422 761.463C111.015 757.193 141.06 814.207 139.251 829.627C137.444 845.048 93.4606 793.851 66.7333 767.03C40.0051 740.208 26.2018 757.19 43.0894 790.916C59.4193 823.528 112.248 859.168 101.358 863.397C90.4687 867.627 24.3586 825.507 16.2631 843.513C6.337 865.588 105.505 895.629 96.1669 900.59C86.8288 905.548 39.4318 889.214 40.7269 906.094C42.0217 922.978 105.736 922.346 104.647 929.773C102.884 941.796 60.7435 914.582 58.891 931.218C56.9968 948.232 114.331 945.128 113.337 958.401C112.767 966.028 100.465 954.522 98.6515 965.087C94.5187 989.173 170.1 1018.52 170.1 1018.52L203.001 1018.03Z" fill="#3C8F7C"/>
<path d="M231.971 1018.94C231.971 1018.94 195.813 963.593 178.413 953.143C159.874 942.009 173.988 975.347 173.988 975.347C173.988 975.347 136.102 930.336 125.57 939.48C115.038 948.626 124.597 959.217 124.597 959.217C124.597 959.217 90.5839 949.155 84.4702 961.618C75.0772 980.774 131.075 996.656 131.075 996.656C131.075 996.656 107.036 996.4 111.459 1009.33C118.128 1028.83 231.971 1018.94 231.971 1018.94Z" fill="#50BFA5"/>
<path d="M84.4702 961.618C90.5839 949.155 124.597 959.217 124.597 959.217C124.597 959.217 115.038 948.626 125.57 939.48C136.102 930.337 166.408 957.71 166.408 957.71C166.408 957.71 163.232 935.135 186.054 955.022C202.355 969.226 231.971 1018.94 231.971 1018.94L84.4702 961.618Z" fill="#96D9C9"/>
<path d="M188.08 879.968L189.703 878.862C160.263 834.347 151.276 781.497 148.922 744.999C146.366 705.392 150.852 675.954 150.897 675.661L148.887 675.078C148.841 675.373 144.321 705.008 146.886 744.851C149.256 781.659 158.326 834.979 188.08 879.968Z" fill="#96D9C9"/>
<path d="M156.693 668.727C156.757 677.669 153.65 685.062 148.689 689.498C143.651 683.103 140.429 674.469 140.364 665.526C140.3 656.584 143.408 649.191 148.368 644.755C153.406 651.15 156.629 659.784 156.693 668.727Z" fill="#96D9C9"/>
<path d="M140.747 688.827C145.765 696.733 147.824 705.61 147.013 713.229C140.125 711.273 133.191 705.98 128.173 698.074C123.155 690.168 121.096 681.291 121.907 673.672C128.795 675.628 135.728 680.92 140.747 688.827Z" fill="#96D9C9"/>
<path d="M132.703 712.841C139.926 717.857 145.146 725.396 147.542 733.24C141.19 735.01 133.465 733.558 126.242 728.541C119.019 723.525 113.798 715.987 111.403 708.143C117.755 706.373 125.48 707.825 132.703 712.841Z" fill="#96D9C9"/>
<path d="M142.123 754.767C145.273 756.643 147.666 759.653 148.895 762.885C146.309 763.848 143.056 763.495 139.906 761.616C136.756 759.74 134.363 756.73 133.135 753.498C135.72 752.535 138.972 752.888 142.123 754.767Z" fill="#96D9C9"/>
<path d="M144.683 770.296C147.833 772.175 150.226 775.183 151.455 778.418C148.869 779.377 145.616 779.025 142.467 777.149C139.316 775.273 136.923 772.263 135.695 769.028C138.281 768.068 141.534 768.421 144.683 770.296Z" fill="#96D9C9"/>
<path d="M157.684 707.432C163.503 704.14 170.31 704.175 176.347 706.897C175.335 713.608 171.709 719.544 165.89 722.836C160.069 726.129 153.264 726.095 147.227 723.372C148.238 716.662 151.863 710.725 157.684 707.432Z" fill="#96D9C9"/>
<path d="M158.845 730.829C164.665 727.536 171.471 727.571 177.508 730.294C176.497 737.004 172.871 742.941 167.051 746.233C161.231 749.525 154.425 749.49 148.388 746.768C149.4 740.058 153.026 734.121 158.845 730.829Z" fill="#96D9C9"/>
<path d="M157.691 764.313C161.479 762.172 165.909 762.194 169.839 763.967C169.18 768.334 166.82 772.197 163.032 774.342C159.244 776.483 154.814 776.461 150.885 774.689C151.543 770.322 153.903 766.458 157.691 764.313Z" fill="#96D9C9"/>
<path d="M573.108 896.32C576.527 896.876 576.327 897.432 576.762 897.492C577.285 897.561 583.461 894.466 583.461 894.466C583.461 894.466 601.722 885.466 602.691 884.944L615.87 868.386L626.029 873.066C626.029 873.066 611.205 890.668 610.265 891.443C609.33 892.218 583.143 901.387 580.869 902.271C580.869 902.271 578.572 904.366 577.086 905.632C575.599 906.895 573.613 907.398 573.143 907.686C573.072 907.729 571.433 908.592 569.118 909.096C567.12 909.53 568.783 908.176 568.783 908.176C568.783 908.176 572.315 906.689 572.138 906.419C572.003 906.21 570.129 907.142 567.931 907.645C567.361 907.773 566.803 907.901 566.286 908.011C564.935 908.302 564.347 907.529 565.699 906.992C566.181 906.804 566.985 906.507 567.591 906.382C568.243 906.245 568.795 905.901 569.324 905.701C570.375 905.301 571.151 905.023 571.11 904.988C571.051 904.941 571.204 904.706 570.599 904.826C569.87 904.969 568.401 905.623 567.309 905.745C566.692 905.816 565.411 906.042 565.411 906.042C565.411 906.042 563.143 906.257 563.131 905.941C563.096 905.247 564.494 904.863 565.352 904.878C565.887 904.604 567.244 904.407 567.244 904.407C567.244 904.407 569.87 903.369 569.718 902.981C569.659 902.828 568.066 903.066 566.38 903.181C564.594 903.303 563.301 903.303 563.207 902.956C563.055 902.409 564.477 902.203 564.477 902.203C564.477 902.203 565.728 902.021 566.139 901.928C566.615 901.818 568.031 901.374 568.031 901.374C568.031 901.374 572.861 899.602 572.691 899.248C572.514 898.892 571.715 898.145 571.374 898.149C571.034 898.149 570.423 898.489 570.082 898.492C569.741 898.492 569.007 898.426 568.959 897.998C568.907 897.57 570.799 896.686 570.799 896.686C570.799 896.686 572.121 896.161 573.108 896.32Z" fill="#F8A492"/>
<path d="M606.698 878.643C606.698 878.643 609.989 881.625 611.357 882.606C612.491 883.422 618.032 886.089 618.032 886.089C618.032 886.089 623.543 877.661 625.952 873.435C628.878 868.305 630.906 860.68 630.212 860.474C628.273 859.893 625.606 859.539 623.138 860.668C614.612 864.576 606.698 878.643 606.698 878.643Z" fill="#355389"/>
<path d="M576.304 900.724C574.835 900.956 573.337 900.677 572.691 899.339C572.55 900.928 574.953 901.715 576.304 900.724Z" fill="#FE875E"/>
<path d="M167.58 841.606C167.783 836.698 167.062 831.85 164.872 827.283C162.988 823.351 158.326 821.118 154.074 821.116C140.574 821.097 138.856 838.984 130.263 845.882C127.637 847.989 124.701 849.705 122.217 851.981C113.041 860.374 117.174 875.913 125.599 883.275C131.446 888.38 140.634 891.284 147.84 887.289C151.602 885.207 154.457 881.743 156.491 877.945C159.378 872.56 161.239 866.345 163.293 860.602C165.478 854.491 167.31 848.129 167.58 841.606Z" fill="#13375B"/>
<path d="M169.785 865.373C165.568 852.6 160.002 852.8 160.002 852.8L164.499 879.996C167.103 879.286 170.494 877.705 173.095 876.97C172.233 872.931 170.824 868.517 169.785 865.373Z" fill="#F7CC7F"/>
<path d="M191.097 908.933L175.68 897.192C175.68 897.192 174.129 886.235 172.052 876.517C169.451 877.248 167.103 879.286 164.499 879.996L168.419 901.765L188.626 912.175L194.333 919.496L195.632 911.977L191.097 908.933Z" fill="#F48C7F"/>
<path d="M331.629 890.593C336.416 890.593 340.906 891.853 344.791 894.056C345.283 894.335 345.815 894.588 346.382 894.822C358.229 899.68 371.191 890.684 371.191 877.895V815.011H308.207C295.398 815.011 286.387 802.065 291.253 790.241C291.487 789.671 291.741 789.14 292.02 788.649C294.227 784.773 295.488 780.287 295.488 775.508C295.488 760.362 282.839 748.165 267.513 748.875C253.644 749.516 242.475 760.891 242.088 774.748C241.95 779.675 243.154 784.31 245.36 788.321C245.635 788.818 245.888 789.359 246.119 789.934C250.945 801.956 241.789 815.011 228.818 815.011H166.374V958.301C166.374 992.102 193.818 1019.5 227.673 1019.5H371.191V956.825C371.191 943.975 358.189 934.922 346.266 939.764C345.696 939.995 345.161 940.249 344.669 940.524C340.421 942.906 335.458 944.159 330.18 943.881C316.579 943.162 305.595 932.127 304.953 918.548C304.23 903.235 316.45 890.593 331.629 890.593Z" fill="#F47458"/>
<path d="M468.14 855.71C468.363 850.934 469.834 846.514 472.22 842.744C472.521 842.266 472.799 841.747 473.059 841.193C478.473 829.605 470.079 816.258 457.286 815.66L394.366 812.722L391.426 875.541C390.829 888.314 377.457 896.695 365.85 891.29C365.296 891.03 364.776 890.752 364.297 890.452C360.522 888.07 356.094 886.601 351.31 886.379C336.156 885.673 323.363 897.717 323.357 913.034C323.351 926.898 334.209 938.567 348.057 939.602C352.979 939.968 357.675 938.983 361.786 936.969C362.299 936.72 362.854 936.494 363.439 936.291C375.694 932.037 388.324 941.777 387.719 954.715L384.801 1016.99L528.163 1023.68C561.979 1025.26 590.682 999.169 592.262 965.407L598.96 822.272L536.254 819.346C523.398 818.746 513.733 831.291 518.019 843.407C518.226 843.988 518.454 844.532 518.705 845.035C520.89 849.384 521.911 854.391 521.388 859.643C520.033 873.172 508.482 883.613 494.863 883.619C479.509 883.625 467.43 870.847 468.14 855.71Z" fill="#F7CC7F"/>
<path d="M292.824 756.802C293.065 761.575 292.032 766.117 290.022 770.1C289.769 770.603 289.54 771.147 289.336 771.726C285.072 783.782 294.722 796.257 307.511 795.614L370.418 792.457L367.256 729.65C366.614 716.879 379.106 707.244 391.182 711.502C391.762 711.705 392.306 711.933 392.811 712.186C396.799 714.193 401.348 715.225 406.133 714.985C421.283 714.224 432.849 700.999 431.368 685.753C430.031 671.954 418.092 661.389 404.21 661.698C399.273 661.809 394.698 663.242 390.798 665.643C390.312 665.942 389.786 666.221 389.219 666.48C377.438 671.896 363.921 663.423 363.27 650.488L360.133 588.222L216.796 595.418C182.984 597.115 156.952 625.858 158.652 659.617L165.86 802.726L228.557 799.578C241.411 798.934 249.814 785.511 244.371 773.867C244.111 773.311 243.832 772.792 243.53 772.313C240.936 768.197 239.433 763.31 239.446 758.034C239.482 744.436 249.968 732.929 263.521 731.606C278.801 730.115 292.064 741.667 292.824 756.802Z" fill="#50BFA5"/>
<path d="M421.58 722.138C416.79 722.138 412.3 720.879 408.415 718.675C407.927 718.397 407.394 718.143 406.824 717.91C394.98 713.052 382.015 722.049 382.015 734.835V797.721H445.003C457.808 797.721 466.819 810.665 461.953 822.494C461.722 823.06 461.465 823.591 461.187 824.082C458.979 827.958 457.718 832.444 457.718 837.224C457.718 852.368 470.366 864.566 485.695 863.856C499.562 863.216 510.733 851.841 511.119 837.984C511.256 833.057 510.054 828.421 507.847 824.41C507.571 823.913 507.321 823.372 507.09 822.797C502.261 810.775 511.416 797.721 524.39 797.721H586.833V654.431C586.833 620.63 559.388 593.229 525.533 593.229H382.015V655.906C382.015 668.756 395.021 677.808 406.94 672.967C407.51 672.735 408.045 672.482 408.54 672.206C412.786 669.826 417.752 668.572 423.03 668.851C436.628 669.569 447.611 680.602 448.253 694.183C448.979 709.496 436.756 722.138 421.58 722.138Z" fill="#184655"/>
<path d="M125.378 999.62C125.378 999.62 124.427 1006.22 122.791 1008.35C122.241 1009.07 121.238 1009.97 120.579 1011.26C119.554 1013.27 120.121 1016.27 120.877 1017.92C121.265 1018.77 120.85 1018.76 121.733 1019.04C124.351 1019.84 127.135 1018.49 128.249 1015.97C128.872 1014.57 129.418 1012.71 129.528 1010.35C129.808 1004.36 131.67 1001.31 131.67 1001.31L125.378 999.62Z" fill="#F7A491"/>
<path d="M154.006 1002.64C154.006 1002.64 154.593 1010.08 154.116 1012.5C153.861 1013.8 152.439 1016.47 153.092 1017.68C153.744 1018.9 154.489 1019.21 154.489 1019.21L171.387 1019.48C172.308 1019.49 171.7 1018.9 170.957 1018.36C169.743 1017.46 168.762 1016.87 164.882 1014.99C164.629 1014.87 163.707 1014.28 163.375 1014.08C162.532 1013.57 161.686 1012.76 160.958 1011.95C159.744 1010.59 159.638 1004.04 159.638 1004.04L154.006 1002.64Z" fill="#F7A491"/>
<path d="M167.213 903.685C167.213 903.685 169.341 915.77 167.944 923.694C166.547 931.618 159.841 1005.07 159.841 1005.07L152.388 1005.49C152.388 1005.49 150.826 974.809 151.106 970.543C151.385 966.276 153.597 959.136 153.597 959.136L152.855 934.363L162.26 901.818L167.213 903.685Z" fill="#355389"/>
<path d="M145.31 901.14C145.31 901.14 139.442 909.98 138.045 917.295C136.647 924.61 139.07 947.088 136.383 956.676C134.928 961.862 129.413 969.877 128.575 976.582C127.737 983.287 124.448 1000.85 124.448 1000.85L131.897 1002.33L149.209 958.464L162.789 918.817L166.267 898.398L145.31 901.14Z" fill="#466EB6"/>
<path d="M150.061 850.853C150.061 850.853 142.291 850.359 139.218 853.71C136.143 857.064 146.035 883.584 146.595 887.851C147.153 892.118 143.746 903.463 143.746 903.463C143.746 903.463 161.997 907.138 167.213 903.685C167.213 903.685 167.772 873 167.213 869.952C166.655 866.904 161.997 854.51 160.88 853.291C159.761 852.072 150.061 850.853 150.061 850.853Z" fill="#F7CC7F"/>
<path d="M152.647 840.465C152.647 840.465 152.607 840.694 152.534 841.081C152.188 842.95 150.854 849.152 149.953 850.855C148.864 852.919 153.681 859.487 158.318 858.687C159.698 858.445 157.151 852.65 157.274 852.034C157.508 850.858 157.826 849.255 158.151 847.611C158.334 846.682 158.52 845.741 158.695 844.857C159.191 842.344 159.595 840.29 159.595 840.29L152.647 840.465Z" fill="#F7A491"/>
<path d="M152.534 841.081C152.607 840.694 152.647 840.465 152.647 840.465L159.595 840.29C159.595 840.29 159.191 842.344 158.695 844.857C158.521 845.735 158.336 846.673 158.154 847.596C157.082 847.436 155.96 846.914 154.837 845.929C153.611 844.857 152.809 843.569 152.324 842.191C152.409 841.75 152.481 841.372 152.534 841.081Z" fill="#F47458"/>
<path d="M157.324 824.661C157.324 824.661 154.049 824.282 151.996 826.939C149.943 829.596 147.73 837.811 152.829 842.278C157.929 846.745 162.968 841.687 163.715 836.326C164.463 830.966 164.753 824.466 157.324 824.661Z" fill="#F7A491"/>
<path d="M165.224 836.248C164.615 837.433 163.593 838.09 162.941 837.714C162.29 837.339 162.255 836.073 162.864 834.888C163.473 833.707 164.494 833.051 165.146 833.425C165.797 833.801 165.833 835.064 165.224 836.248Z" fill="#F7A491"/>
<path d="M157.69 823.782C157.69 823.782 153.315 831.593 150.185 831.956C147.054 832.316 146.644 836.467 146.644 836.467C146.644 836.467 147.762 826.901 150.861 825.057C153.96 823.213 157.69 823.782 157.69 823.782Z" fill="#13375B"/>
<path d="M128.757 1014.66C124.697 1015.4 121.996 1013.02 120.59 1011.24C119.558 1013.26 119.055 1016.26 119.814 1017.92C120.483 1019.38 122.436 1019.34 123.974 1019.39C125.601 1019.45 126.86 1018.55 127.666 1017.13C128.043 1016.47 128.432 1015.65 128.757 1014.66Z" fill="#F47458"/>
<path d="M163.373 1014.08C158.903 1015.23 155.6 1014.45 153.752 1013.7C153.275 1015.05 152.644 1016.75 152.978 1017.73C153.388 1018.92 153.973 1019.19 154.489 1019.21C158.571 1019.32 169.442 1019.46 172.554 1019.5C172.99 1019.51 173.229 1019 172.949 1018.67C172.178 1017.74 163.706 1014.28 163.373 1014.08Z" fill="#F47458"/>
<path d="M151.006 833.919C151.26 835.307 150.748 836.58 149.862 836.761C148.976 836.942 148.051 835.966 147.796 834.579C147.542 833.191 148.054 831.919 148.94 831.737C149.826 831.553 150.751 832.531 151.006 833.919Z" fill="#F7A491"/>
<path d="M156.117 838.724L160.067 838.902C160.067 838.902 159.908 840.396 158.168 840.368C156.047 840.334 156.117 838.724 156.117 838.724Z" fill="white"/>
<path d="M492.99 524.214C493.485 524.234 494.831 524.685 496.804 528.404C499.321 533.154 503 547.504 503 547.504L492.017 551.587L490.605 548.592L488.282 525.534C488.282 525.534 492.856 524.208 492.99 524.214Z" fill="#DD513A"/>
<path d="M478.472 522.146C481.616 522.15 489.384 523.064 492.99 524.215C492.99 524.215 495.643 546.951 490.605 564.227C489.481 568.095 491.538 580.259 491.538 580.259L458.995 579.83C458.995 579.83 462.852 550.423 461.399 545.672C459.947 540.923 459.912 524.368 459.912 524.368C459.912 524.368 460.134 524.333 467.223 523.11C470.529 522.539 475.122 522.142 478.472 522.146Z" fill="#F47458"/>
<path d="M474.681 622.458C474.681 622.458 475.401 630.754 476.725 633.051C478.05 635.349 476.656 639.255 476.588 639.791C476.515 640.327 473.802 641.092 469.481 640.633C465.16 640.173 465.228 639.178 465.579 637.57C465.927 635.961 468.225 633.894 468.366 632.362C468.504 630.831 467.042 625.317 467.042 625.317L474.681 622.458Z" fill="#F7A491"/>
<path d="M487.865 573.411C487.865 573.411 510.33 572.166 515.349 575.199C520.364 578.233 511.782 593.119 511.782 593.119C511.782 593.119 496.153 592.4 465.536 594.164C458.284 594.582 457.658 575.29 459.014 573.693C460.369 572.097 487.865 573.411 487.865 573.411Z" fill="#E0973F"/>
<path d="M468.942 641.277C464.493 640.804 465.044 638.622 465.401 636.966C465.626 635.929 466.904 634.707 467.664 633.551C468.062 633.867 468.707 634.425 470.639 634.995C472.646 635.586 475.395 634.415 477.148 633.682C477.771 636.003 477.799 638.962 477.74 639.411C477.671 639.962 473.388 641.75 468.942 641.277Z" fill="#DD513A"/>
<path d="M471.397 589.457C472.295 596.238 476.738 629.993 476.738 629.993L466.427 631.27C466.427 631.27 453.748 587.21 454.399 580.472C455.047 573.732 459.794 573.165 459.794 573.165C459.794 573.165 469.02 571.507 471.397 589.457Z" fill="#F7CC7F"/>
<path d="M459.558 526.895C462.599 525.756 464.089 553.128 464.499 564.394C469.888 564.911 479.28 564.398 481.616 564.222C482.718 564.14 485.254 563.212 486.347 563.07C487.467 562.923 488.485 562.847 489.036 562.942C489.237 562.978 494.853 565.271 495.333 565.774C495.93 566.397 497.54 567.97 497.267 568.65C496.998 569.331 494.171 566.755 494.171 566.755L492.79 565.982C494.509 567.658 497.787 569.867 497.318 570.671C496.854 571.456 493.899 569.214 491.788 567.686C493.598 569.317 495.843 572.236 495.327 572.691C494.86 573.1 492.305 569.721 489.575 568.748C488.564 568.388 487.552 569.386 486.757 569.507C486.171 569.596 485.27 569.784 484.694 569.621L481.738 568.784C480.73 568.875 480.705 569.47 479.687 569.686C478.507 569.937 476.569 570.201 475.066 570.569C466.403 572.681 463.516 573.662 460.864 573.661C452.833 573.655 452.367 529.588 459.558 526.895Z" fill="#F7A491"/>
<path d="M453.782 552.593C453.212 541.053 453.296 526.828 459.778 524.402C462.333 523.444 466.841 529.202 466.03 552.827C462.57 553.112 457.492 553.342 453.782 552.593Z" fill="#DD513A"/>
<path d="M504.835 629.554C504.835 629.554 503.933 632.434 505.546 634.338C507.155 636.243 513.848 638.112 514.729 639.143C515.608 640.175 515.54 641.053 515.54 641.053L496.751 640.537L496.958 634.872L497.822 630.8L504.835 629.554Z" fill="#F7A491"/>
<path d="M506.713 635.288C506.713 635.288 501.885 637.238 499.553 636.084C497.221 634.929 497.292 634.609 496.616 635.04C495.943 635.47 495.702 640.781 495.702 640.781L516.826 641.401C518.298 641.367 519.04 640.286 517.847 639.361C517.027 638.726 516.081 638.301 515.543 637.994C513.889 637.048 506.713 635.288 506.713 635.288Z" fill="#DD513A"/>
<path d="M504.121 578.728C505.574 575.676 508.877 571.703 514.688 574.096C520.23 576.378 521.717 581.986 519.97 587.729C518.22 593.473 506.708 627.232 506.306 631.874L497.114 631.934C497.114 631.934 498.786 605.203 499.196 598.741C499.59 592.525 501.607 584.008 504.121 578.728Z" fill="#F7CC7F"/>
<path d="M519.043 547.634H488.316C487.505 547.634 486.772 548.126 486.463 548.88L477.004 571.995H460.063C459.59 571.995 459.208 572.38 459.208 572.854C459.208 573.328 459.59 573.712 460.063 573.712H508.276C509.6 573.712 510.803 572.933 511.344 571.722L520.872 550.463C521.466 549.135 520.496 547.634 519.043 547.634Z" fill="black"/>
<path d="M502.499 561.095C502.293 562.133 501.388 562.827 500.48 562.645C499.575 562.464 499.005 561.474 499.212 560.436C499.422 559.398 500.326 558.704 501.234 558.885C502.139 559.067 502.709 560.056 502.499 561.095Z" fill="white"/>
<path d="M485.777 494.376C484.85 494.065 483.939 493.714 483.059 493.29C482.064 492.81 480.774 492.25 479.96 492.124C478.244 491.86 475.297 492.036 473.67 493.798C471.644 495.993 468.043 494.194 468.77 505.691C469.59 518.703 476.838 517.275 477.014 517.055C477.189 516.834 483.476 508.73 483.476 508.73C483.476 508.73 485.674 513.531 485.674 513.354C485.674 513.185 496.898 498.117 485.777 494.376Z" fill="#0E2E35"/>
<path d="M480.273 518.016L480.899 522.665C480.899 522.665 482.302 529.364 480.498 530.655C478.694 531.947 472.831 522.474 472.831 522.474L473.451 510.693L480.273 518.016Z" fill="#F7A491"/>
<path d="M473.25 514.511C474.74 518.53 478.287 521 480.805 521.958L480.273 518.016L473.451 510.693L473.25 514.511Z" fill="#F47458"/>
<path d="M479.903 497.871C483.723 497.256 487.151 500.323 487.054 504.142C487.014 505.802 486.879 507.874 486.531 510.105C485.702 515.473 482.033 520.199 479.609 519.777C477.183 519.355 471.081 514.725 472.154 507.087C472.818 502.371 475.896 498.518 479.903 497.871Z" fill="#F7A491"/>
<path d="M473.839 507.999C473.635 509.179 472.686 510 471.722 509.832C470.761 509.664 470.144 508.572 470.351 507.391C470.555 506.211 471.5 505.39 472.464 505.558C473.428 505.726 474.042 506.818 473.839 507.999Z" fill="#F7A491"/>
<path d="M472.464 505.558C472.464 505.558 475.398 506.285 476.484 504.402C477.574 502.519 481.466 498.456 486.409 500.141C491.356 501.826 482.057 496.044 481.663 496.044C481.265 496.044 476.519 496.012 476.519 496.012C476.519 496.012 472.859 499.017 472.727 499.348C472.592 499.678 471.538 503.279 471.538 503.279L472.464 505.558Z" fill="#0E2E35"/>
<path d="M477.831 513.414L483.166 514.433C483.166 514.433 482.655 516.439 480.298 516.059C477.42 515.596 477.831 513.414 477.831 513.414Z" fill="white"/>
<path d="M387.576 884.3C387.779 885.004 387.895 885.235 388.155 885.707C389.827 888.749 393.709 893.087 393.709 893.087L396.715 886.332C396.715 886.332 396.223 884.21 395.375 881.177C392.475 881.934 389.711 882.372 387.576 884.3Z" fill="#F8A492"/>
<path d="M404.793 878.442C404.793 878.442 388.042 885.645 387.5 885.507C387.153 885.416 380.631 874.519 380.559 864.269C380.528 859.536 385.452 853.841 390.945 854.969C393.712 855.535 393.668 856.304 397.76 862.24C401.852 868.177 404.793 878.442 404.793 878.442Z" fill="#13375B"/>
<path d="M419.088 1007.55L418.691 1014.13C418.544 1014.97 417.967 1017.03 417.967 1017.79C417.967 1020.64 431.511 1015.37 428.478 1014.11C428.202 1013.99 426.762 1013.13 426.671 1012.16C426.533 1010.67 426.18 1007.64 426.18 1007.64L419.088 1007.55Z" fill="#F7A491"/>
<path d="M428.443 1014.08C428.443 1014.08 425.262 1014.95 423.634 1015.17C422.006 1015.39 419.859 1013.55 418.707 1014.05C417.438 1014.59 417.489 1019.5 417.489 1019.5C417.489 1019.5 434.539 1020.9 439.336 1019.45C441.236 1018.88 434.943 1016.11 428.443 1014.08Z" fill="#DD513A"/>
<path d="M391.383 1007.55L390.982 1014.13C390.838 1014.97 390.262 1017.03 390.262 1017.79C390.262 1020.64 403.806 1015.37 400.769 1014.11C400.497 1013.99 398.631 1012.48 398.54 1011.51C398.399 1010.02 398.475 1007.64 398.475 1007.64L391.383 1007.55Z" fill="#F7A491"/>
<path d="M400.738 1014.08C400.738 1014.08 397.557 1014.95 395.929 1015.17C394.301 1015.39 392.153 1013.55 391.001 1014.05C389.732 1014.59 389.682 1019.5 389.682 1019.5C389.682 1019.5 406.812 1021.13 411.63 1019.45C413.499 1018.8 407.237 1016.11 400.738 1014.08Z" fill="#DD513A"/>
<path d="M395.522 887.942L407.451 871.256C407.501 871.112 407.61 870.812 407.776 870.355C408.377 868.699 409.626 865.254 410.716 861.828L410.726 861.79C411.07 860.593 411.793 858.505 412.494 856.483C413.274 854.235 414.242 851.446 414.276 850.972C414.248 850.89 414.192 850.743 414.117 850.549C413.678 849.418 413.086 846.717 412.877 845.545C412.745 844.798 412.611 842.979 413.502 842.979C414.899 842.979 414.235 844.795 414.88 845.926C415.115 845.169 415.594 843.666 415.848 842.147L416.082 838.599C416.127 838.333 415.842 836.376 416.824 836.376H416.871C417.752 836.442 417.733 838.521 418.099 842.04C418.215 841.634 418.33 841.146 418.418 840.699C418.409 840.459 418.584 839.399 418.716 838.843C418.54 837.861 418.644 836.314 419.689 836.46C420.212 836.533 420.168 838.693 420.168 838.693C420.165 838.987 420.134 841.268 420.15 841.722C420.256 840.956 420.676 837.689 421.496 837.689C422.175 837.689 422.232 838.567 422.216 839.264C422.209 839.674 421.781 843.213 421.759 843.626C422.079 843.088 422.457 839.971 422.776 839.971C424.101 839.971 423.622 844.404 423.133 845.557C423.09 845.676 423.04 845.907 422.983 846.176C422.817 846.967 422.541 848.289 421.847 849.474C421.014 850.896 419.865 853.16 419.689 853.507C419.561 854.213 419.16 856.755 418.659 859.952C418.443 861.319 418.208 862.819 417.964 864.373L417.952 864.369C417.905 864.707 417.657 865.776 416.712 869.787C415.422 875.276 415.287 875.513 415.231 875.613C414.671 876.604 401.809 894.041 401.261 894.785L400.938 895.222L395.522 887.942Z" fill="#F7A491"/>
<path d="M417.707 849.03C417.707 849.03 416.74 846.557 415.018 846.551C415.018 846.551 415.98 846.204 416.806 846.858C417.632 847.511 417.707 849.03 417.707 849.03Z" fill="#F47458"/>
<path d="M392.641 844.254L391.103 853.947C391.103 853.947 396.956 858.639 400.365 857.649C403.227 856.82 401.267 853.085 401.267 853.085C401.267 853.085 399.742 847.908 400.209 845.195C400.676 842.481 392.641 844.254 392.641 844.254Z" fill="#F7A491"/>
<path d="M393.744 847.183C395.208 847.877 398.108 848.817 400.365 849.049C400.149 847.689 400.027 846.254 400.209 845.195C400.425 843.944 398.828 843.647 397.05 843.691C394.717 843.888 392.641 844.254 392.641 844.254L392.344 846.117C392.789 846.583 393.255 846.954 393.744 847.183Z" fill="#FE875E"/>
<path d="M385.256 833.069C385.014 833.069 387.569 843.901 391.524 845.764C395.475 847.627 401.371 846.658 402.475 843.738C403.7 840.512 399.238 829.461 393.678 828.058C388.117 826.655 385.256 833.069 385.256 833.069Z" fill="#F7A491"/>
<path d="M389.83 823.116C386.674 824.935 385.224 827.633 384.736 828.737C383.255 829.44 381.461 830.956 380.6 835.051C379.542 840.08 383.305 843.96 387.294 845.126C391.282 846.292 391.899 848.927 391.899 848.927L392.353 846.092C392.353 846.092 391.464 843.622 390.13 842.384C388.797 841.15 390.763 839.349 390.935 837.88C391.07 836.749 390.234 834.55 390.415 832.694C390.415 832.694 392.632 829.34 394.817 828.512C398.543 827.098 393.881 820.784 389.83 823.116Z" fill="#13375B"/>
<path d="M391.511 839.765C392.028 841.015 391.815 842.259 391.038 842.541C390.262 842.819 389.213 842.034 388.696 840.784C388.18 839.534 388.39 838.29 389.169 838.008C389.946 837.726 390.994 838.514 391.511 839.765Z" fill="#F7A491"/>
<path d="M406.236 888.208L429.245 884.463C429.245 884.463 426.627 877.883 425.691 877.883C424.755 877.883 408.293 885.06 408.293 885.06L406.984 887.683L406.236 888.208Z" fill="#F8A492"/>
<path d="M394.451 903.96C394.451 903.96 392.156 915.038 393.089 923.441C394.025 931.84 394.1 961.681 394.1 961.681L390.528 1009.43L398.997 1009.61C398.997 1009.61 409.041 961.886 408.853 963.112C408.668 964.337 412.222 929.511 412.222 929.511L400.25 902.909L394.451 903.96Z" fill="#184655"/>
<path d="M396.696 903.434C396.696 903.434 395.199 913.409 397.068 917.786C398.94 922.162 413.114 965.091 413.302 968.588C413.49 972.089 418.202 1010.78 418.202 1010.78L428.049 1010.5L430.181 967.488L425.719 913.428L421.389 899.758L396.696 903.434Z" fill="#13375B"/>
<path d="M391.103 853.947C391.103 853.947 393.534 855.539 395.797 855.354C398.064 855.173 401.267 853.085 401.267 853.085L400.819 851.578C400.819 851.578 394.961 850.725 394.814 850.818C394.667 850.909 391.103 853.947 391.103 853.947Z" fill="#F7A491"/>
<path d="M416.987 877.557C416.987 877.557 425.691 885.76 429.621 884.36C433.55 882.96 435.175 878.174 425.588 871.172C417.009 864.904 416.987 877.557 416.987 877.557Z" fill="#F8A492"/>
<path d="M422.886 887.683C421.593 880.662 412.222 858.809 411.474 854.782C411.111 852.825 406.054 852.782 401.242 853.038C396.157 853.307 391.104 853.947 391.104 853.947C391.104 853.947 386.602 854.688 384.623 856.539C382.641 858.393 382.115 863.516 384.961 873.244C387.209 880.924 389.996 885.141 391.376 890.734C391.655 892.609 391.893 894.46 392.212 896.623C392.716 904.988 392.206 916.035 392.206 916.035C392.206 916.035 416.712 921.112 425.879 913.41C425.879 913.41 424.211 894.879 422.886 887.683Z" fill="#355389"/>
<path d="M429.133 872.584C429.133 872.584 419.517 880.509 418.957 880.509C418.596 880.509 405.234 870.696 402.15 862.634C400.447 858.177 404.022 853.191 408.105 853.206C410.938 853.219 412.197 853.947 417.807 858.671C423.422 863.397 429.133 872.584 429.133 872.584Z" fill="#466EB6"/>
<path d="M259.974 518.831C261.55 515.045 263.153 511.25 267.242 509.333C270.55 507.781 274.007 508.365 276.947 510.573C285.279 516.827 278.018 523.718 287.502 535.578C290.448 539.263 294.014 542.239 295.78 546.557C298.25 552.601 295.307 555.505 290.589 558.399C268.019 572.251 256.187 543.811 256.612 537.305C256.928 532.465 258.96 521.268 259.974 518.831Z" fill="#13375B"/>
<path d="M236.55 592.546C237.502 592.395 239.813 590.742 240.629 590.592C241.261 590.476 242.628 590.269 243.211 590.182C243.925 587.52 247.55 573.011 247.956 568.758C248.396 564.15 251.66 544.216 251.66 544.216L260.11 545.75C260.11 545.75 256.601 561.084 255.63 568.52C254.797 574.907 247.778 589.266 246.887 590.782C246.885 590.819 246.885 590.854 246.882 590.893C246.746 593.146 245.659 592.395 245.659 592.395L243.891 592.846C243.891 592.846 237.638 593.447 237.229 593.597C236.822 593.748 235.598 592.695 236.55 592.546Z" fill="#F7A491"/>
<path d="M259.028 532.564C253.054 534.586 249.657 550.801 249.657 550.801C249.657 550.801 259.03 553.413 261.431 552.044C261.431 552.044 264.157 539.98 265.133 540.402L259.028 532.564Z" fill="#6A97CE"/>
<path d="M212.818 620.561C210.989 625.374 210.041 630.01 209.956 630.571C209.915 630.841 210.296 632.149 210.26 632.429C206.591 637.426 201.317 638.519 196.797 638.837C199.101 636.592 202.484 634.465 202.646 633.754C202.906 632.622 204.297 627.581 204.981 620.595C207.793 621.894 209.701 620.865 212.818 620.561Z" fill="#F7A491"/>
<path d="M264.809 566.713L272.882 589.416C272.882 589.416 259.908 591.854 255.058 592.742C250.208 593.63 223.108 594.812 222.421 595.292C221.912 595.649 216.314 613.726 213.813 623.694C210.976 624.317 206.12 623.569 203.537 622.68C204.933 608.418 209.974 585.822 211.588 583.362C214.217 579.356 264.809 566.713 264.809 566.713Z" fill="#256653"/>
<path d="M233.27 630.513C232.377 635.582 232.316 640.314 232.337 640.881C232.347 641.153 232.968 642.366 232.985 642.649C230.319 648.244 225.344 650.304 220.964 651.463C222.806 648.826 225.729 646.103 225.755 645.374C225.797 644.214 226.218 639.002 225.579 632.013C228.585 632.762 230.266 631.394 233.27 630.513Z" fill="#F7A491"/>
<path d="M274.233 567.892L277.367 573.232C282.132 581.362 278.478 591.822 269.681 595.23C269.633 595.248 269.587 595.266 269.541 595.283C264.943 597.063 238.545 603.294 237.961 603.894C237.527 604.34 235.421 623.145 234.836 633.404C232.166 634.547 227.256 634.72 224.551 634.33C223.245 620.059 223.956 596.921 225.08 594.203C226.911 589.776 274.233 567.892 274.233 567.892Z" fill="#327F6B"/>
<path d="M231.933 641.038C232.636 640.263 235.216 644.529 235.861 645.439C236.586 646.463 236.38 647.235 236.293 647.394C236.064 647.817 222.457 655.809 219.138 656.379C218.826 656.432 218.282 656.235 218.145 656.114C216.848 654.968 222.818 646.504 225.498 645.392C227.231 644.673 228.771 644.526 231.933 641.038Z" fill="#13375B"/>
<path d="M209.521 630.724C210.357 630.095 212.091 634.767 212.554 635.782C213.074 636.923 212.727 637.642 212.611 637.784C212.307 638.156 197.441 643.461 194.075 643.399C193.757 643.393 193.26 643.097 193.149 642.953C192.089 641.584 199.542 634.388 202.384 633.797C204.221 633.415 205.761 633.558 209.521 630.724Z" fill="#13375B"/>
<path d="M264.693 532.517C264.539 532.518 264.317 532.464 264.091 532.393C262.981 532.195 260.556 531.905 258.668 532.7C256.373 533.666 252.815 542.702 253.027 551.975C253.112 553.393 253.199 554.662 253.272 555.548C253.851 562.552 255.864 575.698 255.972 575.767C258.711 577.527 275.232 570.705 276.368 569.206C277.505 567.708 278.175 549.5 278.726 548.592L279.812 532.756C277.896 532.185 267.631 532.496 264.693 532.517Z" fill="#9BC1F9"/>
<path d="M271.389 526.686C271.389 526.686 270.326 532.179 270.539 534.346C270.751 536.513 269.727 543.496 265.133 543.52C260.539 543.543 264.261 534.64 264.693 532.517C265.127 530.394 265.229 523.82 265.229 523.82L271.389 526.686Z" fill="#F7A491"/>
<path d="M265.134 527.118C265.205 525.32 265.229 523.82 265.229 523.82L271.389 526.686C271.389 526.686 271.172 527.809 270.953 529.24C268.256 529.781 266.302 528.784 265.134 527.118Z" fill="#F47458"/>
<path d="M273.641 511.524C273.641 511.524 276.014 512.839 276.882 515.689C277.752 518.539 276.762 525.893 270.63 527.666C264.498 529.442 261.842 523.618 263.105 519.066C264.367 514.513 267.115 508.748 273.641 511.524Z" fill="#F7A491"/>
<path d="M262.338 517.301C262.458 518.524 263.133 519.459 263.847 519.389C264.561 519.319 265.041 518.271 264.921 517.048C264.802 515.826 264.126 514.89 263.412 514.961C262.699 515.031 262.218 516.078 262.338 517.301Z" fill="#F7A491"/>
<path d="M272.922 511.152C272.922 511.152 274.033 519.356 276.691 520.836C279.345 522.316 278.234 525.956 278.234 525.956C278.234 525.956 280.645 517.506 278.544 514.792C276.443 512.078 272.922 511.152 272.922 511.152Z" fill="#13375B"/>
<path d="M275.115 522.014C274.396 523.083 274.399 524.342 275.122 524.83C275.845 525.315 277.016 524.843 277.736 523.774C278.456 522.705 278.456 521.445 277.73 520.959C277.007 520.473 275.836 520.945 275.115 522.014Z" fill="#F7A491"/>
<path d="M266.182 522.47L270.504 523.556C270.504 523.556 269.985 525.195 268.07 524.773C265.735 524.259 266.182 522.47 266.182 522.47Z" fill="white"/>
<path d="M287.639 591.861C287.846 591.851 306.271 590.926 306.271 590.926C306.271 590.926 298.626 596.411 298.469 596.411C298.313 596.411 292.379 594.074 292.12 594.074C291.86 594.074 287.639 591.861 287.639 591.861Z" fill="#50BFA5"/>
<path d="M660.671 1007.82L661.041 1014.29C661.176 1015.11 661.705 1017.13 661.705 1017.88C661.705 1020.67 649.272 1015.5 652.058 1014.26C652.31 1014.15 653.626 1013.3 653.715 1012.35C653.844 1010.88 654.167 1007.91 654.167 1007.91L660.671 1007.82Z" fill="#F7A491"/>
<path d="M651.94 1014.29C651.94 1014.29 654.854 1015.14 656.352 1015.36C657.845 1015.57 659.813 1013.77 660.877 1014.26C662.04 1014.79 661.993 1019.61 661.993 1019.61C661.993 1019.61 646.341 1020.99 641.94 1019.57C640.195 1019 645.97 1016.28 651.94 1014.29Z" fill="#F7CC7F"/>
<path d="M681.377 1007.49L681.746 1013.95C681.876 1014.77 682.405 1016.8 682.405 1017.54C682.405 1020.34 669.972 1015.17 672.757 1013.93C673.01 1013.82 674.725 1012.33 674.807 1011.38C674.937 1009.91 674.866 1007.58 674.866 1007.58L681.377 1007.49Z" fill="#F7A491"/>
<path d="M672.792 1013.9C672.792 1013.9 675.707 1014.76 677.205 1014.97C678.697 1015.18 680.671 1013.38 681.723 1013.87C682.893 1014.41 682.939 1019.23 682.939 1019.23C682.939 1019.23 667.393 1019.86 662.792 1019.18C660.982 1018.91 666.823 1015.89 672.792 1013.9Z" fill="#F7CC7F"/>
<path d="M677.693 905C677.693 905 679.796 915.885 678.938 924.141C678.08 932.393 678.01 961.711 678.01 961.711L681.976 1008.6L673.515 1008.8C673.515 1008.8 664.296 961.914 664.467 963.118C664.637 964.322 661.376 930.105 661.376 930.105L672.363 903.969L677.693 905Z" fill="#355389"/>
<path d="M674.743 897.973C674.743 897.973 684.285 908.011 680.736 918.974C679.308 923.378 666.006 965.45 665.836 968.889C665.665 972.327 661.335 1010.34 661.335 1010.34L652.298 1010.06L650.342 967.804L652.927 910.865L658.415 901.262L674.743 897.973Z" fill="#466EB6"/>
<path d="M616.792 865.301C619.918 861.818 626.716 856.864 626.716 856.864C626.716 856.864 630.77 853.41 632.421 852.841C634.854 852.003 639.02 849.771 645.048 858.887C649.355 865.41 676.559 899.186 681.024 900.321L651.863 914.25C651.065 907.598 636.652 895.029 634.578 892.684C629.942 887.445 613.831 868.599 616.792 865.301Z" fill="#F47458"/>
<path d="M618.15 851.15L627.233 856.457C627.233 856.457 627.492 864.201 624.519 866.21C622.028 867.899 620.135 863.847 620.135 863.847C620.135 863.847 616.757 859.174 614.19 857.72C611.622 856.264 618.15 851.15 618.15 851.15Z" fill="#F7A491"/>
<path d="M619.671 854.557C619.331 856.173 618.543 858.508 617.316 860.43C616.317 859.349 615.189 858.289 614.19 857.72C613.003 857.049 613.761 855.598 614.912 854.229C616.546 852.535 618.15 851.15 618.15 851.15L619.895 852.168C620.007 852.831 619.789 854.019 619.671 854.557Z" fill="#F47458"/>
<path d="M613.42 837.843C613.573 837.655 621.04 846.936 620.118 851.287C619.196 855.642 614.683 859.612 611.546 858.52C608.079 857.311 601.622 846.385 603.937 841.081C606.252 835.779 613.42 837.843 613.42 837.843Z" fill="#F7A491"/>
<path d="M605.241 834.917C608.502 833.107 613.808 832.587 617.78 834.664C622.656 837.211 623.767 843.628 622.239 847.542C620.712 851.456 622.462 853.666 622.462 853.666L619.871 852.159C619.871 852.159 618.361 849.803 618.162 847.927C617.962 846.048 615.224 846.383 613.884 845.529C612.85 844.873 611.54 842.744 609.865 841.637C609.865 841.637 605.67 841.125 603.602 842.282C600.082 844.254 600.582 837.505 605.241 834.917Z" fill="#13375B"/>
<path d="M615.981 847.095C615.958 848.486 616.616 849.624 617.456 849.639C618.29 849.653 618.99 848.536 619.013 847.142C619.037 845.751 618.379 844.61 617.544 844.598C616.704 844.585 616.005 845.701 615.981 847.095Z" fill="#F7A491"/>
<path d="M608.332 854.482L612.286 851.531C612.286 851.531 613.332 853.128 611.633 854.476C609.56 856.12 608.332 854.482 608.332 854.482Z" fill="white"/>
<path d="M598.408 913.194C599.395 911.749 599.83 909.665 601.199 908.073C601.657 907.538 602.386 906.938 603.22 906.338C609.806 902.49 626.969 892.572 627.633 891.803C628.426 890.889 640.136 871.465 640.136 871.465L629.619 869.086L619.337 887.207C618.479 887.886 602.168 899.927 602.168 899.927C602.168 899.927 598.925 902.456 597.145 903.64C596.252 904.163 595.382 904.5 594.624 904.766C593.666 905.097 591.845 906.007 591.475 906.329C591.046 906.707 590.188 907.51 589.677 908.001C589.166 908.495 588.548 909.048 588.314 909.342C588.167 909.521 587.714 909.764 587.385 909.93C586.892 910.174 586.956 910.902 587.485 911.052C587.984 911.193 588.66 910.881 589.077 910.686C590.258 910.13 591.704 908.636 591.78 908.817C591.851 909.002 590.387 912.206 590.241 912.584C590.1 912.962 588.419 916.698 588.331 917.529C588.243 918.364 588.748 918.555 589.125 918.252C589.448 917.989 592.15 913 592.15 913C592.15 913 592.497 912.365 592.632 912.728C592.767 913.093 590.317 917.626 590.076 918.37C589.841 919.114 590.029 919.724 590.717 919.464C591.557 919.145 593.872 914.147 593.872 914.147C593.872 914.147 594.171 913.525 594.377 913.74C594.583 913.956 592.438 917.779 592.415 918.22C592.385 918.661 592.791 919.096 593.367 918.727C594.048 918.292 596.075 913.812 596.075 913.812C596.075 913.812 596.328 913.515 596.404 913.725C596.481 913.931 594.888 917.323 595.006 917.817C595.106 918.233 595.482 918.148 595.482 918.148C596.316 918.148 597.415 914.638 598.408 913.194Z" fill="#F8A492"/>
<path d="M637.257 881.728C637.257 881.728 633.831 880.64 631.634 879.633C630.165 878.961 623.743 875.773 623.743 875.773C623.743 875.773 626.511 864.119 628.379 859.927C635.247 844.551 643.044 855.157 644.102 857.63C646.476 863.157 637.257 881.728 637.257 881.728Z" fill="#355389"/>
<path d="M398.014 841.459L401.273 839.024C401.273 839.024 402.137 840.34 400.735 841.453C399.025 842.809 398.014 841.459 398.014 841.459Z" fill="white"/>
<path d="M306.694 590.908C306.616 590.712 306.444 590.708 306.268 590.703C304.559 590.65 302.849 590.573 301.155 590.321C300.871 590.278 300.592 590.215 300.332 590.111C299.86 589.923 299.396 589.928 298.917 590.059C298.661 590.13 298.398 590.144 298.131 590.142C297.273 590.139 294.819 589.306 293.56 589.086C293.272 589.035 293.044 588.818 292.971 588.536C291.731 583.64 289.073 572.657 288.729 569.045C288.287 564.427 285.094 543.604 285.094 543.604L276.547 545.983C276.547 545.983 280.063 561.354 281.036 568.807C281.788 574.562 287.549 586.775 289.355 590.287C290.235 592.9 292.217 592.973 292.674 593.029C292.937 593.061 293.181 593.19 293.353 593.391C293.664 593.754 294.02 594.07 294.43 594.328C294.734 594.518 294.966 594.767 295.166 595.059C295.529 595.588 295.855 596.141 296.178 596.696C296.39 597.064 296.612 597.18 296.929 597.094C297.267 597.001 297.43 596.751 297.423 596.337C297.414 595.728 297.217 595.177 296.913 594.657C296.625 594.17 296.647 593.887 296.979 593.439C297.173 593.181 297.37 592.931 297.62 592.726C297.877 592.518 298.15 592.36 298.497 592.408C299.111 592.561 299.731 592.686 300.36 592.755L300.877 592.86L301.159 592.921C301.202 592.932 302.114 593.031 302.424 593.031C302.674 593.031 303.078 593.048 303.423 593.065C303.735 593.08 304.396 592.918 304.418 592.917C304.722 592.91 304.991 592.801 305.216 592.597C305.307 592.514 305.398 592.421 305.351 592.28C305.307 592.15 305.207 592.095 305.073 592.071C304.869 592.034 303.808 591.906 303.817 591.861C304.133 591.861 305.12 591.837 305.436 591.829C305.861 591.818 306.228 591.666 306.522 591.352C306.638 591.228 306.772 591.105 306.694 590.908Z" fill="#F7A491"/>
<path d="M279.915 532.723C284.133 531.957 287.615 550.801 287.615 550.801C287.615 550.801 278.241 553.413 275.839 552.044C275.839 552.044 273.114 539.98 272.137 540.402L279.915 532.723Z" fill="#9BC1F9"/>
<path d="M177.914 871.437C178.193 870.637 174.303 869.993 174.096 869.186C173.889 868.377 179.009 868.314 179.192 867.605C179.53 866.298 173.581 867.33 173.698 866.717C173.815 866.107 179.897 864.741 179.24 863.691C178.582 862.64 173.081 865.763 172.914 865.053C172.748 864.341 178.292 862.609 178.193 861.046C178.139 860.212 169.094 865.207 168.045 864.754C166.995 864.3 169.173 860.381 168.338 859.796C167.502 859.214 165.105 867.767 164.529 868.052C163.954 868.336 151.732 875.301 147.383 876.407C146.856 874.954 145.714 872.994 145.248 871.618C142.808 873.35 140.996 874.222 138.478 875.8C140.303 880.365 142.899 885.363 144.17 885.939C148.04 887.682 163.007 875.288 165.995 873.169C168.985 871.047 170.696 871.734 172.718 871.062C174.74 870.393 177.635 872.234 177.914 871.437Z" fill="#F7A491"/>
<path d="M137.956 877.992C137.956 877.992 134.606 863.222 135.187 858.936C135.768 854.65 140.87 850.658 144.404 852.137C147.939 853.622 149.541 874.241 149.541 874.241L137.956 877.992Z" fill="#F7CC7F"/>
</g>
</g>
<defs>
<filter id="filter0_d_26_2" x="-68" y="425" width="900" height="642" filterUnits="userSpaceOnUse" color-interpolation-filters="sRGB">
<feFlood flood-opacity="0" result="BackgroundImageFix"/>
<feColorMatrix in="SourceAlpha" type="matrix" values="0 0 0 0 0 0 0 0 0 0 0 0 0 0 0 0 0 0 127 0" result="hardAlpha"/>
<feOffset dx="-5" dy="9"/>
<feGaussianBlur stdDeviation="2"/>
<feComposite in2="hardAlpha" operator="out"/>
<feColorMatrix type="matrix" values="0 0 0 0 0 0 0 0 0 0 0 0 0 0 0 0 0 0 0.5 0"/>
<feBlend mode="normal" in2="BackgroundImageFix" result="effect1_dropShadow_26_2"/>
<feBlend mode="normal" in="SourceGraphic" in2="effect1_dropShadow_26_2" result="shape"/>
</filter>
<linearGradient id="paint0_linear_26_2" x1="811.001" y1="734.298" x2="811.001" y2="1024.53" gradientUnits="userSpaceOnUse">
<stop stop-color="#23CCDF"/>
<stop offset="1" stop-color="#33F7A3"/>
</linearGradient>
<clipPath id="clip0_26_2">
<rect width="1440" height="1024" fill="white"/>
</clipPath>
</defs>
</svg>
