<svg width="1440" height="1024" viewBox="0 0 1440 1024" fill="none" xmlns="http://www.w3.org/2000/svg">
<g clip-path="url(#clip0_33_3)">
<rect width="1440" height="1024" fill="#23CCDF"/>
<path d="M1752.06 911.983C1701.79 885.542 1488.9 848.335 1397.46 868.125C1306.01 887.915 1219.53 947.274 1128.08 967.064C1036.64 986.854 940.371 968.193 841.918 932.081C743.325 894.85 646.975 875.509 553.427 878.528C460.02 882.665 360.695 929.874 266.167 925.067C171.778 921.378 84.8517 886.94 35.5552 868.324L-13.7412 849.709" stroke="white" stroke-width="2"/>
<path d="M1731.84 955.243C1684.7 923.849 1477.02 865.262 1383.94 875.673C1290.86 886.083 1198.43 936.349 1105.35 946.76C1012.27 957.17 918.557 928.852 824.553 882.956C730.532 835.933 636.805 806.929 543.448 800.447C450.11 795.092 346.229 831.972 252.742 817.608C159.274 804.37 76.5527 761.306 29.5419 737.795L-17.4689 714.284" stroke="white" stroke-width="5"/>
<path d="M1726.46 943.743C1676.21 917.613 1463.42 881.753 1372 902.136C1280.59 922.519 1194.12 982.454 1102.7 1002.84C1011.28 1023.22 915.064 1005.17 816.661 969.672C718.119 933.057 621.812 914.325 528.3 917.944C434.928 922.68 335.627 970.543 241.138 966.339C146.787 963.252 59.9058 929.356 10.6347 911.049L-38.6364 892.742" stroke="white" stroke-width="5"/>
<g filter="url(#filter0_d_33_3)">
<path fill-rule="evenodd" clip-rule="evenodd" d="M653.152 823.985C665.177 821.185 647.838 818.572 683.076 822.119C681.398 825.292 679.72 827.345 677.203 829.585C671.889 828.465 657.067 826.785 653.152 823.985ZM219.108 624.079C228.057 625.572 222.464 625.946 231.134 623.519L225.54 637.705L219.108 624.079ZM334.89 589.175C331.814 587.868 331.814 588.242 330.695 584.882C333.771 585.815 333.492 586.188 334.89 589.175ZM250.71 576.669L247.075 578.722C245.676 577.789 245.397 581.522 246.236 576.296C223.303 583.389 132.411 547.365 79.8335 559.31C52.7059 565.283 37.3242 582.455 24.4592 597.761C-2.66836 629.679 -5.46516 667.009 7.67944 708.073C11.315 719.832 17.7473 732.525 16.6285 746.337C12.993 786.281 -38.7454 827.718 -9.10067 890.06C-4.34644 900.326 4.32329 910.406 11.8743 916.005C28.3747 928.511 40.1206 926.645 43.4768 932.058C45.7142 928.138 49.6294 873.075 51.0278 862.996C53.8243 840.037 58.5788 817.452 61.3753 795.427C62.494 788.148 60.2569 780.495 59.1382 773.589L53.5449 770.602C51.8668 772.095 52.9856 771.535 49.6294 771.722C46.5529 768.176 32.2899 762.203 26.9764 742.977C14.3914 695.754 75.0793 657.677 96.0542 663.836V659.917C80.3928 657.303 84.5877 655.064 80.3928 653.944L77.5961 653.57C84.5877 598.508 122.063 597.388 129.334 624.452C133.809 640.878 130.453 633.972 137.725 654.504C132.97 657.677 133.809 655.81 131.292 652.077C131.292 656.557 132.131 655.064 130.174 656.93L115.631 660.103V662.716C128.496 660.85 143.038 671.116 148.072 676.902C151.988 681.195 154.784 684.555 157.861 690.155C160.378 694.447 164.573 700.607 165.412 705.833L173.522 704.527L176.039 700.42C178.836 699.674 172.124 704.9 179.395 696.874L188.065 702.287L192.819 701.727C192.26 684.368 199.531 672.982 210.718 667.196C239.803 652.264 270.846 683.248 257.142 711.433C251.549 723.379 241.481 730.285 224.142 731.032C225.54 748.39 229.176 762.949 231.693 780.122C235.049 814.466 245.397 807.933 197.294 815.586C184.149 817.639 170.725 819.692 157.581 821.932C163.734 857.769 167.649 879.794 172.124 915.072L174.081 921.978L173.802 918.432C191.7 914.326 241.202 898.273 257.142 901.26L247.914 890.807L259.38 894.54C256.583 890.994 252.388 892.114 247.914 888.194L276.719 884.274L287.347 894.354L284.27 884.274L311.957 885.768C315.593 885.208 313.076 886.328 315.313 884.461L311.118 877.555L330.136 877.181C324.822 874.008 317.83 871.395 311.398 868.969C306.364 867.102 305.805 868.035 303.567 862.809C296.576 847.69 290.143 826.971 285.669 810.919C286.787 809.053 284.83 810.359 287.067 809.799C287.067 809.613 286.787 809.239 286.787 809.426C285.669 811.853 282.872 799.907 282.592 798.227L295.457 802.707C293.22 801.773 291.262 800.84 288.745 799.72C278.956 795.427 283.152 801.4 275.321 760.336L280.075 765.002C280.355 765.189 280.635 765.562 280.635 765.749C280.914 765.749 281.194 766.122 281.474 766.309C279.796 762.576 278.397 761.83 276.999 758.656C284.27 761.27 310.559 771.722 312.796 779.188C314.474 784.601 314.474 789.268 316.712 795.054L319.508 781.055C328.458 785.161 338.806 795.054 346.077 800.653C357.823 809.239 348.594 826.598 353.348 840.411L352.509 807.373C355.585 809.239 354.467 809.426 357.823 811.106V805.693C358.662 792.254 355.865 769.482 355.306 755.11C354.187 738.684 348.873 662.343 349.433 653.197C350.551 633.225 368.73 635.465 387.188 634.905C406.764 631.358 412.078 639.945 412.358 628.372C412.358 588.615 419.909 597.014 376.56 597.014C378.798 582.455 387.188 579.469 402.57 579.469H486.749C496.258 579.469 521.428 577.229 524.784 582.642C525.344 585.068 527.86 587.308 530.098 588.988C532.895 591.228 527.86 588.988 532.335 590.295C534.013 591.228 533.174 589.735 534.293 592.535C535.132 594.214 534.852 594.588 535.132 596.268C538.208 637.145 525.064 634.158 551.353 634.158C562.26 634.345 568.972 637.518 572.887 644.798C575.404 649.464 575.124 653.197 575.124 658.797C574.845 662.716 575.684 668.689 573.446 671.862C574.285 679.889 573.167 688.848 572.887 697.061C572.887 700.794 572.887 704.713 572.607 708.447C572.607 713.299 571.489 716.659 574.285 718.899L572.887 745.59C576.802 742.044 577.641 738.871 581.836 734.205C582.116 734.018 582.396 733.831 582.675 733.458C582.675 733.085 582.955 733.085 583.235 732.898C584.913 744.471 586.311 756.23 587.709 767.989C588.548 773.402 589.108 779.562 590.226 785.348C591.625 795.614 590.786 793.374 588.269 802.147C591.065 799.16 596.379 787.028 597.498 783.295L594.421 788.334C593.023 790.761 593.582 790.201 591.904 792.254C590.226 773.589 586.87 754.55 584.353 735.698C583.514 729.352 585.752 728.792 588.828 724.872C593.303 719.086 605.888 704.153 611.481 701.54L616.795 714.419L617.913 694.447C627.142 689.221 637.211 677.462 649.236 672.796L646.16 680.822C647.558 679.515 646.16 681.009 647.838 678.769L650.914 673.915C652.313 695.754 648.117 763.696 640.007 781.428C637.77 786.281 622.388 793.187 617.354 797.854L635.532 795.24L633.015 803.267C636.371 804.387 656.787 798.227 663.219 797.48L662.94 805.88L667.135 800.653C672.728 793.187 683.076 794.68 697.898 795.054L698.737 796.734C698.737 796.92 699.017 797.107 699.017 797.294L696.78 803.267C694.263 807.373 693.983 810.173 687.551 810.359L689.229 813.159C689.508 815.772 686.991 815.959 685.033 821.185C680.839 820.625 666.016 820.065 665.737 818.385L665.177 816.705C665.177 816.705 665.177 816.332 665.177 816.145L654.829 822.492C653.711 823.239 653.431 823.612 653.152 823.985C647.558 825.105 647.838 826.785 646.999 827.531C655.668 824.732 667.415 828.838 676.364 830.331C672.448 836.864 669.372 839.104 664.618 844.33L637.77 868.782C632.176 872.888 622.108 870.462 613.439 870.648C614.837 872.142 612.6 870.648 616.236 872.888C619.591 874.942 621.549 874.195 624.625 877.741C616.795 881.288 609.803 885.394 600.574 888.567C588.269 892.487 581.557 891.554 568.972 893.234L568.133 901.633C565.616 902.38 566.455 912.272 566.455 915.259C579.878 914.885 608.964 914.885 622.668 917.685C627.142 918.618 626.863 918.618 628.82 921.232C629.659 924.031 628.541 923.471 630.778 925.338C650.355 913.952 653.711 915.445 674.686 898.086C699.297 877.741 725.026 836.864 719.153 801.587C712.721 763.882 671.609 756.23 664.338 714.046C657.626 674.662 685.872 634.532 637.211 572.936C631.617 565.843 625.185 560.057 620.151 553.897C616.236 552.031 611.481 546.805 605.608 542.138C567.573 512.833 518.352 500.514 469.69 501.261C411.519 504.247 370.687 543.818 318.39 565.843C310 569.389 312.517 566.963 306.364 565.843C303.288 571.256 311.398 569.203 298.813 572.563C289.025 575.176 257.422 581.522 250.71 576.669Z" fill="#F2F9FF"/>
<path fill-rule="evenodd" clip-rule="evenodd" d="M451.232 945.683C444.24 947.55 428.579 947.55 421.867 945.683C420.748 942.323 419.07 934.671 421.028 929.818C423.265 923.658 449.274 924.591 451.791 928.884C454.028 933.177 452.071 942.51 451.232 945.683ZM472.487 926.085C493.182 926.085 495.14 924.218 495.14 937.657C495.14 949.043 491.224 946.803 471.368 946.803C462.978 946.803 462.978 943.257 463.258 935.604C463.258 928.511 465.215 926.085 472.487 926.085ZM506.326 927.951C505.487 928.698 505.487 925.525 504.369 931.311C503.53 936.164 504.369 943.443 507.725 947.55C500.733 947.363 499.055 944.563 499.055 937.844C498.775 929.818 498.216 927.018 505.208 925.151C506.606 926.831 506.047 924.778 506.326 927.951ZM464.656 947.55C457.944 947.55 456.266 944.563 456.266 937.844C455.986 928.698 455.707 926.085 464.097 925.151C461.3 931.684 459.901 942.51 464.656 947.55ZM422.146 947.363C414.595 947.737 413.477 944.937 413.477 937.844C413.197 928.698 412.918 926.085 421.308 925.151C418.511 931.684 416.833 942.323 422.146 947.363ZM506.326 908.166C506.047 902.38 505.487 895.66 507.445 890.62C513.318 888.754 529.259 888.194 535.412 890.247C539.886 895.287 538.768 905.739 534.852 909.472C530.098 910.592 524.505 910.032 519.471 910.032C507.165 910.032 512.199 909.472 506.326 908.166ZM472.487 910.032C464.656 910.032 463.258 907.046 463.258 899.393C463.258 891.18 463.817 889.314 472.487 889.314C490.945 889.314 495.14 887.26 495.14 898.273C495.14 911.899 493.741 910.032 472.487 910.032ZM429.977 910.032C421.308 910.032 420.469 907.606 420.469 899.393C420.469 890.994 420.748 889.314 429.977 889.314C442.562 889.127 439.206 888.38 451.232 890.434C454.028 912.646 452.91 910.032 429.977 910.032ZM506.326 908.166C506.047 911.152 506.326 909.472 505.208 910.966C498.216 909.099 498.775 906.299 499.055 898.273C499.055 891.554 500.733 888.754 507.445 888.567C504.369 892.3 503.25 899.206 504.369 904.806C505.767 912.086 504.648 906.673 506.326 908.166ZM464.097 910.966C455.707 910.032 455.986 907.419 456.266 898.273C456.266 891.554 457.944 888.567 464.656 888.567C459.622 893.607 461.3 904.433 464.097 910.966ZM421.308 910.966C412.918 910.032 413.197 907.419 413.477 898.273C413.477 891.554 415.155 888.38 421.867 888.754C416.553 893.42 418.511 904.619 421.308 910.966ZM535.412 872.515C531.496 873.822 513.877 874.382 509.962 872.888C504.089 871.022 504.368 855.716 509.403 853.476C511.92 852.356 531.496 852.17 534.293 853.29C539.607 855.156 539.327 868.035 535.412 872.515ZM464.656 872.142C463.258 868.408 461.859 860.196 464.097 855.903C466.614 851.236 474.724 852.73 480.317 852.73C485.631 852.73 493.462 851.236 494.86 857.209C495.979 862.249 495.699 868.782 492.623 872.515C486.75 874.568 470.529 874.008 464.656 872.142ZM421.867 872.328C414.316 849.37 428.859 852.73 436.41 852.73C441.723 852.73 450.113 851.236 451.791 856.463C453.469 860.756 452.35 868.968 450.952 872.328C443.961 874.195 429.138 874.195 421.867 872.328ZM499.055 862.249C499.055 854.41 499.055 852.73 506.886 851.796L506.047 853.85C505.767 854.223 505.767 854.41 505.487 854.783C503.25 860.009 503.53 869.715 507.445 874.195C499.055 874.008 499.055 869.528 499.055 862.249ZM456.266 861.129C456.266 854.036 457.105 852.543 464.097 851.796L463.258 853.663C460.74 859.263 460.181 869.528 464.656 874.195C455.707 874.195 456.266 868.782 456.266 861.129ZM413.477 861.129C413.477 853.85 414.316 852.543 421.308 851.796L420.469 853.663C417.672 859.263 417.672 870.275 421.867 874.195C412.918 874.382 413.477 868.595 413.477 861.129ZM506.326 834.811C506.047 829.025 505.487 822.492 507.445 817.452C513.318 815.399 529.259 815.025 535.412 816.892C539.886 822.119 538.768 832.384 534.852 836.117L506.326 834.811ZM471.368 836.677C464.097 836.677 463.258 832.944 463.258 826.225C463.258 818.759 463.258 815.959 471.368 815.959C491.224 815.959 495.14 813.906 495.14 825.105C495.14 838.544 493.741 836.677 471.368 836.677ZM428.859 836.677C421.308 836.677 420.469 833.131 420.469 826.225C420.469 818.572 420.469 815.959 428.859 815.959C440.884 815.959 440.045 815.026 451.232 817.079C454.308 839.291 452.63 836.677 428.859 836.677ZM506.326 834.811C506.047 837.797 506.606 835.931 505.208 837.611C498.216 835.931 498.775 832.944 499.055 825.105C499.055 818.199 500.733 815.399 507.445 815.212C504.928 818.385 504.369 819.319 504.369 825.105C504.089 839.291 505.487 834.064 506.326 834.811ZM464.097 837.611C455.427 836.677 455.986 833.691 456.266 825.105C456.266 818.012 457.385 815.212 464.656 815.399C459.901 820.252 461.3 831.078 464.097 837.611ZM421.308 837.611C412.918 836.864 413.197 834.064 413.477 825.105C413.477 818.012 414.595 815.025 421.867 815.399C416.553 819.879 418.511 831.451 421.308 837.611ZM546.598 699.487C550.234 699.487 548.836 695.754 549.116 703.407L547.717 740.364C546.598 790.574 552.192 779.935 497.656 780.121C495.699 780.121 491.784 780.495 489.826 780.308C485.631 779.935 485.351 781.428 485.911 778.068C483.673 779.001 480.038 779.935 476.122 779.188C465.495 777.135 469.69 775.268 443.961 776.948C440.045 777.135 442.003 776.948 438.647 777.882C430.536 780.495 405.367 779.561 403.688 777.882C401.451 772.655 398.375 689.221 400.332 685.115C405.087 680.635 428.579 682.875 436.41 682.875C452.91 682.875 544.641 681.382 547.437 684.555C549.675 687.168 549.116 694.821 546.598 699.487ZM403.129 984.88C409.002 988.054 492.063 986.374 510.801 986.374C519.191 986.374 521.988 987.12 529.818 984.88C534.573 983.574 534.852 984.321 547.437 984.321L547.158 974.801L535.691 972.188V955.203C549.395 951.843 547.437 955.763 547.158 939.897L537.929 938.404C537.929 947.737 534.573 946.99 526.183 946.803C519.75 946.803 512.479 947.363 507.445 945.497C505.487 940.457 505.767 933.737 506.326 927.951C516.954 924.591 515.555 925.898 529.818 925.898C529.818 920.298 528.7 919.738 534.014 918.245C536.81 917.498 541.285 916.939 544.361 916.565C551.353 915.819 559.183 915.445 566.455 915.259C566.455 912.272 565.616 902.38 568.133 901.633C564.497 898.46 567.573 902.193 566.175 898.46C565.336 896.966 565.336 896.78 565.336 895.1L566.734 855.716C566.455 839.664 567.573 825.851 567.573 809.799C567.573 801.213 568.692 794.867 568.692 786.841L569.811 728.792C570.091 716.472 570.37 719.086 574.285 718.899C571.489 716.659 572.607 713.299 572.607 708.446C572.887 704.713 572.887 700.794 572.887 697.061C573.167 688.848 574.285 679.889 573.446 671.862C571.769 659.543 583.235 629.305 535.132 636.398V655.437L546.319 657.117L546.039 663.649C539.327 666.076 409.002 666.263 400.892 663.836C399.493 653.57 404.527 657.117 412.079 655.25V636.398C403.688 634.905 388.027 634.905 382.154 639.571C374.044 645.544 374.603 653.757 374.883 666.449L383.832 960.802C384.112 972.188 387.747 977.414 396.137 981.147C407.324 986 508.284 983.387 528.979 983.387C526.742 985.067 527.022 985.254 520.589 985.254C484.512 985.067 435.571 986.187 403.129 984.88Z" fill="#DCE8FF"/>
<path fill-rule="evenodd" clip-rule="evenodd" d="M75.6388 797.48L74.7998 789.641C82.6305 788.894 99.1306 784.601 105.843 785.908L106.402 793.374C101.088 795.24 80.6727 798.414 75.6388 797.48ZM179.955 798.227C176.319 787.401 183.59 789.641 193.938 788.148C200.93 787.028 212.116 784.415 218.549 784.788C221.345 794.121 221.345 792.628 204.286 795.24C198.133 796.174 185.268 799.16 179.955 798.227ZM142.2 780.122L143.598 787.774L112.835 792.628C110.597 781.428 112.555 783.855 123.462 782.175C128.776 781.242 137.445 778.442 142.2 780.122ZM148.912 778.255L179.116 773.402C180.234 777.695 180.794 778.255 179.675 781.615C174.641 783.668 167.369 784.041 161.217 784.975C152.267 786.468 147.793 789.454 148.912 778.255ZM186.387 779.935L185.268 772.282C193.379 771.349 209.04 767.243 216.311 768.362L217.15 775.829C211.837 777.695 190.862 781.055 186.387 779.935ZM75.3591 739.245C75.3591 737.751 73.9607 736.258 80.6727 735.325C88.2237 734.391 99.1306 731.592 103.046 734.578C105.004 736.258 104.444 733.458 106.123 743.164C106.402 746.711 107.241 748.391 106.402 751.75C102.487 755.11 84.0285 758.47 77.8759 756.977C76.1982 755.857 74.2404 746.151 74.2404 744.097C73.9607 739.058 74.7998 740.178 75.3591 739.245ZM60.5368 762.39C65.291 765.376 65.291 764.629 71.1639 766.123C71.1639 768.176 72.5623 764.629 70.6046 767.056C70.0452 767.802 69.7655 767.989 68.6471 769.109L73.681 770.789C72.5623 778.815 72.2827 774.149 74.2404 777.882C60.8164 778.068 72.5623 779.935 59.1384 773.589C60.2571 780.495 62.4942 788.148 61.3755 795.427C63.3332 797.294 62.2145 795.427 63.3332 798.974C63.3332 799.907 63.8926 802.707 63.8926 803.64C64.7316 808.68 65.291 810.173 64.452 815.212L65.5707 817.079C71.1639 826.038 59.418 840.224 91.5796 831.451C106.402 827.532 117.309 827.158 131.572 825.292C139.123 824.359 144.157 822.492 151.428 821.372C165.412 819.132 179.116 816.892 193.099 814.839C240.083 807.373 235.329 812.599 231.134 787.401C231.134 786.468 230.574 784.228 230.854 783.482C230.854 783.295 230.854 782.922 230.854 782.548L231.693 780.122C229.176 762.95 225.54 748.391 224.142 731.032C205.684 728.232 197.014 719.273 192.819 701.727L188.065 702.287L173.522 704.527L165.412 705.833L138.564 710.127L135.767 692.208C134.369 694.448 134.089 692.768 135.767 701.167C136.326 703.967 136.606 707.327 137.445 709.753C128.776 712.74 110.038 714.606 100.249 716.099L71.7233 720.766C69.2062 720.953 69.2062 721.139 66.9691 720.766L63.8926 719.459C59.9774 722.819 56.3416 732.152 56.0619 739.805C56.0619 748.391 61.9348 756.417 60.5368 762.39Z" fill="#6D91F0"/>
<path fill-rule="evenodd" clip-rule="evenodd" d="M153.945 968.642L154.225 970.882C157.581 969.575 159.259 971.068 162.895 972.935C167.929 975.548 168.768 974.241 166.251 979.468C167.09 978.348 167.09 978.348 167.929 977.601C169.047 976.481 168.488 977.041 169.607 976.108C170.446 977.415 169.886 976.668 170.725 978.348L171.565 980.401C171.565 980.401 170.725 973.495 179.955 980.961C182.192 983.014 183.87 985.441 182.192 989.733C176.319 991.227 137.725 991.04 132.97 989.547C132.131 986.374 132.691 983.201 133.25 979.281C134.648 970.695 135.767 972.375 136.886 971.441L137.165 969.202C125.14 969.388 79.8335 972.935 72.2825 969.948C74.52 973.308 76.4774 973.868 80.3929 974.801C79.8335 978.721 80.6726 978.908 78.4352 979.654C84.0284 978.721 76.7571 978.161 83.4694 976.108C84.8675 979.654 84.8675 979.094 82.91 981.521L86.2658 977.415C91.5794 980.028 98.8508 981.894 95.4949 989.36C90.7407 991.6 54.104 990.667 46.2733 989.92C44.8752 983.761 47.1124 977.415 48.2311 971.628C40.1207 973.868 -15.8126 976.108 -36.7876 978.721C-41.2624 979.281 -45.737 980.028 -49.9322 980.774C-58.0426 982.454 -58.8816 982.267 -60 985.814C-27.8385 1008.77 692.025 1010.64 710.763 984.694C701.254 976.108 656.787 978.908 646.16 973.868L646.719 990.293C624.905 996.64 578.76 996.08 553.87 991.787C547.158 990.48 547.437 990.853 547.437 984.321C534.852 984.321 534.573 983.574 529.818 984.881C521.988 987.121 519.191 986.374 510.801 986.374C492.063 986.374 409.002 988.054 403.129 984.881L400.332 984.507C391.103 984.134 382.713 985.627 375.722 980.961C372.925 979.094 371.247 977.415 369.569 974.055L366.213 963.975L365.374 966.402L153.945 968.642Z" fill="#E9EBF2"/>
<path fill-rule="evenodd" clip-rule="evenodd" d="M65.5705 817.079L55.5024 885.208C52.9856 909.659 50.1888 933.178 48.5107 958.562L51.3075 960.429L69.2061 963.602C76.198 963.789 83.7487 964.349 90.1813 962.295L94.6559 933.178L107.8 830.145C107.8 843.771 111.716 865.796 113.394 879.981C115.631 896.78 118.148 913.392 120.945 930.004L126.818 962.855L136.326 964.535C146.115 965.469 154.505 966.402 164.293 965.095L177.158 962.855C176.598 954.083 172.124 927.951 174.081 921.978L172.124 915.072C167.649 879.795 163.734 857.769 157.581 821.932C170.725 819.692 184.149 817.639 197.294 815.586C245.397 807.933 235.049 814.466 231.693 780.122L230.854 782.548C230.854 782.921 230.854 783.295 230.854 783.481C230.574 784.228 231.134 786.468 231.134 787.401C235.328 812.599 240.083 807.373 193.099 814.839C179.115 816.892 165.412 819.132 151.428 821.372C144.157 822.492 139.123 824.359 131.572 825.292C117.309 827.158 106.402 827.531 91.5794 831.451C59.4179 840.224 71.1638 826.038 65.5705 817.079Z" fill="#3F5A9F"/>
<path fill-rule="evenodd" clip-rule="evenodd" d="M466.054 699.86C505.207 692.021 518.072 752.87 477.52 761.083C437.528 769.296 423.824 708.26 466.054 699.86ZM485.911 778.068C495.14 778.442 537.09 779.562 542.683 777.322C543.242 776.575 543.242 776.948 544.081 775.268C545.48 770.602 547.158 702.287 546.598 699.487C549.115 694.821 549.674 687.168 547.437 684.555C544.641 681.382 452.91 682.875 436.41 682.875C428.579 682.875 405.087 680.635 400.332 685.115C398.375 689.221 401.451 772.655 403.688 777.882C405.366 779.562 430.536 780.495 438.647 777.882C442.003 776.948 440.045 777.135 443.961 776.948C469.69 775.268 465.495 777.135 476.122 779.188C480.038 779.935 483.673 779.002 485.911 778.068Z" fill="#FDFEFF"/>
<path fill-rule="evenodd" clip-rule="evenodd" d="M532.335 590.295C527.861 588.988 532.895 591.228 530.098 588.988C527.861 587.308 525.344 585.069 524.784 582.642C514.437 579.095 421.028 580.402 403.409 580.962C415.994 592.535 413.197 592.161 413.197 617.173C413.197 632.478 413.197 647.784 413.197 663.276H534.013C534.013 648.344 535.691 600.934 532.335 590.295Z" fill="#FDFDFF"/>
<path fill-rule="evenodd" clip-rule="evenodd" d="M574.285 718.899C570.37 719.086 570.09 716.473 569.811 728.792L568.692 786.841C568.692 794.867 567.573 801.213 567.573 809.799C567.573 825.851 566.455 839.664 566.734 855.716L565.336 895.1C565.336 896.78 565.336 896.967 566.175 898.46C567.573 902.193 564.497 898.46 568.133 901.633L568.972 893.234C571.489 869.715 565.895 852.17 574.285 842.651C579.879 836.117 582.396 834.438 587.43 832.011C590.226 830.705 588.548 831.638 590.226 830.331L626.583 809.239C633.295 807.186 632.176 808.679 633.015 803.267L635.533 795.24L617.354 797.854C622.388 793.187 637.77 786.281 640.007 781.428C648.117 763.696 652.313 695.754 650.914 673.915L647.838 678.769C646.16 681.009 647.558 679.515 646.16 680.822L649.236 672.796C637.211 677.462 627.143 689.221 617.913 694.447L616.795 714.419L611.481 701.54C605.888 704.153 593.303 719.086 588.828 724.872C585.752 728.792 583.514 729.352 584.354 735.698C586.87 754.55 590.226 773.589 591.905 792.254C593.583 790.201 593.023 790.761 594.421 788.334L597.498 783.295C596.379 787.028 591.066 799.16 588.269 802.147C590.786 793.374 591.625 795.614 590.226 785.348C589.108 779.562 588.548 773.402 587.709 767.989C586.311 756.23 584.913 744.471 583.235 732.898C582.955 733.085 582.675 733.085 582.675 733.458C582.396 733.831 582.116 734.018 581.836 734.205C577.642 738.871 576.802 742.044 572.887 745.59L574.285 718.899Z" fill="#9AADE5"/>
<path fill-rule="evenodd" clip-rule="evenodd" d="M529.818 925.898C529.818 937.844 527.581 935.604 537.929 938.404L547.158 939.897C547.438 955.763 549.395 951.843 535.691 955.203V972.188L547.158 974.801L547.438 984.321C547.438 990.854 547.158 990.48 553.87 991.787C578.76 996.08 624.905 996.64 646.72 990.293L646.16 973.868L634.973 970.135V957.069L646.44 954.269L646.72 937.471C641.685 936.164 635.533 934.858 629.38 934.298L628.821 921.232C626.863 918.618 627.143 918.619 622.668 917.685C608.964 914.886 579.879 914.886 566.455 915.259C559.183 915.446 551.353 915.819 544.361 916.566C541.285 916.939 536.81 917.499 534.014 918.245C528.7 919.738 529.818 920.298 529.818 925.898Z" fill="#F49D52"/>
<path fill-rule="evenodd" clip-rule="evenodd" d="M53.5451 770.602C52.4264 768.549 55.2229 769.669 51.028 768.362C52.4264 767.616 53.8245 768.549 56.3416 766.496C59.4181 763.882 56.3416 763.696 60.5368 762.389C61.9349 756.416 56.0619 748.39 56.0619 739.804C56.3416 732.152 59.9774 722.819 63.8926 719.459L66.9691 720.766C69.2062 721.139 69.2062 720.952 71.7233 720.766L100.249 716.099C110.038 714.606 128.776 712.739 137.445 709.753C136.606 707.327 136.326 703.967 135.767 701.167C134.089 692.767 134.369 694.447 135.767 692.207L138.564 710.126L165.412 705.833C164.573 700.607 160.378 694.447 157.861 690.155C154.785 684.555 151.988 681.195 148.073 676.902C143.039 671.116 128.496 660.85 115.631 662.716C111.156 671.116 102.766 667.383 96.0544 663.836C75.0795 657.677 14.3916 695.754 26.9766 742.977C32.2901 762.203 46.5531 768.176 49.6296 771.722C52.9858 771.535 51.867 772.095 53.5451 770.602Z" fill="#FDFEFF"/>
<path fill-rule="evenodd" clip-rule="evenodd" d="M357.823 805.693C361.179 813.719 359.221 865.049 363.137 880.168L363.696 900.886L360.06 901.633L362.857 904.06C364.815 906.86 367.332 959.309 366.213 963.975L369.569 974.055C371.247 977.415 372.925 979.094 375.722 980.961C382.714 985.627 391.104 984.134 400.332 984.507C399.214 983.761 400.053 984.134 397.536 983.014L391.104 979.841C388.027 977.975 386.908 976.855 384.951 973.868C380.196 965.842 381.035 917.312 380.476 906.113C377.959 843.024 377.679 779.935 374.883 717.033C374.603 707.513 371.527 654.317 374.323 647.038C375.442 644.424 377.4 641.251 379.078 639.758L386.349 635.465C386.349 635.092 386.908 635.092 387.188 634.905C368.73 635.465 350.552 633.225 349.433 653.197C348.874 662.343 354.187 738.685 355.306 755.11C355.865 769.482 358.662 792.254 357.823 805.693Z" fill="#446BD0"/>
<path fill-rule="evenodd" clip-rule="evenodd" d="M633.015 803.267C632.176 808.679 633.295 807.186 626.583 809.239L590.226 830.331C588.548 831.638 590.226 830.705 587.43 832.011C582.396 834.438 579.879 836.117 574.285 842.651C565.895 852.17 571.489 869.715 568.972 893.234C581.557 891.554 588.269 892.487 600.574 888.567C609.803 885.394 616.795 881.288 624.625 877.741C621.549 874.195 619.591 874.942 616.236 872.888C612.6 870.648 614.837 872.142 613.439 870.648C622.108 870.462 632.176 872.888 637.77 868.782L664.618 844.33C669.372 839.104 672.449 836.864 676.364 830.331C667.415 828.838 655.668 824.732 646.999 827.531C647.838 826.785 647.558 825.105 653.152 823.985C653.431 823.612 653.711 823.239 654.829 822.492L665.177 816.146C665.177 816.332 665.177 816.706 665.177 816.706L665.737 818.385C666.016 820.065 680.839 820.625 685.033 821.185C686.991 815.959 689.508 815.772 689.229 813.159L687.551 810.359C693.983 810.173 694.263 807.373 696.78 803.267L699.017 797.294C699.017 797.107 698.737 796.92 698.737 796.734L697.898 795.054C683.076 794.68 672.728 793.187 667.135 800.653L662.94 805.88L663.219 797.48C656.787 798.227 636.371 804.387 633.015 803.267Z" fill="#BAC8F3"/>
<path fill-rule="evenodd" clip-rule="evenodd" d="M257.142 901.26L261.338 901.446C262.177 903.126 261.058 902.193 261.338 904.059C261.617 906.859 264.134 907.606 266.931 911.152L276.719 909.286L287.906 905.366L276.44 900.513C282.872 901.633 304.406 909.659 308.602 912.645C298.254 910.592 303.008 909.472 291.821 913.579C286.787 915.445 282.033 916.939 276.719 919.178C283.152 926.085 296.576 935.791 306.364 941.95C328.458 955.949 320.068 951.283 345.797 948.296L343.56 950.909C341.882 952.216 342.721 951.469 341.043 952.776C338.806 954.269 338.246 954.643 336.289 956.322C340.204 960.242 358.662 963.789 366.213 963.975C367.332 959.309 364.815 906.859 362.857 904.059L360.06 901.633C357.263 902.379 339.644 893.98 328.458 891.18C324.822 890.247 320.627 888.754 317.271 888.567C316.432 887.634 315.034 886.7 315.314 884.461C313.076 886.327 315.593 885.207 311.957 885.767L284.27 884.274L287.347 894.353L276.719 884.274L247.914 888.194C252.388 892.114 256.583 890.994 259.38 894.54L247.914 890.807L257.142 901.26Z" fill="#BAC8F3"/>
<path fill-rule="evenodd" clip-rule="evenodd" d="M295.457 802.707C299.652 802.707 301.33 803.453 304.966 805.506L310.839 806.626C311.678 804.2 320.068 817.825 321.186 819.132C326.78 827.158 329.576 828.278 328.178 833.878C327.619 836.304 329.297 838.171 330.695 839.851C332.373 842.277 333.492 843.584 335.17 846.197C337.687 850.117 356.984 879.794 360.06 880.541L363.136 880.168C359.221 865.049 361.179 813.719 357.823 805.693V811.106C354.467 809.426 355.585 809.239 352.509 807.373L353.348 840.411C348.594 826.598 357.823 809.239 346.077 800.653C338.806 795.054 328.458 785.161 319.508 781.055L316.712 795.054C314.474 789.267 314.474 784.601 312.796 779.188C310.559 771.722 284.27 761.269 276.999 758.656C278.397 761.829 279.795 762.576 281.474 766.309C281.194 766.122 280.914 765.749 280.634 765.749C280.634 765.562 280.355 765.189 280.075 765.002L275.321 760.336C283.152 801.4 278.956 795.427 288.745 799.72C291.262 800.84 293.22 801.773 295.457 802.707Z" fill="#9BAEE5"/>
<path fill-rule="evenodd" clip-rule="evenodd" d="M315.314 884.461C315.034 886.701 316.432 887.634 317.271 888.567C320.627 888.754 324.822 890.247 328.458 891.18C339.644 893.98 357.264 902.38 360.06 901.633L363.696 900.886L363.136 880.168L360.06 880.541C356.984 879.795 337.687 850.117 335.17 846.197C333.492 843.584 332.373 842.277 330.695 839.851C329.297 838.171 327.619 836.304 328.178 833.878C320.907 830.891 326.5 830.145 318.669 826.038L289.584 812.599C280.914 805.693 291.542 817.265 287.067 809.799C284.83 810.359 286.787 809.053 285.669 810.919C290.143 826.971 296.576 847.69 303.567 862.809C305.805 868.035 306.364 867.102 311.398 868.969C317.83 871.395 324.822 874.008 330.136 877.181L311.118 877.555L315.314 884.461Z" fill="#9AADE5"/>
<path fill-rule="evenodd" clip-rule="evenodd" d="M470.529 746.15L455.706 731.218C460.181 731.218 457.105 728.978 463.258 735.698C465.495 738.124 466.893 739.618 469.13 741.858C475.003 736.258 479.199 717.406 485.631 710.686C488.148 713.859 481.436 724.312 479.199 727.858C476.122 734.018 473.326 740.364 470.529 746.15ZM466.054 699.86C423.824 708.26 437.528 769.296 477.521 761.083C518.072 752.87 505.207 692.021 466.054 699.86Z" fill="#6D91F0"/>
<path fill-rule="evenodd" clip-rule="evenodd" d="M387.188 634.905C386.908 635.092 386.349 635.092 386.349 635.465L379.078 639.758C377.399 641.251 375.442 644.424 374.323 647.038C371.527 654.317 374.603 707.513 374.883 717.033C377.679 779.935 377.959 843.024 380.476 906.113C381.035 917.312 380.196 965.842 384.95 973.868C386.908 976.855 388.027 977.975 391.103 979.841L397.536 983.014C400.053 984.134 399.213 983.761 400.332 984.507L403.129 984.881C435.571 986.187 484.512 985.067 520.589 985.254C527.021 985.254 526.742 985.067 528.979 983.387C508.284 983.387 407.324 986.001 396.137 981.147C387.747 977.414 384.111 972.188 383.832 960.802L374.883 666.449C374.603 653.757 374.044 645.544 382.154 639.571C388.027 634.905 403.688 634.905 412.078 636.398V655.25C404.527 657.117 399.493 653.57 400.892 663.836C409.002 666.263 539.327 666.076 546.039 663.65L546.319 657.117L535.132 655.437V636.398C583.235 629.306 571.769 659.543 573.446 671.862C575.684 668.689 574.845 662.716 575.124 658.797C575.124 653.197 575.404 649.464 572.887 644.798C568.972 637.518 562.26 634.345 551.353 634.158C525.064 634.158 538.208 637.145 535.132 596.268C534.852 594.588 535.132 594.214 534.293 592.535C533.174 589.735 534.013 591.228 532.335 590.295C535.691 600.934 534.013 648.344 534.013 663.276H413.197C413.197 647.784 413.197 632.478 413.197 617.173C413.197 592.161 415.994 592.535 403.409 580.962C421.028 580.402 514.437 579.095 524.784 582.642C521.428 577.229 496.258 579.469 486.75 579.469H402.57C387.188 579.469 378.798 582.455 376.56 597.014C419.909 597.014 412.358 588.615 412.358 628.372C412.078 639.945 406.765 631.358 387.188 634.905Z" fill="#435C98"/>
<path fill-rule="evenodd" clip-rule="evenodd" d="M216.311 706.393C218.829 706.393 225.541 711.807 228.896 707.14C232.812 701.914 225.82 698.927 223.023 697.061C219.388 694.821 216.311 689.035 220.227 684.368C222.744 681.382 223.023 683.435 226.1 681.195C229.176 679.142 227.218 678.955 229.735 676.715C233.93 680.635 229.456 676.156 231.134 679.515C233.371 683.808 233.092 681.568 235.049 683.995C237.007 685.862 235.608 682.688 236.168 686.048C232.532 688.288 231.693 683.995 224.142 686.048C221.345 696.874 236.447 693.328 234.21 706.953C232.253 710.687 231.693 710.313 228.337 712.18C223.862 714.606 225.261 715.913 223.023 717.779C220.506 715.353 223.303 718.339 221.905 715.353C217.71 706.58 213.235 713.486 216.311 706.393ZM213.235 674.289C214.633 678.955 214.074 675.596 217.43 679.329C214.074 681.568 213.794 682.688 210.998 685.115L206.803 680.449C194.218 685.675 195.616 728.232 231.973 723.379C229.176 720.766 231.414 720.206 233.092 717.779C238.965 717.406 235.049 717.033 239.524 720.579C257.143 708.82 249.312 718.339 254.067 694.634C256.583 682.128 238.965 664.396 223.303 669.809C219.947 670.929 216.311 671.676 213.235 674.289Z" fill="#F49B51"/>
<path fill-rule="evenodd" clip-rule="evenodd" d="M96.0542 659.917L98.5714 642.371C96.8933 641.251 95.7746 641.811 94.0965 639.945C92.4184 638.265 92.1388 637.518 93.5371 635.465C97.173 629.492 96.6136 638.825 99.9694 628.559L101.648 632.292L116.19 632.478L117.309 627.626L119.267 632.478C126.258 630.052 114.512 635.465 121.224 631.172C123.462 629.679 120.385 630.238 122.343 630.425C126.258 630.798 127.097 653.01 115.351 655.997L115.631 660.103L130.174 656.93C132.131 655.064 131.292 656.557 131.292 652.077C133.809 655.81 132.97 657.677 137.725 654.504C130.453 633.972 133.809 640.878 129.334 624.452C122.063 597.388 84.5877 598.508 77.5961 653.57L80.3928 653.944C84.5877 655.064 80.3929 657.303 96.0542 659.917Z" fill="#374263"/>
<path fill-rule="evenodd" clip-rule="evenodd" d="M94.6559 933.177L90.1814 962.295C83.7488 964.349 76.198 963.789 69.2061 963.602L68.9264 969.761L72.2825 969.948C79.8335 972.935 125.14 969.388 137.165 969.201L136.326 964.535L126.818 962.855L120.945 930.004L94.6559 933.177Z" fill="#FDFEFF"/>
<path fill-rule="evenodd" clip-rule="evenodd" d="M94.6558 933.177L120.945 930.004C118.148 913.392 115.631 896.78 113.394 879.981C111.716 865.796 107.8 843.77 107.8 830.145L94.6558 933.177Z" fill="#F2F9FF"/>
<path fill-rule="evenodd" clip-rule="evenodd" d="M213.235 674.289C216.311 671.676 219.947 670.929 223.303 669.809C238.964 664.396 256.583 682.128 254.067 694.634C249.312 718.339 257.143 708.82 239.524 720.579C235.049 717.033 238.964 717.406 233.092 717.779C231.413 720.206 229.176 720.766 231.973 723.379C195.616 728.232 194.218 685.675 206.803 680.449L205.125 678.955C207.082 677.089 209.599 674.849 210.998 672.795L213.235 674.289ZM192.819 701.727C197.014 719.272 205.684 728.232 224.142 731.032C241.481 730.285 251.549 723.379 257.143 711.433C270.847 683.248 239.804 652.264 210.718 667.196C199.531 672.982 192.26 684.368 192.819 701.727Z" fill="#F7C45C"/>
<path fill-rule="evenodd" clip-rule="evenodd" d="M43.4766 932.057C46.2731 947.736 36.485 954.269 47.6715 958.189C51.0276 923.845 53.8241 883.901 59.138 850.303C60.8161 841.344 64.4516 823.612 64.4516 815.212C65.2907 810.173 64.7313 808.679 63.8923 803.64C63.8923 802.706 63.3329 799.907 63.3329 798.973C62.2142 795.427 63.3329 797.293 61.3751 795.427C58.5787 817.452 53.8241 840.037 51.0277 862.996C49.6293 873.075 45.7141 928.137 43.4766 932.057Z" fill="#3F5A9F"/>
<path fill-rule="evenodd" clip-rule="evenodd" d="M96.0541 659.917V663.836C102.766 667.383 111.156 671.116 115.631 662.716V660.103L115.351 655.997C127.097 653.01 126.258 630.799 122.343 630.425C120.385 630.239 123.461 629.679 121.224 631.172C114.512 635.465 126.258 630.052 119.266 632.478L117.309 627.626L116.19 632.478L101.647 632.292L99.9693 628.559C96.6134 638.825 97.1728 629.492 93.537 635.465C92.1386 637.518 92.4182 638.265 94.0963 639.945C95.7744 641.811 96.8931 641.251 98.5712 642.371L96.0541 659.917Z" fill="#FBB37E"/>
<path fill-rule="evenodd" clip-rule="evenodd" d="M51.3075 971.628H48.231C47.1123 977.415 44.8752 983.761 46.2733 989.92C54.104 990.667 90.7407 991.6 95.4949 989.36C98.8507 981.894 91.5794 980.028 86.2658 977.415L82.91 981.521C84.8674 979.094 84.8674 979.654 83.4693 976.108C76.757 978.161 84.0284 978.721 78.4351 979.654C80.6725 978.908 79.8335 978.721 80.3929 974.801C76.4773 973.868 74.5199 973.308 72.2825 969.948L68.9263 969.762L67.8079 970.695C67.8079 970.882 67.5282 971.068 67.2486 971.255C61.9347 976.295 55.7821 979.654 51.3075 971.628Z" fill="#3E4969"/>
<path fill-rule="evenodd" clip-rule="evenodd" d="M154.225 970.882C153.106 972.561 153.666 971.815 151.708 973.495C146.954 977.041 144.996 976.481 140.801 975.921C138.284 972.561 140.242 973.495 136.886 971.442C135.767 972.375 134.649 970.695 133.25 979.281C132.691 983.201 132.131 986.374 132.97 989.547C137.725 991.04 176.319 991.227 182.192 989.733C183.87 985.441 182.192 983.014 179.955 980.961C170.726 973.495 171.565 980.401 171.565 980.401L170.726 978.348C169.887 976.668 170.446 977.415 169.607 976.108C168.488 977.041 169.047 976.481 167.929 977.601C167.09 978.348 167.09 978.348 166.251 979.468C168.768 974.241 167.929 975.548 162.895 972.935C159.259 971.068 157.581 969.575 154.225 970.882Z" fill="#3E4969"/>
<path fill-rule="evenodd" clip-rule="evenodd" d="M451.232 945.683C452.071 942.51 454.028 933.177 451.791 928.884C449.274 924.591 423.265 923.658 421.028 929.818C419.07 934.671 420.748 942.323 421.867 945.683C428.579 947.55 444.24 947.55 451.232 945.683Z" fill="#3F5A9F"/>
<path fill-rule="evenodd" clip-rule="evenodd" d="M421.867 872.328C429.138 874.195 443.961 874.195 450.952 872.328C452.35 868.969 453.469 860.756 451.791 856.463C450.113 851.237 441.723 852.73 436.41 852.73C428.859 852.73 414.316 849.37 421.867 872.328Z" fill="#6D91F0"/>
<path fill-rule="evenodd" clip-rule="evenodd" d="M464.656 872.142C470.529 874.008 486.75 874.568 492.623 872.515C495.699 868.782 495.979 862.249 494.86 857.209C493.462 851.237 485.631 852.73 480.318 852.73C474.724 852.73 466.614 851.237 464.097 855.903C461.859 860.196 463.258 868.409 464.656 872.142Z" fill="#6D91F0"/>
<path fill-rule="evenodd" clip-rule="evenodd" d="M535.412 872.515C539.327 868.035 539.607 855.157 534.293 853.29C531.496 852.17 511.92 852.357 509.403 853.477C504.369 855.716 504.089 871.022 509.962 872.889C513.877 874.382 531.496 873.822 535.412 872.515Z" fill="#6D91F0"/>
<path fill-rule="evenodd" clip-rule="evenodd" d="M506.326 908.166C512.199 909.472 507.165 910.032 519.471 910.032C524.505 910.032 530.098 910.592 534.852 909.472C538.768 905.739 539.886 895.287 535.412 890.247C529.259 888.194 513.318 888.754 507.445 890.62C505.487 895.66 506.047 902.38 506.326 908.166Z" fill="#6D91F0"/>
<path fill-rule="evenodd" clip-rule="evenodd" d="M429.977 910.032C452.91 910.032 454.028 912.646 451.232 890.434C439.206 888.381 442.562 889.127 429.977 889.314C420.748 889.314 420.469 890.994 420.469 899.393C420.469 907.606 421.307 910.032 429.977 910.032Z" fill="#6D91F0"/>
<path fill-rule="evenodd" clip-rule="evenodd" d="M471.368 836.677C493.741 836.677 495.14 838.544 495.14 825.105C495.14 813.906 491.224 815.959 471.368 815.959C463.258 815.959 463.258 818.759 463.258 826.225C463.258 832.944 464.097 836.677 471.368 836.677Z" fill="#6D91F0"/>
<path fill-rule="evenodd" clip-rule="evenodd" d="M428.859 836.677C452.63 836.677 454.308 839.29 451.232 817.079C440.045 815.025 440.884 815.959 428.859 815.959C420.469 815.959 420.469 818.572 420.469 826.225C420.469 833.131 421.308 836.677 428.859 836.677Z" fill="#6D91F0"/>
<path fill-rule="evenodd" clip-rule="evenodd" d="M472.487 926.085C465.215 926.085 463.258 928.511 463.258 935.604C462.978 943.257 462.978 946.803 471.368 946.803C491.224 946.803 495.14 949.043 495.14 937.657C495.14 924.218 493.182 926.085 472.487 926.085Z" fill="#6D91F0"/>
<path fill-rule="evenodd" clip-rule="evenodd" d="M472.487 910.032C493.741 910.032 495.14 911.899 495.14 898.273C495.14 887.261 490.944 889.314 472.487 889.314C463.817 889.314 463.258 891.18 463.258 899.393C463.258 907.046 464.656 910.032 472.487 910.032Z" fill="#6D91F0"/>
<path fill-rule="evenodd" clip-rule="evenodd" d="M506.326 834.811L534.852 836.118C538.768 832.385 539.886 822.119 535.412 816.892C529.259 815.026 513.318 815.399 507.445 817.452C505.487 822.492 506.047 829.025 506.326 834.811Z" fill="#6D91F0"/>
<path fill-rule="evenodd" clip-rule="evenodd" d="M75.3593 739.244C76.4777 745.777 75.9186 752.31 78.9948 754.923C82.6306 756.976 100.529 753.243 104.724 751.564C105.563 745.59 103.326 740.364 103.046 734.578C99.1307 731.592 88.2239 734.391 80.6728 735.324C73.9609 736.258 75.3593 737.751 75.3593 739.244Z" fill="#7196F0"/>
<path fill-rule="evenodd" clip-rule="evenodd" d="M506.326 927.951C505.767 933.737 505.487 940.457 507.445 945.497C512.479 947.363 519.75 946.803 526.183 946.803C534.572 946.99 537.929 947.737 537.929 938.404C527.581 935.604 529.818 937.844 529.818 925.898C515.555 925.898 516.954 924.591 506.326 927.951Z" fill="#3F5A9F"/>
<path fill-rule="evenodd" clip-rule="evenodd" d="M287.067 809.799C291.542 817.266 280.914 805.693 289.584 812.599L318.669 826.038C326.5 830.145 320.907 830.891 328.178 833.878C329.577 828.278 326.78 827.158 321.187 819.132C320.068 817.826 311.678 804.2 310.839 806.626L304.966 805.506C301.33 803.453 299.652 802.707 295.457 802.707L282.592 798.227C282.872 799.907 285.669 811.853 286.787 809.426C286.787 809.24 287.067 809.613 287.067 809.799Z" fill="#A4B6E9"/>
<path fill-rule="evenodd" clip-rule="evenodd" d="M179.955 798.227C185.268 799.16 198.133 796.174 204.285 795.24C221.345 792.627 221.345 794.121 218.549 784.788C212.116 784.414 200.93 787.028 193.938 788.148C183.59 789.641 176.319 787.401 179.955 798.227Z" fill="#FDFEFF"/>
<path fill-rule="evenodd" clip-rule="evenodd" d="M216.311 706.393C213.235 713.486 217.71 706.58 221.905 715.353C223.303 718.339 220.506 715.353 223.023 717.779C225.261 715.913 223.862 714.606 228.337 712.179C231.693 710.313 232.252 710.686 234.21 706.953C236.447 693.327 221.345 696.874 224.142 686.048C231.693 683.995 232.532 688.288 236.168 686.048C235.608 682.688 237.007 685.861 235.049 683.995C233.091 681.568 233.371 683.808 231.134 679.515C229.456 676.155 233.93 680.635 229.735 676.715C227.218 678.955 229.176 679.142 226.1 681.195C223.023 683.435 222.744 681.382 220.227 684.368C216.311 689.035 219.387 694.821 223.023 697.061C225.82 698.927 232.812 701.914 228.896 707.14C225.54 711.806 218.828 706.393 216.311 706.393Z" fill="#FBC259"/>
<path fill-rule="evenodd" clip-rule="evenodd" d="M75.6387 797.48C80.6726 798.414 101.088 795.24 106.402 793.374L105.843 785.908C99.1305 784.601 82.6304 788.894 74.7997 789.641L75.6387 797.48Z" fill="#FDFEFF"/>
<path fill-rule="evenodd" clip-rule="evenodd" d="M186.387 779.935C190.861 781.055 211.836 777.695 217.15 775.828L216.311 768.362C209.04 767.242 193.379 771.349 185.268 772.282L186.387 779.935Z" fill="#FDFEFF"/>
<path fill-rule="evenodd" clip-rule="evenodd" d="M485.911 778.068C485.351 781.428 485.631 779.935 489.826 780.308C491.784 780.495 495.699 780.121 497.657 780.121C552.192 779.935 546.599 790.574 547.717 740.364L549.116 703.407C548.836 695.754 550.234 699.487 546.599 699.487C547.158 702.287 545.48 770.602 544.081 775.268C543.242 776.948 543.242 776.575 542.683 777.322C537.09 779.561 495.14 778.441 485.911 778.068Z" fill="#536CAA"/>
<path fill-rule="evenodd" clip-rule="evenodd" d="M142.199 780.122C137.445 778.442 128.775 781.241 123.461 782.175C112.555 783.855 110.597 781.428 112.834 792.627L143.598 787.774L142.199 780.122Z" fill="#FDFEFF"/>
<path fill-rule="evenodd" clip-rule="evenodd" d="M148.912 778.255C147.793 789.454 152.267 786.468 161.217 784.974C167.369 784.041 174.641 783.668 179.675 781.615C180.794 778.255 180.234 777.695 179.116 773.402L148.912 778.255Z" fill="#FDFEFF"/>
<path fill-rule="evenodd" clip-rule="evenodd" d="M51.3075 971.628C55.782 979.654 61.9347 976.294 67.2486 971.255C67.5282 971.068 67.8079 970.881 67.8079 970.695L68.9263 969.761L69.206 963.602L51.3075 960.429V971.628Z" fill="#FBB37E"/>
<path fill-rule="evenodd" clip-rule="evenodd" d="M53.5449 770.602L59.1382 773.589C72.5622 779.935 60.8163 778.068 74.2402 777.882C72.2825 774.148 72.5622 778.815 73.6809 770.789L68.647 769.109C69.7654 767.989 70.0451 767.802 70.6044 767.056C72.5622 764.629 71.1638 768.176 71.1638 766.122C65.2908 764.629 65.2908 765.376 60.5366 762.39C56.3414 763.696 59.4179 763.882 56.3414 766.496C53.8243 768.549 52.4262 767.616 51.0278 768.362C55.2227 769.669 52.4262 768.549 53.5449 770.602Z" fill="#FBB37E"/>
<path fill-rule="evenodd" clip-rule="evenodd" d="M276.719 909.286L269.168 911.712C270.567 914.326 272.804 916.192 274.202 918.245C278.677 918.058 287.626 914.326 292.94 912.459L299.093 909.286C280.355 903.686 291.822 907.606 276.719 909.286Z" fill="#BAC8F3"/>
<path fill-rule="evenodd" clip-rule="evenodd" d="M653.152 823.985C657.067 826.785 671.889 828.465 677.203 829.585C679.72 827.345 681.398 825.292 683.076 822.119C647.838 818.572 665.177 821.185 653.152 823.985Z" fill="#BAC8F3"/>
<path fill-rule="evenodd" clip-rule="evenodd" d="M137.165 969.201L136.886 971.441C140.242 973.495 138.284 972.561 140.801 975.921C144.996 976.481 146.954 977.041 151.708 973.495C153.666 971.815 153.106 972.561 154.225 970.881L153.945 968.641L155.344 965.842L164.293 965.095C154.505 966.402 146.115 965.469 136.326 964.535L137.165 969.201Z" fill="#FBB37E"/>
<path fill-rule="evenodd" clip-rule="evenodd" d="M470.529 746.15C473.325 740.364 476.122 734.018 479.198 727.858C481.436 724.312 488.148 713.859 485.631 710.686C479.198 717.406 475.003 736.258 469.13 741.858C466.893 739.618 465.495 738.124 463.257 735.698C457.105 728.978 460.181 731.218 455.706 731.218L470.529 746.15Z" fill="#F9FBFF"/>
<path fill-rule="evenodd" clip-rule="evenodd" d="M422.146 947.363C416.832 942.324 418.51 931.684 421.307 925.151C412.917 926.085 413.197 928.698 413.476 937.844C413.476 944.937 414.595 947.737 422.146 947.363Z" fill="#3F5A9F"/>
<path fill-rule="evenodd" clip-rule="evenodd" d="M464.096 837.611C461.3 831.078 459.901 820.252 464.656 815.399C457.384 815.212 456.266 818.012 456.266 825.105C455.986 833.691 455.427 836.677 464.096 837.611Z" fill="#647CE2"/>
<path fill-rule="evenodd" clip-rule="evenodd" d="M464.656 947.55C459.901 942.51 461.3 931.684 464.096 925.151C455.706 926.085 455.986 928.698 456.266 937.844C456.266 944.563 457.944 947.55 464.656 947.55Z" fill="#647CE2"/>
<path fill-rule="evenodd" clip-rule="evenodd" d="M464.096 910.966C461.3 904.433 459.622 893.607 464.656 888.567C457.944 888.567 456.266 891.554 456.266 898.273C455.986 907.419 455.706 910.032 464.096 910.966Z" fill="#647CE2"/>
<path fill-rule="evenodd" clip-rule="evenodd" d="M421.307 837.611C418.51 831.451 416.553 819.878 421.866 815.399C414.595 815.025 413.476 818.012 413.476 825.105C413.197 834.064 412.917 836.864 421.307 837.611Z" fill="#647CE2"/>
<path fill-rule="evenodd" clip-rule="evenodd" d="M421.307 910.966C418.51 904.62 416.553 893.42 421.866 888.754C415.154 888.381 413.476 891.554 413.476 898.273C413.197 907.419 412.917 910.032 421.307 910.966Z" fill="#647CE2"/>
<path fill-rule="evenodd" clip-rule="evenodd" d="M506.326 927.951C506.046 924.778 506.606 926.831 505.207 925.151C498.216 927.018 498.775 929.818 499.055 937.844C499.055 944.563 500.733 947.363 507.724 947.55C504.368 943.444 503.53 936.164 504.368 931.311C505.487 925.525 505.487 928.698 506.326 927.951Z" fill="#3F5A9F"/>
<path fill-rule="evenodd" clip-rule="evenodd" d="M456.266 861.129C456.266 868.782 455.707 874.195 464.656 874.195C460.181 869.528 460.741 859.262 463.258 853.663L464.097 851.796C457.105 852.543 456.266 854.036 456.266 861.129Z" fill="#647CE2"/>
<path fill-rule="evenodd" clip-rule="evenodd" d="M413.477 861.129C413.477 868.595 412.918 874.382 421.867 874.195C417.672 870.275 417.672 859.262 420.469 853.663L421.308 851.796C414.316 852.543 413.477 853.85 413.477 861.129Z" fill="#647CE2"/>
<path fill-rule="evenodd" clip-rule="evenodd" d="M499.055 862.249C499.055 869.528 499.055 874.008 507.445 874.195C503.53 869.715 503.25 860.009 505.487 854.783C505.767 854.41 505.767 854.223 506.047 853.85L506.886 851.796C499.055 852.73 499.055 854.41 499.055 862.249Z" fill="#647CE2"/>
<path fill-rule="evenodd" clip-rule="evenodd" d="M506.326 834.811C505.487 834.065 504.089 839.291 504.368 825.105C504.368 819.319 504.928 818.386 507.445 815.212C500.733 815.399 499.055 818.199 499.055 825.105C498.775 832.945 498.216 835.931 505.207 837.611C506.606 835.931 506.046 837.798 506.326 834.811Z" fill="#647CE2"/>
<path fill-rule="evenodd" clip-rule="evenodd" d="M506.326 908.166C504.648 906.673 505.767 912.086 504.368 904.806C503.25 899.206 504.368 892.3 507.445 888.567C500.733 888.754 499.055 891.554 499.055 898.273C498.775 906.299 498.216 909.099 505.207 910.966C506.326 909.472 506.046 911.152 506.326 908.166Z" fill="#647CE2"/>
<path fill-rule="evenodd" clip-rule="evenodd" d="M75.359 739.244C74.7996 740.178 73.9606 739.058 74.2402 744.097C74.2402 746.15 76.198 755.856 77.8758 756.976C84.0284 758.47 102.487 755.11 106.402 751.75C107.241 748.39 106.402 746.71 106.122 743.164C104.444 733.458 105.004 736.258 103.046 734.578C103.326 740.364 105.563 745.59 104.724 751.564C100.529 753.243 82.6303 756.976 78.9945 754.923C75.9183 752.31 76.4774 745.777 75.359 739.244Z" fill="#E0E7FA"/>
<path fill-rule="evenodd" clip-rule="evenodd" d="M225.54 637.705L231.134 623.519C222.464 625.946 228.057 625.572 219.108 624.079L225.54 637.705Z" fill="#3F5A9F"/>
<path fill-rule="evenodd" clip-rule="evenodd" d="M206.803 680.449L210.998 685.115C213.794 682.688 214.074 681.568 217.43 679.329C214.074 675.595 214.633 678.955 213.235 674.289L210.998 672.796C209.599 674.849 207.082 677.089 205.125 678.955L206.803 680.449Z" fill="#FEE5A6"/>
<path fill-rule="evenodd" clip-rule="evenodd" d="M173.522 704.527L188.065 702.287L179.395 696.874C172.124 704.9 178.836 699.674 176.039 700.42L173.522 704.527Z" fill="#FBB37E"/>
<path fill-rule="evenodd" clip-rule="evenodd" d="M246.236 576.296C245.397 581.522 245.676 577.789 247.075 578.722L250.71 576.669L249.592 574.802C246.515 577.416 248.473 575.922 246.236 576.296Z" fill="#536CAA"/>
<path fill-rule="evenodd" clip-rule="evenodd" d="M334.89 589.175C333.492 586.188 333.771 585.815 330.695 584.882C331.814 588.242 331.814 587.868 334.89 589.175Z" fill="#4B64A5"/>
</g>
</g>
<defs>
<filter id="filter0_d_33_3" x="-62" y="501.229" width="794" height="518.365" filterUnits="userSpaceOnUse" color-interpolation-filters="sRGB">
<feFlood flood-opacity="0" result="BackgroundImageFix"/>
<feColorMatrix in="SourceAlpha" type="matrix" values="0 0 0 0 0 0 0 0 0 0 0 0 0 0 0 0 0 0 127 0" result="hardAlpha"/>
<feOffset dx="5" dy="9"/>
<feGaussianBlur stdDeviation="3.5"/>
<feComposite in2="hardAlpha" operator="out"/>
<feColorMatrix type="matrix" values="0 0 0 0 0 0 0 0 0 0 0 0 0 0 0 0 0 0 0.45 0"/>
<feBlend mode="normal" in2="BackgroundImageFix" result="effect1_dropShadow_33_3"/>
<feBlend mode="normal" in="SourceGraphic" in2="effect1_dropShadow_33_3" result="shape"/>
</filter>
<clipPath id="clip0_33_3">
<rect width="1440" height="1024" fill="white"/>
</clipPath>
</defs>
</svg>
